<svg width="20" height="20" viewBox="0 0 20 20" fill="none" xmlns="http://www.w3.org/2000/svg">
<path fill-rule="evenodd" clip-rule="evenodd" d="M19.494 6.82833C19.703 6.86111 19.8752 7.00456 19.9407 7.20538C20.0063 7.4062 19.953 7.62751 19.7932 7.77505L15.3014 12.1808L16.3793 18.3488C16.3916 18.3898 16.3957 18.4308 16.3957 18.4759C16.3957 18.7791 16.1457 19.0291 15.8424 19.0291C15.7563 19.0291 15.6702 19.0087 15.5883 18.9677L10.0104 16.0537L4.44893 19.0005C4.36696 19.0455 4.2809 19.066 4.19073 19.066C4.07598 19.066 3.96123 19.0291 3.86696 18.9595C3.69483 18.8365 3.60877 18.6275 3.64565 18.4185L4.69073 12.2136L0.170243 7.83243C0.0186039 7.68898 -0.0387732 7.46767 0.0268006 7.26685C0.0923744 7.06603 0.264506 6.92259 0.473522 6.8898L6.70303 5.96357L9.46942 0.311933C9.56369 0.11931 9.75631 0.000457764 9.96533 0.000457764C10.1743 0.000457764 10.367 0.11931 10.4612 0.307835L13.2645 5.94308L19.494 6.82833ZM14.1702 12.0865C14.1375 11.9062 14.1948 11.7218 14.326 11.5947L18.2317 7.77095L12.8219 7.00046C12.6416 6.97177 12.4858 6.86111 12.4038 6.69718L9.96942 1.80374L7.56778 6.70947C7.48992 6.87341 7.33418 6.98406 7.15385 7.01275L1.74811 7.81603L5.66614 11.6193C5.79729 11.7464 5.85467 11.9267 5.82598 12.107L4.92024 17.4964L9.74811 14.939C9.91205 14.857 10.1047 14.8529 10.2645 14.939L15.1088 17.4677L14.1702 12.0865Z" fill="white"/>
</svg>
