<svg width="115" height="102" viewBox="0 0 115 102" fill="none" xmlns="http://www.w3.org/2000/svg">
<circle cx="51" cy="51" r="50" stroke="#083F14"/>
<path fill-rule="evenodd" clip-rule="evenodd" d="M34 61.1464V45.7036C34 43.4679 35.8214 41.6393 38.0643 41.6393H43.7429L43.8786 41.0464C44.4357 38.6679 46.5286 37.0107 48.9643 37.0107H54.0286C56.4714 37.0107 58.5643 38.6679 59.1143 41.0464L59.25 41.6393H64.9357C67.1786 41.6393 69 43.4607 69 45.7036V61.1464C69 63.5036 67.0857 65.4179 64.7286 65.4179H38.2714C35.9143 65.4179 34 63.5036 34 61.1464ZM45.2929 42.7107C45.2 43.1107 44.85 43.3893 44.4429 43.3893H38.0643C36.7857 43.3893 35.75 44.425 35.75 45.7036V61.1464C35.75 62.5393 36.8786 63.6679 38.2714 63.6679H64.7214C66.1143 63.6679 67.2429 62.5393 67.2429 61.1464V45.7036C67.2429 44.425 66.2071 43.3893 64.9286 43.3893H58.55C58.1429 43.3893 57.7929 43.1036 57.7 42.7107L57.4071 41.4393C57.0357 39.8607 55.65 38.7607 54.0286 38.7607H48.9643C47.3429 38.7607 45.9571 39.8607 45.5857 41.4393L45.2929 42.7107Z" fill="#083F14"/>
<circle cx="39.9214" cy="47.125" r="1.17143" fill="#083F14"/>
<path fill-rule="evenodd" clip-rule="evenodd" d="M58.85 53.575C58.85 57.625 55.55 60.925 51.5 60.925C47.45 60.925 44.15 57.6321 44.15 53.575C44.15 49.5178 47.45 46.225 51.5 46.225C55.55 46.225 58.85 49.525 58.85 53.575ZM57.1 53.575C57.1 50.4893 54.5857 47.975 51.5 47.975C48.4143 47.975 45.9 50.4893 45.9 53.575C45.9 56.6607 48.4143 59.175 51.5 59.175C54.5857 59.175 57.1 56.6607 57.1 53.575Z" fill="#083F14"/>
<circle cx="101" cy="51" r="14" fill="#A9CA2E"/>
<path d="M108.502 44.3398L107.535 43.373C107.213 43.0508 106.803 42.875 106.393 42.875C105.953 42.875 105.543 43.0508 105.221 43.373L98.8926 49.7012C98.6582 49.9062 98.5117 50.1992 98.4531 50.4922L97.75 53.6562C97.6914 53.9199 97.8965 54.125 98.1309 54.125C98.1602 54.125 98.1602 54.125 98.1895 54.125C98.1895 54.125 100.357 53.6855 101.354 53.4512C101.646 53.3633 101.91 53.2168 102.115 53.0117L108.473 46.6543C109.146 46.0098 109.146 44.9844 108.502 44.3398ZM107.506 45.6582L101.148 52.0156C101.119 52.0449 101.09 52.0742 101.061 52.0742C100.65 52.1621 100.035 52.3086 99.4492 52.4258L99.8301 50.8145C99.8301 50.7559 99.8594 50.7266 99.8887 50.6973L106.217 44.3691C106.275 44.3105 106.334 44.2812 106.393 44.2812C106.422 44.2812 106.48 44.3105 106.539 44.3691L107.506 45.3359C107.594 45.4238 107.594 45.5703 107.506 45.6582ZM106.422 51.3125C106.012 51.3125 105.719 51.6348 105.719 52.0156V55.7656C105.719 56.1758 105.396 56.4688 105.016 56.4688H96.1094C95.6992 56.4688 95.4062 56.1758 95.4062 55.7656V46.8594C95.4062 46.4785 95.6992 46.1562 96.1094 46.1562H100.328C100.709 46.1562 101.031 45.8633 101.031 45.4531C101.031 45.0723 100.709 44.75 100.328 44.75H96.0801C94.9375 44.75 94 45.7168 94 46.8594V55.7656C94 56.9375 94.9375 57.875 96.0801 57.875H104.957C106.1 57.875 107.037 56.9375 107.037 55.7656L107.125 52.0156C107.125 51.6348 106.803 51.3125 106.422 51.3125Z" fill="white"/>
</svg>
