<svg width="100" height="100" viewBox="0 0 100 100" fill="none" xmlns="http://www.w3.org/2000/svg">
<mask id="mask0_940_1277" style="mask-type:alpha" maskUnits="userSpaceOnUse" x="0" y="0" width="100" height="100">
<circle cx="50" cy="50" r="50" fill="#ECF3CF"/>
</mask>
<g mask="url(#mask0_940_1277)">
<rect x="-27" y="-5" width="138" height="119" fill="#ECF4D0"/>
<path d="M50.5 60C62.2188 60 71.9286 50.4258 71.9286 38.5C71.9286 26.7422 62.2188 17 50.5 17C38.6138 17 29.0714 26.7422 29.0714 38.5C29.0714 50.4258 38.6138 60 50.5 60ZM58.8705 68.0625H41.9621C25.8906 68.0625 13 81.1641 13 97.2891C13 100.48 15.5112 103 18.692 103H82.1406C85.3214 103 88 100.48 88 97.2891C88 81.1641 74.942 68.0625 58.8705 68.0625Z" fill="#A9CA2E"/>
</g>
</svg>
