<svg width="28" height="28" viewBox="0 0 28 28" fill="none" xmlns="http://www.w3.org/2000/svg">
<circle cx="14" cy="14" r="14" fill="#A9CA2E"/>
<path d="M21.502 7.33984L20.5352 6.37305C20.2129 6.05078 19.8027 5.875 19.3926 5.875C18.9531 5.875 18.543 6.05078 18.2207 6.37305L11.8926 12.7012C11.6582 12.9062 11.5117 13.1992 11.4531 13.4922L10.75 16.6562C10.6914 16.9199 10.8965 17.125 11.1309 17.125C11.1602 17.125 11.1602 17.125 11.1895 17.125C11.1895 17.125 13.3574 16.6855 14.3535 16.4512C14.6465 16.3633 14.9102 16.2168 15.1152 16.0117L21.4727 9.6543C22.1465 9.00977 22.1465 7.98438 21.502 7.33984ZM20.5059 8.6582L14.1484 15.0156C14.1191 15.0449 14.0898 15.0742 14.0605 15.0742C13.6504 15.1621 13.0352 15.3086 12.4492 15.4258L12.8301 13.8145C12.8301 13.7559 12.8594 13.7266 12.8887 13.6973L19.2168 7.36914C19.2754 7.31055 19.334 7.28125 19.3926 7.28125C19.4219 7.28125 19.4805 7.31055 19.5391 7.36914L20.5059 8.33594C20.5938 8.42383 20.5938 8.57031 20.5059 8.6582ZM19.4219 14.3125C19.0117 14.3125 18.7188 14.6348 18.7188 15.0156V18.7656C18.7188 19.1758 18.3965 19.4688 18.0156 19.4688H9.10938C8.69922 19.4688 8.40625 19.1758 8.40625 18.7656V9.85938C8.40625 9.47852 8.69922 9.15625 9.10938 9.15625H13.3281C13.709 9.15625 14.0312 8.86328 14.0312 8.45312C14.0312 8.07227 13.709 7.75 13.3281 7.75H9.08008C7.9375 7.75 7 8.7168 7 9.85938V18.7656C7 19.9375 7.9375 20.875 9.08008 20.875H17.957C19.0996 20.875 20.0371 19.9375 20.0371 18.7656L20.125 15.0156C20.125 14.6348 19.8027 14.3125 19.4219 14.3125Z" fill="white"/>
</svg>
