<svg width="18" height="11" viewBox="0 0 18 11" fill="none" xmlns="http://www.w3.org/2000/svg">
<path fill-rule="evenodd" clip-rule="evenodd" d="M13.9048 1.18249C15.3645 1.91125 16.6679 2.97847 17.6742 4.26869C18.0619 4.76572 18.0619 5.45991 17.6742 5.95701C16.6679 7.24727 15.3645 8.31445 13.9048 9.0432C12.4148 9.78712 10.8118 10.1731 9.13852 10.1933C9.09243 10.1946 8.90739 10.1946 8.8613 10.1933C7.18797 10.1731 5.58502 9.78712 4.09502 9.0432C2.63537 8.31445 1.33195 7.24723 0.325661 5.95701C-0.0620042 5.45998 -0.0620042 4.76572 0.325661 4.26869C1.33198 2.97843 2.63537 1.91125 4.09502 1.18249C5.58502 0.438574 7.188 0.0526244 8.8613 0.0323481C8.90739 0.0310874 9.09243 0.0310874 9.13852 0.0323481C10.8119 0.0525894 12.4148 0.438574 13.9048 1.18249ZM0.900821 5.50841C1.84071 6.71346 3.05791 7.71012 4.42087 8.39062C4.80801 8.58389 5.20342 8.75107 5.60603 8.89255C4.57012 7.96149 3.9175 6.61201 3.9175 5.11283C3.9175 3.61372 4.57009 2.26435 5.6059 1.33325C5.20328 1.47473 4.80798 1.64184 4.42087 1.83508C3.05788 2.51558 1.84067 3.51223 0.900821 4.71729C0.719175 4.9502 0.719175 5.2755 0.900821 5.50841ZM8.99994 9.46585C6.59964 9.46585 4.64689 7.5131 4.64689 5.1128C4.64689 2.71249 6.59964 0.759772 8.99994 0.759772C11.4002 0.759772 13.353 2.71253 13.353 5.11283C13.353 7.51313 11.4002 9.46585 8.99994 9.46585ZM13.579 8.39058C14.942 7.71008 16.1592 6.71343 17.0991 5.50838C17.2807 5.27546 17.2807 4.95017 17.0991 4.71722C16.1592 3.51216 14.942 2.51551 13.5791 1.83501C13.1918 1.64167 12.7964 1.47434 12.3936 1.33283C13.4296 2.26393 14.0824 3.61347 14.0824 5.1128C14.0824 6.61131 13.4303 7.96026 12.3952 8.89132C12.7973 8.74999 13.1924 8.58361 13.579 8.39058Z" fill="#083F14"/>
<path fill-rule="evenodd" clip-rule="evenodd" d="M7.13721 5.1128C7.13721 4.08561 7.97288 3.24994 9.00007 3.24994C10.0273 3.24994 10.863 4.08561 10.8629 5.1128C10.8629 6.13999 10.0273 6.97566 9.00007 6.97566C7.97288 6.97566 7.13721 6.13999 7.13721 5.1128ZM7.86656 5.1128C7.86656 5.73786 8.37507 6.24631 9.00007 6.24631C9.62506 6.24631 10.1336 5.73786 10.1335 5.1128C10.1335 4.48777 9.62506 3.97932 9.00007 3.97932C8.375 3.97932 7.86656 4.48777 7.86656 5.1128Z" fill="#083F14"/>
</svg>
