<svg width="14" height="16" viewBox="0 0 14 16" fill="none" xmlns="http://www.w3.org/2000/svg">
<path fill-rule="evenodd" clip-rule="evenodd" d="M3.77191 4.6419C3.87096 5.94273 4.38832 5.38203 4.49505 5.95206C4.67251 6.89962 5.51144 7.58495 6.03366 7.82168C6.33832 7.95971 6.65207 8.02898 6.98194 8.03451V8.03479C6.98309 8.03479 6.98423 8.03467 6.98537 8.03467C6.98651 8.03467 6.98766 8.03479 6.9888 8.03479V8.03451C7.31864 8.02898 7.63236 7.95975 7.93709 7.82168C8.45931 7.58495 9.29823 6.89962 9.47569 5.95206C9.58242 5.38206 10.0998 5.94273 10.1988 4.6419C10.1988 4.12349 9.91636 3.99448 9.91636 3.99448C9.91636 3.99448 10.0599 3.22714 10.1162 2.6367C10.1859 1.90086 9.68667 0 7.02385 0C7.0122 0 7.0014 0.000634921 6.99004 0.000761905C6.98963 0.000761905 6.98924 0.000761905 6.98883 0.000730159V0.000603175C6.98769 0.000634921 6.98655 0.000666667 6.9854 0.000666667C6.98426 0.000666667 6.98312 0.000634921 6.98198 0.000603175V0.000761905C6.98156 0.000793651 6.98118 0.000793651 6.98077 0.000793651C6.9694 0.000634921 6.95861 3.1746e-05 6.94696 3.1746e-05C4.28417 3.1746e-05 3.78493 1.90089 3.85461 2.63673C3.91083 3.22717 4.05445 3.99451 4.05445 3.99451C4.05445 3.99451 3.77191 4.12349 3.77191 4.6419Z" fill="#A9CA2E"/>
<path fill-rule="evenodd" clip-rule="evenodd" d="M13.0258 11.0276C11.6827 10.3444 9.73598 9.49095 9.64256 9.46082C9.64151 9.46044 9.64071 9.46038 9.6397 9.46006C9.58506 9.4406 9.52633 9.42981 9.46497 9.42981C9.23678 9.42981 9.04322 9.57597 8.97141 9.77968C8.97103 9.77943 8.97065 9.77927 8.97027 9.77901C8.6236 10.6144 7.98681 12.1036 7.59141 12.8216L7.49617 10.8085C7.49617 10.8085 8.08998 9.54822 8.15497 9.43276C8.30798 9.16213 8.17017 8.93171 7.88332 8.93171C7.74103 8.93171 7.38506 8.93171 7.02852 8.93171C7.02811 8.93171 7.02773 8.93171 7.02732 8.93171C7.02503 8.93171 7.02275 8.93171 7.02046 8.93171C7.02005 8.93171 7.01967 8.93171 7.01925 8.93171C7.01436 8.93171 7.00948 8.93171 7.00459 8.93171C6.9997 8.93171 6.99481 8.93171 6.98992 8.93171C6.98951 8.93171 6.98913 8.93171 6.98871 8.93171C6.98643 8.93171 6.98414 8.93171 6.98186 8.93171C6.98144 8.93171 6.98106 8.93171 6.98065 8.93171C6.62414 8.93171 6.26821 8.93171 6.12586 8.93171C5.839 8.93171 5.70122 9.16213 5.85421 9.43276C5.91922 9.54822 6.513 10.8085 6.513 10.8085L6.41779 12.8216C6.0224 12.1036 5.3856 10.6145 5.03894 9.77901C5.03856 9.77927 5.03817 9.77943 5.03779 9.77968C4.96598 9.57606 4.77243 9.42981 4.54424 9.42981C4.48287 9.42981 4.42414 9.4406 4.36951 9.46006C4.36849 9.46044 4.3677 9.46054 4.36665 9.46082C4.27325 9.49095 2.32649 10.3444 0.983381 11.0276C0.380206 11.3345 0.0161743 11.7162 0.0161743 12.1178C0.0161743 13.4456 0.0161743 15.2791 0.0161743 15.2791H6.97576H6.98182H6.98516H6.98535H6.98875H6.99481H7.00462H7.01443H7.02049H7.02383H7.02402H7.02735H7.03341H13.993C13.993 15.2791 13.993 13.4456 13.993 12.1178C13.993 11.7162 13.629 11.3345 13.0258 11.0276Z" fill="#A9CA2E"/>
</svg>
