<svg width="24" height="23" viewBox="0 0 24 23" fill="none" xmlns="http://www.w3.org/2000/svg">
<path fill-rule="evenodd" clip-rule="evenodd" d="M20.0437 11.0687C19.6539 11.0687 19.352 11.3692 19.352 11.7609V21.216H14.4471V17.3551C14.4471 16.9929 14.1453 16.6763 13.7804 16.6763H10.2339C9.84377 16.6763 9.52958 16.9929 9.52958 17.3551V21.216H4.63703V12.0748C4.63703 11.7099 4.33546 11.4067 3.94534 11.4067C3.58071 11.4067 3.27887 11.7099 3.27887 12.0748V21.9082C3.27887 22.2731 3.58071 22.5763 3.94534 22.5763H10.2339C10.5985 22.5763 10.9004 22.2731 10.9004 21.9082V18.0473H13.0886V21.9082C13.0886 22.2731 13.3905 22.5763 13.7804 22.5763H20.0437C20.4084 22.5763 20.7102 22.2731 20.7102 21.9082V11.7609C20.7102 11.3692 20.4084 11.0687 20.0437 11.0687Z" fill="#A9CA2E"/>
<path fill-rule="evenodd" clip-rule="evenodd" d="M23.804 11.608L18.3458 6.12649V2.389C18.3458 1.99994 18.0314 1.69947 17.6415 1.69947C17.2766 1.69947 16.9748 1.99998 16.9748 2.389V4.75547L12.4724 0.226446C12.3344 0.086917 12.1705 0.0117798 12.0071 0.0117798C11.8185 0.0117798 11.6549 0.0895837 11.5167 0.226446L0.21023 11.5328C-0.0610245 11.8038 -0.0789853 12.2385 0.21023 12.488C0.461642 12.7778 0.894701 12.759 1.16596 12.488L12.0071 1.6726L22.8231 12.59C22.9358 12.7027 23.0997 12.7671 23.3136 12.7671C23.5022 12.7671 23.6656 12.7027 23.804 12.59C24.0557 12.3378 24.0745 11.8817 23.804 11.608Z" fill="#A9CA2E"/>
</svg>
