<svg width="170" height="82" viewBox="0 0 170 82" fill="none" xmlns="http://www.w3.org/2000/svg">
<path fill-rule="evenodd" clip-rule="evenodd" d="M87.5978 12.2589C87.818 11.7274 88.3367 11.3808 88.9121 11.3808C89.6978 11.3808 90.3347 12.0177 90.3347 12.8033C90.3347 13.3787 89.9881 13.8974 89.4565 14.1176C88.9249 14.3378 88.3131 14.2161 87.9062 13.8092C87.4994 13.4024 87.3776 12.7905 87.5978 12.2589ZM88.7955 12.368C88.7955 12.6814 89.0496 12.9355 89.363 12.9355L89.3708 12.9122C89.6723 12.9083 89.9181 12.6693 89.9305 12.368C89.9305 12.0546 89.6764 11.8005 89.363 11.8005C89.0496 11.8005 88.7955 12.0546 88.7955 12.368Z" fill="#D85F23"/>
<path fill-rule="evenodd" clip-rule="evenodd" d="M78.236 15.6485L78.1961 15.6884C78.0432 15.8679 77.877 16.0407 77.7109 16.1936L77.5314 16.3598L77.7441 16.1936L78.2427 15.6485V15.6485L78.236 15.6485Z" fill="#D85F23"/>
<path fill-rule="evenodd" clip-rule="evenodd" d="M93.9573 9.81594C93.1482 8.4921 91.9735 7.43772 90.5787 6.78339C90.7125 5.54443 90.6794 4.29279 90.4803 3.06286C90.4787 3.04479 90.4787 3.02661 90.4803 3.00855C90.4432 2.57182 90.4432 2.13268 90.4803 1.69595C90.562 1.02169 90.1896 0.375059 89.5699 0.115139C88.9502 -0.144781 88.2354 0.0458504 87.8225 0.581171C87.4096 1.11649 87.3999 1.86502 87.7989 2.41109L87.8525 2.48351C88.0827 2.80132 88.258 3.15639 88.3709 3.53358C88.3729 3.55769 88.3729 3.5819 88.3709 3.606C88.5069 4.44952 88.5459 5.30616 88.4871 6.15878C87.2912 5.98214 86.0718 6.06859 84.9119 6.41225C84.2025 5.27295 83.3424 4.2374 82.3556 3.33443C82.0288 2.99772 81.7299 2.6344 81.4618 2.24815C81.0298 1.47822 80.0634 1.2087 79.3032 1.64616C78.543 2.08362 78.2769 3.06239 78.7088 3.83231C78.9042 4.23744 79.2625 4.53763 79.692 4.65608H79.7814C80.1868 4.77243 80.5704 4.95596 80.9166 5.19922C81.632 5.85124 82.2654 6.59005 82.8025 7.39896L82.8024 7.39899C82.6237 7.51666 82.445 7.63433 82.2751 7.7701C80.9434 8.84864 79.84 10.1879 79.0306 11.7079C78.9829 11.786 78.9352 11.8644 78.8872 11.9433L78.8871 11.9434L78.8871 11.9434C78.7016 12.2485 78.5126 12.5592 78.3066 12.8757C76.891 10.3173 74.9383 8.10475 72.5862 6.39414C65.4983 1.17996 56.882 1.75932 50.9024 3.17149L49.7404 3.44306L50.0443 4.61082C50.6307 6.5475 51.5112 8.37992 52.6542 10.0423C50.0414 10.9648 47.5382 12.1793 45.1909 13.6632L44.1005 14.3512L44.896 15.3832C46.7933 17.6527 49.1022 19.5332 51.6979 20.9232L51.5012 21.2129C49.4107 24.5481 48.8994 28.6543 50.1069 32.4107C50.9728 35.6431 53.1346 38.361 56.0686 39.9061C57.8307 40.807 59.7794 41.2694 61.7532 41.2549C63.4631 41.241 65.1583 40.935 66.7675 40.3497C71.7576 38.7418 75.7022 34.8374 77.4039 29.8217C77.4457 29.7096 77.4875 29.5982 77.5291 29.4873L77.5292 29.4872L77.5292 29.4871L77.5293 29.4869L77.5293 29.4868L77.5295 29.4862C77.639 29.1944 77.7473 28.9061 77.8508 28.6178C78.5658 26.6534 79.1915 24.9968 80.5322 23.7476C81.8623 23.0023 83.378 22.6657 84.894 22.779C86.9959 22.8668 89.0851 22.4087 90.963 21.4483C92.9929 20.4142 94.485 18.545 95.0583 16.3181C95.6315 14.0912 95.2303 11.7222 93.9573 9.81594ZM75.1872 12.3235L75.1547 12.3027C72.6855 8.81301 66.1597 2.44362 52.6006 5.15396C53.1893 6.63944 53.9644 8.04201 54.9066 9.32712C59.5789 8.03202 64.5171 8.09791 69.154 9.51722C71.2659 10.176 73.2834 11.1125 75.1547 12.3027L75.1693 12.3235H75.1872ZM54.6117 11.8256C52.1396 12.5947 49.7641 13.6519 47.5327 14.9758H47.5148C49.9249 17.4398 52.8824 19.2835 56.1401 20.3529C57.2067 20.6883 58.3019 20.9216 59.4115 21.05C64.1933 21.5931 69.1361 20.1357 74.1415 16.7229C74.6658 16.3669 75.1932 15.9867 75.7235 15.5823C73.5211 13.853 71.025 12.5461 68.3585 11.726C63.9853 10.4 59.3245 10.4 54.9513 11.726L54.6117 11.8256ZM57.0339 37.8784C54.6703 36.6191 52.9335 34.4171 52.2431 31.8042C51.5402 29.5909 51.5402 27.2101 52.2431 24.9968C53.5875 30.9864 57.464 36.0744 62.8437 38.9103C60.8376 39.1494 58.8061 38.7907 56.9982 37.8784H57.0339ZM65.9988 38.1771C66.7882 37.8936 67.5534 37.5454 68.287 37.1361H68.2691C69.1873 36.6534 70.0582 36.0835 70.8701 35.4342C66.9195 34.5652 61.5834 31.7499 58.4104 23.2769C56.8196 23.0297 55.2628 22.5953 53.7715 21.9824L53.6285 21.928V22.1362C55.3357 32.9358 62.4236 36.8645 65.9988 38.1771ZM72.5505 33.7414L72.5342 33.7395C73.3973 32.6946 74.1045 31.5271 74.6331 30.2743C70.4666 29.6497 66.8703 26.989 65.0156 23.1592C63.8353 23.3713 62.6392 23.4803 61.4404 23.4851H60.5466C63.8216 31.3751 69.1636 33.3368 72.5342 33.7395L72.5326 33.7414H72.5505ZM89.8368 19.4386C91.3029 18.6881 92.3943 17.3531 92.8489 15.7543L92.8311 15.7453C93.183 14.1412 92.8661 12.4611 91.9551 11.1014C91.1432 9.74624 89.7954 8.80984 88.2547 8.53051H88.0134C87.3256 8.43987 86.6275 8.46742 85.9487 8.61198C86.0498 8.83645 86.1393 9.06608 86.2169 9.29996L84.2058 10.7031C84.0945 10.3009 83.9541 9.90753 83.7857 9.52627L83.5533 9.69826C82.45 10.603 81.538 11.7237 80.8719 12.9933C80.3718 13.8639 79.8133 14.6987 79.2004 15.4918L78.8876 15.872L78.834 15.9263C78.6284 16.1617 78.4049 16.397 78.1815 16.6143L77.9402 16.8406H77.8955L77.4664 17.1846C74.3532 19.7269 70.7751 21.6219 66.9373 22.7609C68.6406 25.9449 71.7833 28.0748 75.3392 28.4548L75.5358 27.9117C76.3402 25.7119 77.1 23.6389 78.9591 22.0276L79.0753 21.9371C80.7713 20.9098 82.7336 20.424 84.7063 20.543C86.4826 20.638 88.2522 20.2571 89.8368 19.4386Z" fill="#D85F23"/>
<path fill-rule="evenodd" clip-rule="evenodd" d="M45.523 72.5523L42.3581 81.0879H39.441L36.2761 72.5523H38.8997L40.9087 78.6299L42.8994 72.5523H45.523V72.5523Z" fill="#D85F23"/>
<path fill-rule="evenodd" clip-rule="evenodd" d="M46.3787 79.7437H49.6645L50.0684 81.0879H52.636L49.5388 72.5523H46.4864L43.3892 81.0879H45.9567L46.3787 79.7437ZM48.0754 74.559L49.0719 77.7466H47.0789L48.0754 74.559Z" fill="#D85F23"/>
<path fill-rule="evenodd" clip-rule="evenodd" d="M61.8829 81.0164H60.1074V80.082C59.4252 80.8058 58.4705 81.1693 57.5063 81.0725C56.0182 81.1154 54.6278 80.2952 53.8859 78.9368C53.144 77.5784 53.1702 75.9011 53.9542 74.5691C54.7382 73.2372 56.1535 72.4656 57.6394 72.5601C60.3027 72.5601 61.5455 73.9897 61.7408 75.8772H59.2906C59.0569 75.2031 58.4144 74.7857 57.7371 74.8681C57.2296 74.8501 56.7392 75.0616 56.3896 75.4491C56.0401 75.8367 55.8649 76.3633 55.9083 76.8957C55.8646 77.4298 56.041 77.958 56.3925 78.3459C56.7441 78.7338 57.237 78.9441 57.7459 78.9233C58.3317 78.9679 58.9064 78.739 59.3173 78.2973H57.8525V76.4846H61.874V80.9884L61.8829 81.0164Z" fill="#D85F23"/>
<path fill-rule="evenodd" clip-rule="evenodd" d="M65.5836 79.7341H68.8515L69.2824 81.0879H71.841L68.7437 72.5523H65.6914L62.5941 81.0783H65.1617L65.5836 79.7341ZM67.2175 74.559L68.2141 77.7466H66.221L67.2175 74.559Z" fill="#D85F23"/>
<path fill-rule="evenodd" clip-rule="evenodd" d="M80.3765 78.4623C80.3765 80.123 78.7858 81.0879 76.3996 81.0879C74.0135 81.0879 72.5522 80.1044 72.5522 78.3045H75.1881C75.1881 78.7313 75.595 78.9633 76.4644 78.9633C77.4725 78.9633 77.7777 78.7591 77.7869 78.4159C77.7869 77.2098 72.691 78.4159 72.691 75.1315C72.691 73.6007 74.217 72.5523 76.4736 72.5523C78.7303 72.5523 80.173 73.5821 80.173 75.3356H77.5372C77.5372 74.9089 77.2135 74.6491 76.3349 74.6491C75.4563 74.6491 75.2251 74.881 75.2251 75.1779C75.2806 76.2913 80.3765 75.0109 80.3765 78.4623Z" fill="#D85F23"/>
<path fill-rule="evenodd" clip-rule="evenodd" d="M87.7695 81.0879C90.5505 81.0879 92.4687 79.5001 92.4687 76.796C92.4687 74.1208 90.5505 72.5523 87.7695 72.5523H83.9331V81.0879H87.7695ZM89.2622 75.2435C89.6575 75.6486 89.8576 76.2189 89.807 76.796C89.8636 77.3763 89.6661 77.9522 89.2701 78.3618C88.874 78.7714 88.3221 78.9706 87.7695 78.9035H86.5488V74.7078H87.7695C88.3186 74.6417 88.867 74.8384 89.2622 75.2435Z" fill="#D85F23"/>
<path fill-rule="evenodd" clip-rule="evenodd" d="M100.293 78.8675V81.0879H93.1799V72.5523H100.226V74.7535H95.8937V75.7147H99.6168V77.8966H95.8937V78.8579H100.293V78.8675Z" fill="#D85F23"/>
<path fill-rule="evenodd" clip-rule="evenodd" d="M110.962 78.8675V81.0879H103.849V72.5523H110.905V74.7535H106.567V75.7147H110.247V77.8966H106.519V78.8579H110.924L110.962 78.8675Z" fill="#D85F23"/>
<path fill-rule="evenodd" clip-rule="evenodd" d="M123.054 72.5523V81.0879H120.505V75.8456L118.503 81.0879H116.946L114.934 75.7975V81.0879H112.385V72.5523H115.639L117.715 78.1019L119.773 72.5523H123.054Z" fill="#D85F23"/>
<path fill-rule="evenodd" clip-rule="evenodd" d="M128.611 78.6436C131.01 78.6436 132.301 77.5947 132.301 75.5835C132.301 73.6205 130.991 72.5523 128.611 72.5523H124.477V81.0879H127.116V78.6436H128.611ZM129.29 74.9168C129.491 75.0788 129.619 75.32 129.644 75.5835C129.648 75.8613 129.529 76.1255 129.322 76.3001C129.115 76.4748 128.843 76.5406 128.583 76.4785H127.088V74.7271H128.583C128.834 74.6861 129.09 74.7547 129.29 74.9168Z" fill="#D85F23"/>
<path fill-rule="evenodd" clip-rule="evenodd" d="M140.419 81.0649C140.8 81.0642 141.18 81.0097 141.548 80.903L141.423 79.0177C141.256 79.0627 141.084 79.0851 140.912 79.0843C140.611 79.0953 140.331 78.926 140.186 78.6463L139.747 77.9131C140.686 77.4868 141.283 76.4932 141.252 75.4089C141.252 73.6092 139.926 72.5523 137.587 72.5523H133.724V80.9982H136.278V78.3702H137.291L137.99 79.6842C138.434 80.6536 139.414 81.2105 140.419 81.0649ZM137.596 76.3611H136.278V74.6662H137.596C137.85 74.6013 138.118 74.6577 138.33 74.8206C138.542 74.9835 138.677 75.2367 138.698 75.5136C138.698 76.0564 138.34 76.3611 137.596 76.3611Z" fill="#D85F23"/>
<path fill-rule="evenodd" clip-rule="evenodd" d="M150.074 78.8675V81.0879H142.971V72.5523H150.017V74.7535H145.684V75.7147H149.408V77.8966H145.684V78.8579H150.084L150.074 78.8675Z" fill="#D85F23"/>
<path fill-rule="evenodd" clip-rule="evenodd" d="M158.619 80.9585H156.836V80.0233C156.171 80.7612 155.226 81.1487 154.26 81.0801C152.766 81.123 151.37 80.3021 150.625 78.9425C149.88 77.5829 149.906 75.9041 150.693 74.5709C151.48 73.2378 152.902 72.4656 154.394 72.5601C157.068 72.5601 158.316 73.991 158.512 75.8802H156.043C155.808 75.2054 155.163 74.7877 154.483 74.8701C153.973 74.8521 153.481 75.0638 153.13 75.4517C152.779 75.8397 152.603 76.3667 152.647 76.8996C152.603 77.4342 152.78 77.9628 153.133 78.351C153.486 78.7393 153.981 78.9498 154.492 78.929C155.075 78.9581 155.641 78.7191 156.043 78.2744H154.572V76.46H158.61V80.9679L158.619 80.9585Z" fill="#D85F23"/>
<path fill-rule="evenodd" clip-rule="evenodd" d="M164.642 72.5523C161.882 72.5523 160.042 74.2445 160.042 76.8248C160.042 79.4051 161.836 81.0879 164.642 81.0879C167.449 81.0879 169.289 79.4144 169.289 76.8248C169.289 74.2351 167.403 72.5523 164.642 72.5523ZM164.675 74.9427C165.72 74.9427 166.586 75.7653 166.657 76.8248H166.694C166.694 77.9478 165.798 78.8582 164.693 78.8582C163.588 78.8582 162.692 77.9478 162.692 76.8248C162.763 75.7653 163.629 74.9427 164.675 74.9427Z" fill="#D85F23"/>
<path fill-rule="evenodd" clip-rule="evenodd" d="M31.757 60.298C27.1956 66.0866 21.3112 65.4156 21.3112 65.4156L19.4866 54.7868C21.0067 54.5506 22.2754 53.5223 22.7983 52.1028L17.6529 52.4607L18.3554 63.0178L6.30397 63.4741L5.59238 53.2569L0.538255 53.6058L0 43.5139L4.98114 43.165L4.32428 32.7778L16.2845 32.2141L16.9505 42.3598L21.9772 42.0108C21.2474 37.2333 20.3898 32.4825 20.3898 32.4825L31.3374 32.0084C31.3374 32.0084 37.3585 53.1585 31.757 60.298Z" fill="#083F14"/>
<path fill-rule="evenodd" clip-rule="evenodd" d="M51.4179 43.9669L55.5195 44.5033L58.3263 44.9125L55.8726 66.8619L34.1422 64.3524L36.768 41.9665L51.4179 43.9669ZM44.0929 55.9327L47.941 56.3782L48.4299 52.6321L44.5456 52.1865L44.0929 55.9327Z" fill="#083F14"/>
<path fill-rule="evenodd" clip-rule="evenodd" d="M67.4573 43.3501C67.0527 45.3205 66.9988 47.6282 68.6082 48.5512C71.6472 50.3264 76.9609 48.9506 76.9609 48.9506V59.9653C76.9609 59.9653 64.9937 62.4149 61.676 56.415C59.626 52.7139 60.1565 46.785 60.8668 42.8176L53.1435 42.0809L49.0795 41.6638L49.6189 31.2971L81.0878 33.7822L80.1887 44.3353L67.4573 43.3501Z" fill="#083F14"/>
<path fill-rule="evenodd" clip-rule="evenodd" d="M83.4103 35.9881C83.4103 35.9881 96.5091 32.0384 104.035 38.8779C110.357 44.5941 109.501 62.5941 109.501 62.5941H99.8351C99.8351 60.6193 99.7905 58.8528 99.7013 57.2584L93.7092 57.7657V62.5941H83.5708V58.6173L80.0576 58.9162L79.6653 49.4497L83.4995 49.0511L83.4103 35.9881ZM93.7271 43.045V48.0002L98.2479 47.5745C96.7897 43.0331 94.7316 43.0412 93.8008 43.0448C93.7754 43.0449 93.7508 43.045 93.7271 43.045Z" fill="#083F14"/>
<path fill-rule="evenodd" clip-rule="evenodd" d="M133.164 50.4483C134.09 52.2714 136.193 53.7335 140.902 52.474L142.259 61.889C142.259 61.889 130.935 64.6193 128.167 59.3349C126.963 57.0626 126.585 53.8215 126.531 50.8975L123.943 51.0737L124.338 61.3254L113.67 61.7833L113.293 51.8399L111.073 51.9896L110.596 43.0414L112.951 42.8917L112.861 40.6634L108.071 40.9893L107.406 31.6359L139.204 29.8745L140.642 49.9463L133.164 50.4483ZM123.413 39.8972L123.511 42.2047L130.027 41.7996L129.812 39.4568L123.413 39.8972Z" fill="#083F14"/>
<path fill-rule="evenodd" clip-rule="evenodd" d="M143.682 61.5582L167.114 64.0167L170 37.8422L160.003 36.8481L158.166 53.3215L154.837 52.9221L156.773 34.5937L146.206 33.431L143.682 61.5582V61.5582Z" fill="#083F14"/>
</svg>
