<svg width="239" height="216" viewBox="0 0 239 216" fill="none" xmlns="http://www.w3.org/2000/svg">
<path d="M219 42H20C8.9543 42 0 50.9543 0 62V163C0 174.046 8.9543 183 20 183H219C230.046 183 239 174.046 239 163V62C239 50.9543 230.046 42 219 42Z" fill="white" fill-opacity="0.5"/>
<path d="M107 154H103V176H107V154Z" fill="#E0E0E0"/>
<path d="M106.843 175.976C106.834 175.827 106.834 175.678 106.843 175.529C106.843 175.216 106.843 174.8 106.843 174.275C106.843 173.165 106.843 171.608 106.799 169.672C106.799 165.763 106.761 160.352 106.739 154.217L106.881 154.368H103.114C103.391 154.054 103.19 154.284 103.255 154.217V160.853C103.255 162.964 103.255 164.973 103.255 166.837C103.255 170.547 103.223 173.69 103.212 175.994L103.13 175.91L105.844 175.958H106.571H106.837C106.76 175.966 106.681 175.966 106.604 175.958H105.887L103.114 176H103.043V175.91C103.043 173.605 103.016 170.48 103 166.752C103 164.888 103 162.88 103 160.768V157.523C103 156.974 103 156.413 103 155.852V154.163L103.147 154H107V154.157C107 160.334 106.957 165.781 106.94 169.72C106.94 171.639 106.908 173.189 106.902 174.293C106.902 174.8 106.902 175.204 106.902 175.499C106.893 175.66 106.873 175.819 106.843 175.976Z" fill="#263238"/>
<path d="M113.931 151H95.0691C93.7257 151 92.4373 150.579 91.4868 149.829C90.5363 149.079 90.0016 148.061 90 147H119C118.998 148.061 118.464 149.079 117.513 149.829C116.563 150.579 115.274 151 113.931 151Z" fill="#263238"/>
<path d="M130.507 147H98V140H130.507C131.433 140 132.322 140.371 132.977 141.03C133.632 141.69 134 142.585 134 143.518C133.991 144.444 133.619 145.33 132.965 145.982C132.311 146.634 131.427 147 130.507 147Z" fill="#D85F23"/>
<path d="M72.9689 89.0314C72.0831 89.1544 71.2791 89.6282 70.7283 90.3518C70.1774 91.0754 69.9234 91.9916 70.0202 92.9051L74.6712 136.364C74.9917 139.289 76.3492 141.991 78.4844 143.953C80.6196 145.915 83.3829 147 86.2467 147H98.5377C99.456 147 100.337 146.625 100.986 145.958C101.635 145.29 102 144.385 102 143.441C102 142.497 101.635 141.591 100.986 140.924C100.337 140.256 99.456 139.881 98.5377 139.881H88.099C86.6647 139.882 85.2791 139.346 84.1997 138.375C83.1203 137.404 82.4206 136.063 82.2304 134.602L76.8293 92.0627C76.7703 91.6032 76.6238 91.1603 76.398 90.7591C76.1723 90.358 75.8718 90.0066 75.5137 89.725C75.1556 89.4434 74.7471 89.2372 74.3114 89.1182C73.8757 88.9992 73.4214 88.9697 72.9746 89.0314H72.9689Z" fill="#D85F23"/>
<path d="M113 140.495L76.5594 141L73 89.19L103.498 89C104.967 89.0079 106.372 89.5919 107.405 90.6238C108.438 91.6557 109.015 93.0511 109.008 94.5034L113 140.495Z" fill="#D85F23"/>
<g opacity="0.3">
<path d="M73.0359 89.4514C72.1302 89.5737 71.308 90.045 70.7447 90.7648C70.1815 91.4846 69.9216 92.396 70.0206 93.3046L74.7767 136.534C75.1045 139.444 76.4926 142.132 78.6761 144.083C80.8595 146.035 83.6852 147.114 86.6137 147.114H99.1825C100.121 147.114 101.022 146.741 101.686 146.077C102.35 145.413 102.723 144.513 102.723 143.574C102.723 142.635 102.35 141.734 101.686 141.07C101.022 140.406 100.121 140.033 99.1825 140.033H87.7408C84.7078 140.033 82.5776 137.885 82.1763 134.876L76.9836 92.4667C76.9233 92.0097 76.7734 91.569 76.5426 91.17C76.3117 90.771 76.0044 90.4214 75.6383 90.1413C75.2721 89.8612 74.8543 89.6561 74.4088 89.5377C73.9632 89.4193 73.4987 89.39 73.0419 89.4514H73.0359Z" fill="#270D00"/>
</g>
<path d="M109 151H101V155H109V151Z" fill="#263238"/>
<path d="M106.574 175H103.426C102.086 175 101 176.012 101 177.261V190.739C101 191.988 102.086 193 103.426 193H106.574C107.914 193 109 191.988 109 190.739V177.261C109 176.012 107.914 175 106.574 175Z" fill="#E0E0E0"/>
<path d="M106.517 193C106.517 193 106.689 193 107.003 192.921C107.392 192.829 107.749 192.644 108.042 192.384C108.335 192.125 108.554 191.799 108.678 191.437C108.777 191.07 108.811 190.69 108.779 190.313C108.779 189.475 108.779 188.525 108.779 187.502C108.779 185.388 108.779 182.892 108.743 180.121C108.743 179.429 108.743 178.715 108.743 177.99C108.77 177.636 108.742 177.28 108.66 176.933C108.564 176.592 108.377 176.28 108.116 176.028C107.854 175.766 107.526 175.572 107.163 175.466C106.775 175.381 106.376 175.353 105.979 175.381H103.481C103.089 175.382 102.705 175.482 102.368 175.67C102.031 175.859 101.753 176.13 101.563 176.455C101.379 176.774 101.284 177.132 101.284 177.495V178.62C101.284 180.126 101.284 181.588 101.284 182.976C101.284 185.748 101.284 188.244 101.255 190.352C101.2 190.836 101.289 191.324 101.509 191.763C101.712 192.116 102.015 192.408 102.383 192.606C102.751 192.805 103.17 192.902 103.593 192.888H104.623L106.05 192.916C106.216 192.909 106.383 192.919 106.547 192.944C106.382 192.956 106.215 192.956 106.05 192.944L104.623 192.972H103.593C103.137 192.993 102.683 192.892 102.285 192.68C101.886 192.468 101.558 192.155 101.338 191.774C101.212 191.551 101.124 191.31 101.077 191.06C101.04 190.8 101.026 190.536 101.036 190.273C101.036 188.165 101.036 185.669 101 182.898C101 181.509 101 180.047 101 178.541V177.417C100.996 177.102 101.057 176.79 101.18 176.498C101.304 176.207 101.487 175.941 101.719 175.717C101.952 175.493 102.229 175.315 102.534 175.194C102.84 175.073 103.167 175.01 103.498 175.01H105.967C106.39 174.981 106.815 175.013 107.228 175.106C107.638 175.225 108.01 175.44 108.311 175.73C108.594 176.02 108.797 176.371 108.903 176.753C108.986 177.122 109.016 177.501 108.992 177.877C108.992 178.603 108.992 179.317 108.992 180.008C108.992 182.78 108.992 185.276 108.962 187.389C108.962 188.435 108.962 189.385 108.962 190.2C108.987 190.594 108.943 190.989 108.832 191.37C108.715 191.688 108.527 191.98 108.282 192.224C107.943 192.557 107.505 192.783 107.027 192.871C106.865 192.939 106.693 192.983 106.517 193Z" fill="#263238"/>
<path d="M127.517 192.003H81.8724C81.2622 191.982 80.6543 192.083 80.088 192.299C79.5216 192.515 79.0097 192.842 78.5852 193.258C76.8918 194.924 76.9973 197.701 77.0032 197.8L79.0833 197.717C79.0833 197.162 79.1946 195.496 80.0911 194.618C80.3211 194.402 80.5961 194.232 80.8987 194.121C81.2013 194.011 81.5248 193.96 81.8489 193.974H93.8256V199H95.9058V193.974H127.494C128.137 193.976 128.753 194.218 129.208 194.649C129.662 195.08 129.918 195.664 129.92 196.273V197.756H132V196.295C132.005 195.163 131.535 194.076 130.695 193.271C129.855 192.466 128.712 192.01 127.517 192.003Z" fill="#E0E0E0"/>
<path d="M127.339 192.197C127.537 192.185 127.735 192.185 127.933 192.197C128.497 192.253 129.045 192.403 129.548 192.64C130.366 193.041 131.035 193.65 131.472 194.39C131.747 194.863 131.916 195.38 131.97 195.911C132.012 196.482 131.97 197.069 132 197.704V197.773H129.738V197.698C129.678 196.775 129.975 195.644 129.114 194.854C128.709 194.456 128.151 194.21 127.553 194.166C126.959 194.166 126.27 194.166 125.605 194.166H116.811H95.3526L95.4951 194.033C95.4951 195.553 95.4951 197.197 95.4951 198.861V199H93.0844V194.033L93.2387 194.171H80.8824C80.4597 194.183 80.0488 194.3 79.6949 194.508C79.3537 194.731 79.0835 195.031 78.9111 195.377C78.5611 196.082 78.3888 196.847 78.4064 197.618V197.757H78.2639L76.156 197.837H76.0016V197.698C75.9822 196.802 76.1369 195.91 76.4588 195.063C76.7612 194.213 77.3229 193.457 78.0798 192.88C78.8515 192.337 79.7957 192.029 80.7755 192C81.7256 192 82.64 192 83.5603 192H94.0463L111.545 192.032L123.147 192.069L126.264 192.096H127.072H127.345C127.345 192.096 127.256 192.096 127.072 192.096H126.264H123.147L111.545 192.139L94.0463 192.171H83.5603C82.6459 192.171 81.7137 192.171 80.7933 192.171C79.8742 192.196 78.9889 192.488 78.2698 193.003C77.5538 193.546 77.0228 194.26 76.7379 195.063C76.4321 195.878 76.2874 196.736 76.3104 197.597L76.1501 197.469L78.252 197.389L78.1095 197.527C78.0879 196.71 78.2705 195.899 78.6439 195.153C78.8398 194.764 79.1446 194.428 79.5286 194.177C79.9277 193.94 80.3923 193.807 80.8705 193.793H93.3812V193.931C93.3812 195.591 93.3812 197.234 93.3812 198.76L93.2328 198.627H95.3348L95.1863 198.76C95.1863 197.095 95.1863 195.452 95.1863 193.931V193.798H95.3348H116.794H125.587C126.258 193.798 126.9 193.798 127.553 193.798C128.181 193.848 128.767 194.104 129.199 194.517C129.63 194.93 129.877 195.472 129.892 196.039C129.892 196.546 129.892 197.037 129.892 197.511L129.809 197.437H131.917L131.84 197.501C131.84 196.871 131.869 196.268 131.84 195.719C131.794 195.201 131.635 194.697 131.371 194.236C130.957 193.506 130.312 192.903 129.518 192.502C129.027 192.257 128.489 192.096 127.933 192.027C127.535 192.208 127.339 192.208 127.339 192.197Z" fill="#263238"/>
<path d="M81.9963 134C81.9019 134 80.4799 124.619 78.8288 113.024C77.1776 101.428 75.9106 92.0119 76.0049 92C76.0993 91.9881 77.5213 101.381 79.1725 112.982C80.8236 124.584 82.0772 133.988 81.9963 134Z" fill="#263238"/>
<path d="M76 89.1853C76.1037 89.1452 76.2117 89.1171 76.3217 89.1015C76.6329 89.0473 76.9474 89.0153 77.2631 89.0057C78.4322 88.9646 79.5984 89.1454 80.7008 89.5385C81.4712 89.8181 82.1595 90.2874 82.7027 90.9035C83.3002 91.6139 83.814 92.3913 84.2339 93.2203C85.1276 94.9504 86.1226 96.8122 87.2129 98.7818C89.3995 102.679 91.455 106.175 92.8492 108.761C93.5582 110.049 94.1004 111.102 94.4697 111.839C94.6366 112.18 94.7677 112.437 94.8809 112.689C94.9362 112.786 94.9764 112.891 95 113C94.9329 112.911 94.8731 112.817 94.8213 112.719L94.3625 111.892L92.6585 108.869C91.2167 106.313 89.1314 102.841 86.9388 98.9315C85.8426 96.9799 84.8536 95.0821 83.9599 93.358C83.5594 92.5413 83.0633 91.7756 82.4823 91.0771C81.9742 90.4799 81.3247 90.0208 80.5936 89.7421C79.5195 89.345 78.3838 89.1423 77.2393 89.1434C76.4528 89.1195 76.006 89.2152 76 89.1853Z" fill="#263238"/>
<path d="M69.9983 92.0006C70.0789 92.0419 67.2293 96.7793 63.6425 102.574C60.0557 108.369 57.0822 113.041 57.0017 113C56.9211 112.958 59.7707 108.221 63.3637 102.42C66.9567 96.6198 69.924 91.9415 69.9983 92.0006Z" fill="#263238"/>
<path d="M101 113H53V127H101V113Z" fill="#FAFAFA"/>
<path d="M66 117L63.6245 123H62.3697L60 117H61.3716L63.0409 121.293L64.7335 117.006L66 117Z" fill="#263238"/>
<path d="M69.5213 121.726H67.4502L67.0569 123H66L67.9858 117H69.0047L71 123H69.9147L69.5213 121.726ZM69.1754 120.669L68.4692 118.369L67.782 120.669H69.1754Z" fill="#263238"/>
<path d="M71 120.005C71.038 119.379 71.2758 118.777 71.6833 118.275C72.0909 117.774 72.6502 117.394 73.291 117.184C73.9319 116.974 74.6257 116.943 75.2855 117.095C75.9454 117.247 76.5418 117.575 77 118.039L76.0667 118.831C75.8764 118.617 75.6361 118.445 75.3637 118.328C75.0913 118.211 74.7938 118.152 74.4933 118.155C73.9629 118.155 73.4542 118.349 73.0791 118.695C72.704 119.041 72.4933 119.51 72.4933 119.998C72.4933 120.487 72.704 120.956 73.0791 121.302C73.4542 121.647 73.9629 121.842 74.4933 121.842C74.7944 121.844 75.0922 121.785 75.3646 121.666C75.637 121.548 75.877 121.375 76.0667 121.16L77 121.952C76.5436 122.418 75.9476 122.749 75.2874 122.903C74.6272 123.057 73.9322 123.027 73.2903 122.818C72.6484 122.608 72.0883 122.228 71.6807 121.725C71.273 121.222 71.0362 120.619 71 119.992V120.005Z" fill="#263238"/>
<path d="M81.9298 121.726H79.0303L78.4796 123H77L79.7801 117H81.2066L84 123H82.4806L81.9298 121.726ZM81.4787 120.675L80.4834 118.376L79.4948 120.669L81.4787 120.675Z" fill="#263238"/>
<path d="M89 117V122.975H87.9629L85.2457 119.372V123H84V117.025H85.0429L87.7543 120.653V117.025L89 117Z" fill="#263238"/>
<path d="M91.8293 118.134H90V117H95V118.134H93.1707V123H91.8415L91.8293 118.134Z" fill="#263238"/>
<path d="M100.845 125.941C100.845 125.941 100.845 125.871 100.845 125.73C100.845 125.59 100.845 125.39 100.845 125.144C100.845 124.61 100.845 123.836 100.845 122.84C100.845 120.823 100.845 117.897 100.798 114.203L100.887 114.291L54.1429 114.355C54.2084 114.285 53.9821 114.508 54.2918 114.203V125.93L54.137 125.783L87.483 125.848L97.3141 125.889H99.9698H100.661H100.899C100.825 125.894 100.752 125.894 100.678 125.889H100.006H97.3855L87.5901 125.93L54.1489 126H54V125.941C54 124.048 54 122.113 54 120.154V114.168C54.3096 113.863 54.0893 114.08 54.1608 114.015L100.905 114.074H101V114.168C101 117.885 100.958 120.829 100.946 122.857C100.946 123.848 100.946 124.616 100.946 125.144V125.73C100.921 125.804 100.887 125.875 100.845 125.941Z" fill="#263238"/>
<path d="M89.9996 52.3713L89.5264 39.9218C89.5079 39.4301 89.3446 38.9637 89.0674 38.6108C88.7902 38.2579 88.4183 38.0428 88.0218 38.0061C87.6048 37.9659 87.1913 38.126 86.8671 38.4533C86.5429 38.7805 86.3329 39.2498 86.2807 39.7637L85.0079 52.2424C84.988 52.4634 85.0059 52.6872 85.0605 52.8991C85.1151 53.1109 85.2051 53.3062 85.3248 53.472C85.4444 53.6379 85.591 53.7706 85.7549 53.8616C85.9188 53.9526 86.0963 53.9997 86.2759 54H88.7268C88.8972 53.9985 89.0657 53.955 89.2224 53.8719C89.379 53.7889 89.5207 53.668 89.6392 53.5164C89.7577 53.3648 89.8506 53.1854 89.9125 52.9888C89.9744 52.7922 90.004 52.5823 89.9996 52.3713Z" fill="#E0E0E0"/>
<path d="M85.1402 30.3444C85.3034 29.691 85.6014 29.1201 85.9964 28.7038C86.3914 28.2874 86.8658 28.0445 87.3594 28.0055C87.8531 27.9666 88.3439 28.1335 88.7698 28.4851C89.1957 28.8367 89.5376 29.3572 89.7522 29.9808C89.9668 30.6044 90.0445 31.3031 89.9755 31.9885C89.9065 32.674 89.6939 33.3154 89.3645 33.8316C89.0351 34.3479 88.6038 34.7158 88.125 34.8888C87.6463 35.0619 87.1417 35.0323 86.6749 34.8039C86.365 34.6522 86.0794 34.4165 85.8346 34.1103C85.5897 33.8041 85.3903 33.4333 85.2478 33.0192C85.1053 32.6051 85.0224 32.1558 85.004 31.6968C84.9855 31.2379 85.0318 30.7783 85.1402 30.3444Z" fill="#E0E0E0"/>
<path d="M57.586 67.3126L50.4811 61.3492C50.1993 61.116 49.8413 60.992 49.4739 61.0004C49.1065 61.0087 48.7547 61.1489 48.484 61.3946C48.1998 61.6538 48.0276 62.0112 48.003 62.3926C47.9785 62.7741 48.1034 63.1502 48.352 63.4429L54.3664 70.5809C54.4742 70.7077 54.6078 70.8106 54.7587 70.8827C54.9095 70.9549 55.074 70.9947 55.2415 70.9995C55.409 71.0043 55.5756 70.9741 55.7304 70.9107C55.8852 70.8474 56.0247 70.7524 56.1398 70.6319L57.6836 68.9921C57.7921 68.8772 57.8759 68.7417 57.93 68.5938C57.984 68.4459 58.0072 68.2887 57.9981 68.1318C57.9889 67.9748 57.9477 67.8212 57.8769 67.6805C57.8061 67.5397 57.7071 67.4145 57.586 67.3126Z" fill="#F5F5F5"/>
<path d="M42.3005 59.6884C42.0643 59.2513 41.9638 58.7537 42.0116 58.2591C42.0595 57.7646 42.2537 57.2955 42.5693 56.9118C42.885 56.528 43.3079 56.2471 43.7839 56.1048C44.26 55.9624 44.7676 55.9652 45.2421 56.1127C45.7166 56.2602 46.1364 56.5457 46.4478 56.9329C46.7593 57.32 46.9484 57.7912 46.9908 58.2862C47.0333 58.7813 46.9273 59.2778 46.6864 59.7123C46.4454 60.1469 46.0805 60.4998 45.638 60.7259C45.0565 61.0233 44.3816 61.0812 43.7579 60.8873C43.1341 60.6934 42.6111 60.2631 42.3005 59.6884Z" fill="#F5F5F5"/>
<path d="M51.4084 38.6077L63.0713 57.2726C63.5323 58.0107 64.2638 58.5641 65.1277 58.8286C65.9916 59.0931 66.9282 59.0503 67.761 58.7084C68.6368 58.3489 69.3328 57.6859 69.7052 56.8563C70.0776 56.0267 70.0979 55.0939 69.7621 54.2506L61.5919 33.7794C61.4455 33.4148 61.2187 33.0838 60.9266 32.808C60.6344 32.5322 60.2836 32.3181 59.8972 32.1796C59.5108 32.0412 59.0977 31.9816 58.6851 32.0049C58.2726 32.0282 57.8699 32.1338 57.5038 32.3147L52.5501 34.7693C52.2013 34.9443 51.8936 35.1842 51.6459 35.4744C51.3981 35.7647 51.2153 36.0994 51.1086 36.4582C51.0019 36.817 50.9734 37.1924 51.025 37.5619C51.0765 37.9314 51.2069 38.2871 51.4084 38.6077Z" fill="#E0E0E0"/>
<path d="M77.9442 67.6803C78.0916 68.7561 77.9456 69.8559 77.5247 70.8404C77.1038 71.825 76.4269 72.6501 75.5796 73.2115C74.7324 73.7728 73.7528 74.0451 72.7648 73.9939C71.7768 73.9427 70.8248 73.5704 70.0292 72.9239C69.2337 72.2775 68.6303 71.3861 68.2954 70.3623C67.9605 69.3386 67.9091 68.2286 68.1478 67.1728C68.3864 66.117 68.9044 65.1627 69.6362 64.4308C70.368 63.6988 71.2807 63.2221 72.2588 63.0608C73.5696 62.8447 74.9047 63.2099 75.9708 64.0761C77.0368 64.9423 77.7466 66.2387 77.9442 67.6803Z" fill="#E0E0E0"/>
<path d="M158.272 26.0353C156.359 25.5546 154.51 24.8515 152.761 23.9405C153.732 24.125 154.679 24.422 155.581 24.8256C156.522 25.122 157.426 25.528 158.272 26.0353Z" fill="#455A64"/>
<path d="M150.725 37.9195C150.135 37.8546 148.541 38.6453 147.214 40.2208L147.149 40.2916C146.211 41.3479 145.626 38.1024 145.567 36.9046C145.551 36.7186 145.494 36.5385 145.399 36.3778C145.304 36.2171 145.174 36.0799 145.019 35.9762C144.863 35.8725 144.687 35.805 144.502 35.7788C144.317 35.7526 144.129 35.7683 143.951 35.8247L139.82 37.4061L138.64 37.3648C138.352 37.4416 138.105 37.624 137.946 37.8757C137.787 38.1273 137.73 38.4296 137.784 38.722L139.248 45.148L139.171 46.8711L147.078 48.5115L147.503 44.2157C147.656 43.7259 147.857 43.1476 148.093 42.4926C148.331 41.9008 148.668 41.354 149.09 40.8758C149.553 40.3319 150.071 39.8375 150.636 39.4006L150.772 39.3239C150.864 39.2796 150.946 39.2175 151.014 39.141C151.116 39.0585 151.192 38.9488 151.235 38.8247C151.277 38.7005 151.284 38.567 151.253 38.4393C151.223 38.3117 151.158 38.1952 151.064 38.1032C150.971 38.0112 150.853 37.9476 150.725 37.9195Z" fill="#FFBE9D"/>
<path d="M148.99 19.804C148.99 19.804 144.269 19.2139 137.188 13.5727C130.107 7.93153 126.254 -0.0935877 125.463 0.000825446C124.673 0.0952386 121.038 -1.17934 115.78 13.8442C110.522 28.8676 113.42 31.9479 114.753 31.8004C116.087 31.6528 124.785 28.313 130.414 28.4251C136.044 28.5372 143.502 30.7854 143.502 30.7854L148.99 19.804Z" fill="#A9CA2E"/>
<path d="M159.552 26.7197L158.254 29.8649L157.664 31.2752C157.281 32.2066 156.555 32.9554 155.636 33.3672C154.717 33.779 153.675 33.8222 152.725 33.488L142.487 30.9683L147.019 17.2489L157.416 21.5919C158.378 21.9903 159.143 22.7536 159.543 23.7147C159.944 24.6757 159.947 25.7563 159.552 26.7197Z" fill="#263238"/>
<path d="M155.516 31.346L152.088 37.4238L150.524 36.9223L139.826 44.9179L137.165 39.1351C137.165 39.1351 143.39 36.7747 144.617 34.6209C145.845 32.4671 144.553 31.942 144.553 31.942L147.562 28.785L155.516 31.346Z" fill="#263238"/>
<path d="M116.323 14.0743C113.538 22.1997 112.723 29.2807 114.511 29.8944C116.299 30.5081 119.999 24.4125 122.773 16.2871C125.546 8.16165 126.372 1.08066 124.584 0.466974C122.796 -0.146712 119.108 5.97244 116.323 14.0743Z" fill="#263238"/>
<path d="M160.809 30.9742L158.042 30.3841L159.411 27.062L161.541 28.1241L160.809 30.9742Z" fill="#455A64"/>
<path d="M157.629 27.9648C157.593 28.0592 156.207 27.6639 154.525 27.0856C153.487 26.7908 152.484 26.3852 151.533 25.8759C152.595 26.0616 153.635 26.3562 154.637 26.7551C155.674 27.0527 156.677 27.4582 157.629 27.9648Z" fill="#455A64"/>
<path d="M156.761 30.0419C156.761 30.0891 156.431 30.0419 155.906 29.9357L154.985 29.7233C154.643 29.6347 154.283 29.4931 153.899 29.3633C152.955 29.0883 152.051 28.6916 151.209 28.1831C151.244 28.0887 152.495 28.5077 154.017 29.0447C154.395 29.1804 154.749 29.3279 155.085 29.4341C155.422 29.5403 155.717 29.6229 155.965 29.7115C156.472 29.8649 156.761 29.9947 156.761 30.0419Z" fill="#455A64"/>
<path d="M123.333 11.6608C123.333 11.6608 119.079 9.54835 117.391 15.2013C115.703 20.8543 120.017 21.3146 120.017 21.3146C121.575 18.2703 122.691 15.0198 123.333 11.6608Z" fill="#FAFAFA"/>
<path d="M126.998 4.79227C127.007 5.14537 126.987 5.49866 126.939 5.84851C126.874 6.52121 126.785 7.50074 126.638 8.71041C126.526 9.30049 126.396 9.96138 126.266 10.6636C126.195 11.0117 126.124 11.3776 126.053 11.7493C126.012 11.9382 125.977 12.127 125.941 12.3394C125.906 12.5518 125.835 12.723 125.782 12.9295L125.098 15.3547C125.039 15.5672 124.974 15.7796 124.915 15.992C124.856 16.2045 124.761 16.411 124.69 16.6293L124.206 17.9157C124.047 18.3465 123.882 18.7772 123.723 19.2021C123.64 19.4145 123.575 19.6269 123.481 19.8276L123.197 20.4176L122.118 22.7013C122.035 22.8783 121.952 23.0612 121.858 23.2323C121.764 23.4035 121.669 23.5746 121.569 23.7398L121.014 24.7016C120.654 25.2917 120.324 25.8818 120.017 26.4188C119.332 27.4219 118.76 28.2185 118.365 28.7791C118.173 29.0735 117.958 29.3518 117.721 29.6111C117.871 29.293 118.049 28.9889 118.253 28.7024L119.81 26.289L120.766 24.56L121.303 23.5982L121.581 23.0966C121.675 22.9255 121.752 22.7426 121.834 22.5596C122.171 21.8338 122.525 21.0726 122.885 20.2878L123.162 19.6977C123.256 19.4971 123.321 19.2788 123.404 19.0723C123.563 18.6533 123.723 18.2225 123.882 17.7918L124.366 16.5172C124.437 16.3048 124.531 16.0982 124.59 15.8858C124.649 15.6734 124.714 15.461 124.773 15.2544L125.475 12.8469C125.528 12.6581 125.593 12.4692 125.635 12.2568C125.676 12.0444 125.717 11.8792 125.753 11.6667C125.835 11.3009 125.906 10.9409 125.983 10.5928C126.13 9.89648 126.272 9.25329 126.396 8.65731C126.567 7.47714 126.708 6.5094 126.803 5.81901C126.842 5.47234 126.907 5.12911 126.998 4.79227Z" fill="#263238"/>
<path d="M142.641 34.5206C142.426 34.6021 142.249 34.7614 142.147 34.9669C142.044 35.1725 142.022 35.4092 142.086 35.63C142.328 36.521 142.729 37.9136 143.042 38.7692C143.129 39.0479 143.267 39.308 143.449 39.5363C143.539 39.6469 143.658 39.7303 143.792 39.7772C143.926 39.8241 144.071 39.8326 144.21 39.8019C144.351 39.742 144.473 39.6451 144.564 39.5215C144.654 39.3979 144.709 39.2521 144.724 39.0997C144.747 38.7889 144.711 38.4764 144.617 38.1792C144.417 37.353 144.027 36.108 143.732 35.093C143.703 34.9805 143.65 34.8752 143.579 34.7838C143.507 34.6923 143.417 34.6165 143.314 34.5612C143.212 34.5059 143.099 34.4722 142.984 34.4621C142.868 34.4521 142.751 34.466 142.641 34.5029V34.5206Z" fill="#FFBE9D"/>
<path d="M141.319 36.0666C141.103 36.1469 140.925 36.3058 140.821 36.5115C140.717 36.7171 140.695 36.9545 140.758 37.176C141.006 38.067 141.407 39.4596 141.72 40.3093C141.803 40.5902 141.94 40.8526 142.121 41.0823C142.211 41.1929 142.33 41.2763 142.464 41.3232C142.599 41.3701 142.744 41.3786 142.883 41.3479C143.025 41.2902 143.149 41.1939 143.239 41.0698C143.33 40.9458 143.384 40.7989 143.396 40.6457C143.424 40.3352 143.39 40.0224 143.296 39.7252C143.089 38.899 142.706 37.6481 142.411 36.6331C142.381 36.5206 142.329 36.4153 142.257 36.3239C142.185 36.2324 142.095 36.1566 141.993 36.1013C141.89 36.046 141.778 36.0123 141.662 36.0022C141.546 35.9922 141.429 36.0061 141.319 36.043V36.0666Z" fill="#FFBE9D"/>
<path d="M140.08 36.9695C139.887 37.0332 139.728 37.1692 139.634 37.3487C139.54 37.5283 139.52 37.7373 139.578 37.9313C139.802 38.6984 140.168 39.914 140.451 40.6516C140.532 40.8925 140.656 41.1166 140.817 41.3125C140.901 41.4103 141.009 41.4838 141.13 41.5254C141.252 41.5669 141.382 41.5749 141.508 41.5485C141.632 41.5021 141.741 41.4226 141.823 41.3186C141.905 41.2146 141.957 41.09 141.974 40.9584C141.992 40.6893 141.96 40.4192 141.879 40.1618C141.691 39.4419 141.354 38.3916 141.065 37.4829C140.999 37.2872 140.859 37.1255 140.674 37.0327C140.49 36.9399 140.276 36.9236 140.08 36.9872V36.9695Z" fill="#FFBE9D"/>
<path d="M138.516 37.2055C138.324 37.2693 138.163 37.405 138.069 37.5843C137.974 37.7636 137.953 37.9725 138.009 38.1673C138.239 38.9404 138.599 40.1618 138.894 40.8994C138.969 41.146 139.093 41.3749 139.259 41.5721C139.339 41.6853 139.453 41.7701 139.584 41.8142C139.715 41.8583 139.857 41.8593 139.988 41.8172C140.12 41.775 140.235 41.6918 140.316 41.5798C140.397 41.4678 140.441 41.3328 140.44 41.1945C140.459 40.9249 140.425 40.6542 140.339 40.3979C140.151 39.6721 139.814 38.5863 139.525 37.7012C139.493 37.6032 139.442 37.5125 139.375 37.4344C139.307 37.3563 139.225 37.2923 139.133 37.2462C139.041 37.2001 138.94 37.1728 138.837 37.1658C138.735 37.1588 138.631 37.1723 138.534 37.2055H138.516Z" fill="#FFBE9D"/>
<path d="M143.361 39.5658C143.035 39.0844 142.797 38.5489 142.658 37.9844C142.423 37.4535 142.289 36.883 142.263 36.3027C142.593 36.782 142.831 37.3182 142.965 37.8841C143.204 38.4139 143.338 38.985 143.361 39.5658Z" fill="#EB996E"/>
<path d="M141.944 40.7873C141.599 40.2261 141.348 39.6122 141.201 38.9699C140.951 38.361 140.803 37.715 140.764 37.058C141.109 37.6192 141.361 38.2331 141.508 38.8754C141.761 39.4834 141.908 40.1299 141.944 40.7873Z" fill="#EB996E"/>
<path d="M140.552 40.8817C140.185 40.4183 139.923 39.8808 139.785 39.3062C139.543 38.7669 139.428 38.1796 139.448 37.5891C139.738 38.095 139.954 38.6393 140.091 39.2059C140.329 39.738 140.484 40.303 140.552 40.8817Z" fill="#EB996E"/>
<path d="M189.753 19.4204C187.505 15.6203 183.445 13.1537 179.184 11.9795C177.414 11.4897 176.175 11.6254 174.328 11.832C172.488 11.9874 170.762 12.7878 169.454 14.092C167.851 15.6238 166.662 17.5359 165.996 19.6506C165.343 21.823 164.893 24.0512 164.651 26.3067C164.412 28.5758 164.804 30.8669 165.784 32.9274L171.319 34.7803C174.446 35.3703 177.615 35.9604 180.76 35.7067C183.905 35.453 187.151 34.2669 189.198 31.8299C192.066 28.4546 192.001 23.2205 189.753 19.4204Z" fill="#263238"/>
<path d="M192.756 36.0666C192.8 35.4135 192.694 34.759 192.445 34.1535C192.197 33.5479 191.812 33.0074 191.322 32.5734C190.819 32.153 190.195 31.9036 189.541 31.8611C188.886 31.8187 188.235 31.9855 187.682 32.3373L186.625 33.2637C185.884 33.4798 185.228 33.9215 184.749 34.5274C184.27 35.1333 183.991 35.8735 183.952 36.6449C183.941 37.4182 184.15 38.1786 184.556 38.8371C184.961 39.4955 185.546 40.0247 186.242 40.3624C186.946 40.6815 187.719 40.8143 188.489 40.7482C189.259 40.6821 189.999 40.4192 190.638 39.9848C191.268 39.5377 191.786 38.9518 192.154 38.2725C192.521 37.5931 192.727 36.8384 192.756 36.0666Z" fill="#263238"/>
<path d="M191.033 39.7487C191.304 39.4471 191.472 39.0666 191.511 38.663C191.475 37.6769 191.16 36.7213 190.603 35.9073C190.08 35.0627 189.401 34.3257 188.602 33.7358C188.012 33.2755 187.552 33.0749 187.575 33.0277C187.987 33.133 188.373 33.3174 188.714 33.5706C189.578 34.133 190.306 34.8809 190.844 35.7598C191.141 36.2421 191.377 36.7594 191.547 37.2999C191.706 37.7436 191.763 38.2178 191.712 38.6866C191.671 39.0073 191.533 39.3079 191.317 39.5481C191.163 39.7133 191.045 39.7605 191.033 39.7487Z" fill="#455A64"/>
<path d="M188.036 41.0116C188.33 39.7677 188.438 38.4869 188.354 37.2114C188.177 35.9481 187.805 34.7199 187.251 33.5706C187.52 33.8455 187.732 34.1702 187.876 34.5265C188.697 36.2085 188.906 38.1242 188.466 39.9435C188.39 40.323 188.244 40.6851 188.036 41.0116Z" fill="#455A64"/>
<path d="M169.442 46.6468C169.784 44.6583 170.546 40.392 170.546 40.4038C170.546 40.4156 165.984 39.1823 165.613 33.0455C165.424 29.9947 166.055 25.0793 166.698 21.0727C167.288 17.4673 171.1 13.0181 175.549 13.6849L177.562 13.7557L184.684 17.9275C185.213 18.0336 185.681 18.3362 185.995 18.7742C186.31 19.2123 186.446 19.7532 186.378 20.2879L182.477 46.0686L171.437 67.6715L168.941 52.3293L169.442 46.6468Z" fill="#FFBE9D"/>
<path d="M168.752 25.4747C168.732 25.6759 168.791 25.8771 168.916 26.0357C169.042 26.1943 169.224 26.2978 169.424 26.3244C169.522 26.3421 169.623 26.34 169.72 26.3183C169.817 26.2965 169.908 26.2556 169.989 26.1978C170.07 26.14 170.138 26.0666 170.19 25.982C170.242 25.8973 170.277 25.8031 170.292 25.7048C170.312 25.5029 170.253 25.301 170.128 25.1414C170.003 24.9819 169.82 24.8772 169.619 24.8492C169.521 24.8315 169.42 24.8338 169.323 24.8559C169.226 24.8781 169.134 24.9195 169.053 24.9779C168.972 25.0363 168.903 25.1103 168.852 25.1957C168.8 25.281 168.766 25.3759 168.752 25.4747Z" fill="#263238"/>
<path d="M167.831 23.5215C167.92 23.6336 168.551 23.256 169.383 23.3386C170.215 23.4212 170.788 23.8992 170.888 23.8047C170.988 23.7103 170.858 23.5687 170.611 23.3504C170.277 23.0677 169.865 22.8947 169.43 22.8547C168.997 22.8105 168.561 22.9055 168.185 23.1262C167.896 23.2973 167.79 23.4743 167.831 23.5215Z" fill="#263238"/>
<path d="M172.103 30.5848C171.677 30.4034 171.228 30.2766 170.77 30.2071C170.557 30.1658 170.363 30.1068 170.339 29.9534C170.347 29.7404 170.419 29.5348 170.546 29.3633C170.793 28.8676 171.053 28.3425 171.33 27.7996C172.428 25.575 173.248 23.7339 173.154 23.669C172.334 24.9278 171.616 26.2498 171.006 27.6226L170.245 29.1922C170.085 29.436 170.016 29.7286 170.05 30.0183C170.074 30.097 170.116 30.1691 170.173 30.2294C170.229 30.2896 170.298 30.3365 170.375 30.3664C170.489 30.4081 170.608 30.4359 170.729 30.449C171.179 30.5536 171.641 30.5992 172.103 30.5848Z" fill="#263238"/>
<path d="M170.546 40.4038C173.39 40.7185 176.266 40.2385 178.854 39.0171C178.854 39.0171 176.293 42.9942 170.292 41.8436L170.546 40.4038Z" fill="#EB996E"/>
<path d="M168.486 20.577C168.616 20.7835 169.212 20.6419 169.902 20.7009C170.593 20.7599 171.165 20.9487 171.319 20.7658C171.389 20.6773 171.319 20.4767 171.077 20.2701C170.753 20.0232 170.364 19.8774 169.957 19.8512C169.551 19.8249 169.146 19.9194 168.793 20.1226C168.563 20.2938 168.433 20.4826 168.486 20.577Z" fill="#263238"/>
<path d="M178.293 26.0824C178.268 26.284 178.165 26.4678 178.007 26.5946C177.848 26.7213 177.646 26.7811 177.444 26.761C177.345 26.7551 177.248 26.7295 177.159 26.6858C177.07 26.6421 176.99 26.5811 176.925 26.5065C176.86 26.4318 176.81 26.345 176.778 26.2509C176.747 26.1568 176.734 26.0575 176.741 25.9585C176.765 25.7563 176.868 25.5716 177.027 25.4446C177.186 25.3175 177.389 25.2583 177.591 25.2799C177.69 25.2859 177.787 25.3115 177.876 25.3552C177.965 25.3989 178.045 25.4598 178.11 25.5345C178.175 25.6091 178.225 25.696 178.257 25.7901C178.288 25.8841 178.301 25.9835 178.293 26.0824Z" fill="#263238"/>
<path d="M178.878 24.2178C178.766 24.3063 178.24 23.7929 177.408 23.6808C176.576 23.5687 175.915 23.905 175.839 23.7929C175.762 23.6808 175.921 23.5746 176.21 23.4153C176.605 23.2141 177.052 23.1399 177.491 23.2028C177.922 23.261 178.325 23.4529 178.642 23.7516C178.866 23.9818 178.931 24.1765 178.878 24.2178Z" fill="#263238"/>
<path d="M178.754 21.3736C178.583 21.5388 178.034 21.2674 177.349 21.1671C176.665 21.0668 176.057 21.1199 175.951 20.9074C175.904 20.8012 176.022 20.6242 176.299 20.4826C176.666 20.3072 177.079 20.2534 177.479 20.3292C177.883 20.388 178.259 20.5717 178.553 20.8543C178.771 21.0845 178.83 21.3146 178.754 21.3736Z" fill="#263238"/>
<path d="M185.085 28.7378L183.905 29.6524C180.076 24.678 172.953 12.5991 173.343 13.3131C175.496 12.8643 177.727 12.9596 179.834 13.5904C183.079 14.6703 189.151 17.302 188.455 21.2202C187.758 25.1383 185.085 28.7378 185.085 28.7378Z" fill="#263238"/>
<path d="M187.587 32.5911C187.605 32.2707 187.641 31.9516 187.693 31.6351C187.786 30.7708 187.802 29.9 187.741 29.0329C187.5 26.1664 186.564 23.4017 185.014 20.9782C183.439 18.5735 181.507 16.4226 179.285 14.5995C178.435 13.8914 177.733 13.3426 177.237 12.9649C176.976 12.783 176.726 12.5859 176.488 12.3748C176.488 12.3748 176.57 12.3749 176.706 12.4929C176.842 12.6109 177.048 12.7112 177.296 12.8882C177.81 13.2364 178.535 13.7615 179.403 14.4578C181.69 16.25 183.666 18.4072 185.251 20.8425C186.826 23.3005 187.75 26.1191 187.935 29.0329C187.981 29.9125 187.936 30.7944 187.8 31.6646C187.758 31.9715 187.688 32.2016 187.658 32.3668C187.646 32.4448 187.622 32.5205 187.587 32.5911Z" fill="#455A64"/>
<path d="M179.102 12.5106C179.181 12.5411 179.256 12.5807 179.326 12.6286C179.474 12.7112 179.68 12.8351 179.946 13.0062C180.471 13.3485 181.226 13.8618 182.117 14.5581C183.156 15.376 184.147 16.2527 185.085 17.184C186.277 18.2892 187.329 19.5356 188.219 20.8956C188.671 21.6154 189.022 22.3937 189.263 23.2088C189.482 23.9764 189.593 24.7708 189.594 25.5691C189.587 26.8987 189.388 28.2204 189.003 29.4931C188.679 30.5789 188.348 31.4286 188.112 32.0128C187.994 32.3019 187.894 32.5261 187.829 32.6796C187.796 32.7576 187.757 32.8326 187.711 32.9038C187.794 32.5732 187.902 32.2496 188.036 31.9361C188.236 31.346 188.537 30.4845 188.832 29.4046C189.191 28.1475 189.373 26.8468 189.375 25.5396C189.363 24.7728 189.249 24.011 189.039 23.2737C188.801 22.4838 188.457 21.7296 188.018 21.0313C187.138 19.6935 186.108 18.4602 184.95 17.3551C184.011 16.4286 183.026 15.5502 181.999 14.7234C181.132 14.0153 180.394 13.4783 179.887 13.1124C179.611 12.9311 179.349 12.7299 179.102 12.5106Z" fill="#455A64"/>
<path d="M185.174 28.8499C185.004 28.6684 184.851 28.4708 184.719 28.2599L183.539 26.5722C182.577 25.1442 181.262 23.1556 179.828 20.9487C178.394 18.7418 177.101 16.7414 176.181 15.278L175.101 13.5432C174.962 13.335 174.839 13.116 174.735 12.8882C174.907 13.0686 175.059 13.2663 175.19 13.4783L176.37 15.1659C177.332 16.5939 178.647 18.5825 180.087 20.7894C181.527 22.9963 182.813 25.0026 183.734 26.4601L184.814 28.2008C184.956 28.4044 185.076 28.6219 185.174 28.8499Z" fill="#455A64"/>
<path d="M183.958 30.331C184.005 29.8826 184.631 28.8676 185.079 28.844C186.26 28.7732 188.419 29.0742 188.142 32.0954C187.77 36.226 183.71 34.9927 183.71 34.8747C183.71 34.7567 183.805 31.883 183.958 30.331Z" fill="#FFBE9D"/>
<path d="M184.849 33.3228C184.849 33.3228 184.914 33.3818 185.032 33.4467C185.113 33.4915 185.203 33.5198 185.295 33.5299C185.387 33.54 185.48 33.5318 185.569 33.5057C185.851 33.3625 186.09 33.1462 186.26 32.8795C186.43 32.6128 186.526 32.3054 186.537 31.9892C186.577 31.6351 186.539 31.2765 186.425 30.9388C186.397 30.808 186.338 30.6859 186.253 30.583C186.168 30.4802 186.059 30.3998 185.935 30.3488C185.854 30.3213 185.766 30.3222 185.686 30.3511C185.606 30.38 185.537 30.4354 185.492 30.5081C185.428 30.6202 185.445 30.7028 185.428 30.7087C185.41 30.7146 185.345 30.632 185.392 30.4668C185.422 30.3669 185.487 30.281 185.575 30.2248C185.635 30.1864 185.702 30.1604 185.771 30.1482C185.841 30.136 185.913 30.138 185.982 30.154C186.15 30.2015 186.302 30.2917 186.424 30.4159C186.546 30.54 186.634 30.6938 186.679 30.8621C186.826 31.237 186.874 31.6433 186.82 32.0423C186.72 32.8743 186.23 33.6119 185.64 33.7299C185.526 33.7528 185.409 33.7499 185.297 33.7213C185.184 33.6927 185.08 33.6392 184.991 33.5647C184.849 33.4231 184.837 33.3287 184.849 33.3228Z" fill="#EB996E"/>
<path d="M193.647 183.044C193.565 183.693 191.966 201.838 191.966 201.838H183.651L182.194 183.121L193.647 183.044Z" fill="#FFBE9D"/>
<path d="M183.628 199.136C183.628 199.136 189.47 203.266 192.29 199.696L193.034 201.431L196.35 213.823C196.464 214.211 196.432 214.628 196.26 214.994C196.089 215.36 195.789 215.651 195.418 215.812C195.133 215.925 194.822 215.954 194.521 215.897C194.22 215.839 193.941 215.697 193.718 215.487C191.317 213.198 182.507 204.753 182.613 203.609L182.642 200.57C182.647 200.261 182.743 199.961 182.919 199.707C183.094 199.452 183.341 199.256 183.628 199.142V199.136Z" fill="#A9CA2E"/>
<path d="M195.117 215.888L182.607 202.547V203.207C182.592 203.481 182.638 203.754 182.739 204.007C182.841 204.261 182.998 204.49 183.197 204.677C184.212 206.04 187.015 209.096 193.665 215.481C193.856 215.664 194.088 215.797 194.343 215.868C194.597 215.939 194.865 215.946 195.123 215.888H195.117Z" fill="#263238"/>
<path d="M184.442 200.564C184.635 200.705 184.77 200.912 184.82 201.146C184.87 201.38 184.832 201.625 184.714 201.833C184.58 202.031 184.375 202.171 184.141 202.224C183.908 202.277 183.663 202.238 183.457 202.116C183.252 201.965 183.111 201.745 183.06 201.496C183.009 201.248 183.051 200.989 183.179 200.77C183.339 200.578 183.568 200.456 183.816 200.428C184.065 200.401 184.315 200.47 184.513 200.623" fill="white"/>
<path d="M191.523 209.055C191.897 208.563 192.362 208.146 192.892 207.828C193.456 207.604 194.056 207.484 194.662 207.474C194.662 207.438 194.479 207.314 194.114 207.267C193.631 207.212 193.142 207.301 192.709 207.521C192.271 207.732 191.905 208.069 191.659 208.489C191.505 208.807 191.482 209.043 191.523 209.055Z" fill="#263238"/>
<path d="M192.644 211.15C193.092 210.894 193.555 210.665 194.031 210.465C194.536 210.369 195.046 210.302 195.559 210.265C195.606 210.182 194.851 209.858 193.931 210.141C193.01 210.424 192.562 211.109 192.644 211.15Z" fill="#263238"/>
<path d="M189.434 206.37C190.093 205.927 190.783 205.533 191.499 205.19C192.259 204.946 193.036 204.763 193.824 204.641C193.824 204.553 192.68 204.34 191.37 204.871C190.567 205.125 189.881 205.656 189.434 206.37Z" fill="#263238"/>
<path d="M189.151 202.6C189.198 202.694 190.06 202.328 191.187 202.287C192.314 202.246 193.205 202.505 193.24 202.411C192.606 202.069 191.89 201.905 191.169 201.939C190.449 201.972 189.751 202.2 189.151 202.6Z" fill="#263238"/>
<path d="M191.83 202.251C191.841 202.051 191.811 201.85 191.741 201.661C191.586 201.139 191.329 200.651 190.986 200.227C190.763 199.893 190.435 199.642 190.054 199.513C189.925 199.483 189.789 199.492 189.666 199.541C189.542 199.589 189.437 199.675 189.363 199.785C189.237 200.011 189.197 200.275 189.251 200.528C189.384 201.043 189.693 201.495 190.124 201.805C190.555 202.116 191.081 202.265 191.612 202.228C192.131 202.184 192.626 201.986 193.034 201.66C193.441 201.335 193.743 200.896 193.901 200.399C193.94 200.273 193.951 200.14 193.934 200.01C193.917 199.88 193.871 199.754 193.801 199.643C193.724 199.534 193.612 199.453 193.483 199.416C193.354 199.378 193.217 199.386 193.093 199.437C192.729 199.591 192.412 199.837 192.172 200.151C191.819 200.564 191.539 201.035 191.346 201.543C191.26 201.728 191.214 201.929 191.21 202.133C191.501 201.478 191.886 200.87 192.355 200.328C192.575 200.068 192.854 199.866 193.169 199.738C193.238 199.712 193.313 199.708 193.383 199.729C193.453 199.749 193.515 199.791 193.559 199.85C193.601 199.926 193.626 200.01 193.633 200.097C193.639 200.183 193.626 200.27 193.594 200.351C193.438 200.771 193.165 201.138 192.807 201.409C192.45 201.68 192.023 201.843 191.576 201.88C191.13 201.906 190.688 201.78 190.323 201.523C189.957 201.266 189.69 200.892 189.564 200.464C189.521 200.289 189.542 200.105 189.623 199.944C189.661 199.881 189.718 199.832 189.786 199.803C189.854 199.774 189.929 199.768 190.001 199.785C190.32 199.896 190.598 200.102 190.797 200.375C191.249 200.935 191.599 201.57 191.83 202.251Z" fill="#263238"/>
<path d="M147.993 177.138L149.427 200.304L159.493 200.233L161.193 176.164L147.993 177.138Z" fill="#FFBE9D"/>
<path d="M149.244 197.507V198.18C149.244 198.18 137.879 202.694 137.737 204.83H160.278L159.96 197.33C158.291 198.128 156.47 198.556 154.621 198.587C152.772 198.617 150.938 198.249 149.244 197.507Z" fill="#A9CA2E"/>
<path d="M157.682 199.72C157.899 199.786 158.084 199.93 158.201 200.123C158.319 200.317 158.361 200.548 158.319 200.77C158.262 200.989 158.123 201.178 157.931 201.298C157.739 201.417 157.508 201.459 157.287 201.414C157.056 201.344 156.86 201.191 156.736 200.985C156.612 200.779 156.568 200.534 156.614 200.298C156.698 200.076 156.864 199.895 157.079 199.793C157.293 199.69 157.539 199.675 157.764 199.75" fill="white"/>
<path d="M160.302 204.83L160.225 203.03L138.652 203.715C138.652 203.715 137.649 204.152 137.761 204.854L160.302 204.83Z" fill="#263238"/>
<path d="M149.155 198.245C149.155 198.351 149.71 198.398 150.253 198.752C150.796 199.106 151.085 199.572 151.185 199.525C151.285 199.478 151.12 198.847 150.459 198.434C149.798 198.021 149.132 198.139 149.155 198.245Z" fill="#263238"/>
<path d="M146.795 199.224C146.795 199.331 147.243 199.514 147.621 199.98C147.999 200.446 148.105 200.936 148.211 200.936C148.317 200.936 148.394 200.304 147.916 199.755C147.438 199.207 146.795 199.118 146.795 199.224Z" fill="#263238"/>
<path d="M145.455 202.051C145.556 202.051 145.709 201.526 145.455 200.924C145.202 200.322 144.653 200.08 144.606 200.174C144.558 200.269 144.883 200.587 145.107 201.083C145.331 201.579 145.343 202.045 145.455 202.051Z" fill="#263238"/>
<path d="M161.193 105.443C160.892 106.31 148.955 146.748 148.955 146.748L146.901 194.74L161.759 195.595L167.07 147.681L180.642 117.71L174.676 93.3282H162.544L161.193 105.443Z" fill="#263238"/>
<path d="M171.767 93.34C171.98 93.9301 179.597 121.369 179.597 121.369L180.654 162.285V196.138H194.196L200.504 121.481C200.504 121.481 201.619 107.909 199.713 103.348C197.807 98.7865 190.089 90.7732 190.089 90.7732L171.767 93.34Z" fill="#263238"/>
<path d="M172.859 96.1488C172.985 96.4592 173.088 96.7787 173.166 97.1048C173.36 97.7716 173.62 98.6567 173.927 99.7247C174.611 101.985 175.52 105.035 176.529 108.358C177.538 111.68 178.347 114.849 178.819 117.085C179.066 118.218 179.226 119.138 179.32 119.776C179.387 120.104 179.425 120.438 179.432 120.773C179.332 120.454 179.255 120.129 179.202 119.799C179.072 119.168 178.878 118.253 178.612 117.138C178.087 114.89 177.237 111.827 176.252 108.446C175.266 105.065 174.334 102.014 173.738 99.7837C173.437 98.6685 173.207 97.7656 173.065 97.1343C172.968 96.8124 172.899 96.4827 172.859 96.1488Z" fill="#455A64"/>
<path d="M177.532 96.1488C177.197 96.2565 176.901 96.462 176.683 96.7389C176.578 96.8884 176.512 97.0617 176.491 97.2431C176.471 97.4246 176.496 97.6083 176.564 97.7775C176.646 97.9817 176.784 98.159 176.961 98.2893C177.138 98.4197 177.348 98.4978 177.568 98.5151C177.788 98.5182 178.005 98.4597 178.194 98.346C178.382 98.2324 178.535 98.0681 178.636 97.8719C178.722 97.7113 178.767 97.5319 178.767 97.3497C178.767 97.1674 178.722 96.988 178.636 96.8274C178.447 96.5248 178.171 96.2863 177.845 96.1429C177.845 96.1429 177.963 96.1134 178.158 96.1783C178.433 96.2799 178.666 96.4711 178.819 96.7212C178.944 96.9073 179.018 97.123 179.033 97.3467C179.049 97.5704 179.005 97.7942 178.907 97.9958C178.793 98.2516 178.605 98.467 178.367 98.6141C178.128 98.7612 177.851 98.8331 177.572 98.8203C177.292 98.8076 177.023 98.7108 176.799 98.5427C176.575 98.3746 176.407 98.1428 176.317 97.8778C176.239 97.6674 176.217 97.4405 176.254 97.2192C176.29 96.9979 176.383 96.7897 176.523 96.615C176.701 96.3803 176.952 96.212 177.237 96.137C177.414 96.1075 177.532 96.1311 177.532 96.1488Z" fill="#455A64"/>
<path d="M189.552 115.858C189.56 115.926 189.56 115.995 189.552 116.064C189.552 116.217 189.552 116.412 189.552 116.654C189.552 117.209 189.552 117.988 189.552 118.979C189.552 121.003 189.552 123.924 189.487 127.535C189.381 134.758 189.057 144.724 188.632 155.735C188.207 166.746 187.853 176.719 187.688 183.935C187.605 187.547 187.552 190.468 187.522 192.486C187.522 193.477 187.522 194.256 187.487 194.811C187.487 195.058 187.487 195.255 187.487 195.401C187.513 195.405 187.537 195.419 187.553 195.44C187.57 195.461 187.577 195.488 187.575 195.514C187.573 195.541 187.561 195.566 187.541 195.584C187.522 195.602 187.496 195.612 187.469 195.612C187.443 195.612 187.417 195.602 187.397 195.584C187.378 195.566 187.366 195.541 187.363 195.514C187.361 195.488 187.369 195.461 187.385 195.44C187.402 195.419 187.425 195.405 187.452 195.401C187.452 195.247 187.452 195.047 187.452 194.811C187.452 194.256 187.452 193.477 187.452 192.486C187.452 190.462 187.452 187.541 187.516 183.929C187.629 176.707 187.947 166.734 188.372 155.723C188.797 144.713 189.151 134.746 189.316 127.529C189.399 123.918 189.458 120.997 189.481 118.979C189.481 117.988 189.511 117.209 189.517 116.654C189.517 116.4 189.517 116.206 189.517 116.064C189.52 115.994 189.531 115.925 189.552 115.858Z" fill="#455A64"/>
<path d="M168.657 110.93C168.642 111.001 168.62 111.07 168.592 111.137L168.362 111.727C168.144 112.276 167.837 113.055 167.448 114.052C166.639 116.082 165.477 118.991 164.037 122.579C162.597 126.166 160.957 130.498 159.387 135.372C157.594 140.626 156.339 146.049 155.64 151.558C155.327 154.508 155.192 157.388 155.015 160.167C154.838 162.946 154.72 165.637 154.578 168.198C154.312 173.314 154.076 177.922 153.876 181.805C153.675 185.688 153.463 188.809 153.286 190.969C153.197 192.037 153.132 192.869 153.085 193.459C153.056 193.731 153.038 193.943 153.02 194.102C153.015 194.178 153.005 194.253 152.991 194.327C152.983 194.252 152.983 194.177 152.991 194.102C152.991 193.943 152.991 193.725 153.02 193.453C153.056 192.863 153.103 192.031 153.168 190.963C153.292 188.798 153.457 185.652 153.64 181.793C153.823 177.934 154.041 173.302 154.277 168.186C154.413 165.625 154.549 162.934 154.696 160.149C154.844 157.364 155.003 154.478 155.316 151.528C156.028 146.003 157.303 140.566 159.122 135.301C160.709 130.421 162.403 126.119 163.842 122.52C165.282 118.92 166.509 116.029 167.342 114.028C167.755 113.037 168.079 112.258 168.309 111.721L168.569 111.131C168.591 111.061 168.621 110.994 168.657 110.93Z" fill="#455A64"/>
<path d="M189.086 45.0359C189.086 45.0359 197.141 46.5406 198.911 48.0158C200.681 49.491 216.814 70.5333 217.15 74.7819C217.487 79.0305 215.522 80.5883 214.406 81.5974C213.291 82.6064 194.007 95.6649 194.007 95.6649L188.077 85.8283L204.741 75.8736L196.698 62.1188L189.086 45.0359Z" fill="#A9CA2E"/>
<path d="M210.122 72.1325C208.995 72.3022 207.909 72.6783 206.918 73.2418C205.982 73.8894 205.17 74.701 204.523 75.6375C204.597 75.2972 204.749 74.9784 204.965 74.7052C205.436 74.0114 206.047 73.4236 206.758 72.9795C207.469 72.5355 208.266 72.2449 209.096 72.1266C209.434 72.0493 209.785 72.0513 210.122 72.1325Z" fill="#A9CA2E"/>
<path d="M169.566 46.0567L171.702 65.435L182.601 43.602L189.629 50.742C189.629 50.742 193.942 76.263 194.007 76.446C194.072 76.6289 191.057 91.0446 191.057 91.0446L171.083 94.9096L164.987 93.3577L164.025 70.6573L163.6 53.2734L169.566 46.0567Z" fill="white"/>
<path d="M166.976 46.8829L161.789 48.063C161.096 48.2232 160.452 48.5492 159.912 49.0131C155.487 52.8014 145.916 60.8147 145.916 60.8147L147.686 46.5937L138.469 45.7381C138.469 45.7381 135.707 63.6648 135.99 68.3795C136.327 73.8555 141.236 75.2009 148.382 72.2564C152.799 70.4841 157.073 68.3773 161.169 65.9543L166.976 46.8829Z" fill="#A9CA2E"/>
<path d="M195.901 62.1955L194.951 79.1899L195.907 82.4943C195.907 82.4943 204.853 99.3825 206.328 110.565L195.258 112.335C195.258 112.335 192.237 97.9073 190.113 90.7555C187.988 83.6037 181.704 80.5943 179.58 73.2418C178.301 69.0414 177.846 64.6332 178.24 60.26C178.24 59.8116 182.601 43.5961 182.601 43.5961L183.38 40.209L187.298 43.9325L197.359 47.2782L195.901 62.1955Z" fill="#A9CA2E"/>
<g opacity="0.3">
<path d="M201.177 93.8003C199.347 95.2142 197.433 96.5167 195.447 97.7008C195.329 97.7598 195.176 97.8247 195.004 97.8896C194.606 98.0362 194.168 98.0346 193.77 97.8852C193.373 97.7357 193.042 97.4482 192.839 97.0753C192.603 96.6445 192.361 96.1901 192.202 95.8479C191.794 94.9687 191.352 93.9124 190.957 92.9978L192.202 92.6969L194.007 95.6886L199.212 92.1481L200.203 91.4695L201.177 93.8003Z" fill="black"/>
</g>
<path d="M169.661 44.1449L167.241 46.6763L161.441 48.7121C161.441 48.7121 160.024 65.8245 160.792 69.4712C161.535 72.9763 162.951 77.2367 163.069 82.2701C163.187 87.3035 157.44 113.904 157.44 113.904L164.391 116.542C164.391 116.542 167.932 85.7457 167.241 79.0305C166.551 72.3154 168.345 58.7789 168.345 58.7789L169.661 44.1449Z" fill="#A9CA2E"/>
<path d="M182.819 76.7823C182.726 76.6982 182.641 76.6053 182.566 76.505C182.341 76.2194 182.143 75.9131 181.976 75.5903C181.395 74.3815 181.087 73.0602 181.073 71.7194C181.051 69.7445 181.189 67.7711 181.486 65.8186C181.808 63.4266 182.299 61.0604 182.955 58.7376C184.068 54.7439 185.653 50.897 187.676 47.2782L187.77 47.4493L185.31 47.3726H185.132L185.239 47.231L186.856 45.0595L187.292 44.4694C187.339 44.4013 187.394 44.3398 187.457 44.2865C187.425 44.3623 187.384 44.4337 187.333 44.4989L186.932 45.089L185.386 47.3136L185.315 47.172L187.776 47.2015H187.965L187.87 47.3667C185.905 50.9928 184.35 54.8264 183.232 58.7966C182.583 61.1041 182.087 63.4518 181.745 65.8245C181.444 67.7575 181.287 69.7101 181.273 71.6663C181.272 72.9816 181.541 74.2833 182.064 75.49C182.292 75.9342 182.544 76.3656 182.819 76.7823Z" fill="#263238"/>
<path d="M189.629 61.092C188.708 61.4017 187.749 61.5843 186.779 61.6349C185.819 61.7807 184.844 61.7926 183.881 61.6703C184.828 61.49 185.787 61.3756 186.749 61.3281C187.702 61.1782 188.664 61.0993 189.629 61.092Z" fill="#263238"/>
<path d="M196.686 57.1503C196.67 57.4405 196.629 57.7288 196.562 58.0118C196.486 58.5665 196.385 59.369 196.291 60.3721C196.102 62.3666 195.913 65.1223 195.701 68.1671L195.229 75.9739C195.158 76.9711 195.099 77.7795 195.046 78.3342C195.036 78.6247 194.997 78.9134 194.928 79.1957C194.905 78.9071 194.905 78.617 194.928 78.3283C194.928 77.7087 194.975 76.9121 195.01 75.968C195.087 73.9676 195.211 71.206 195.394 68.1553C195.577 65.1046 195.807 62.3489 196.055 60.3544C196.173 59.3631 196.309 58.5842 196.421 57.9941C196.482 57.7049 196.571 57.4223 196.686 57.1503Z" fill="#263238"/>
<path d="M209.568 76.4401C209.538 76.5286 208.452 76.1804 207.06 76.0801C205.667 75.9798 204.546 76.1568 204.528 76.0801C205.344 75.7773 206.221 75.6781 207.083 75.791C207.952 75.8045 208.804 76.0271 209.568 76.4401Z" fill="#263238"/>
<path d="M145.975 60.4843C145.799 61.2498 145.525 61.9895 145.16 62.6853C144.889 63.4226 144.522 64.121 144.069 64.7623C144.241 63.9958 144.515 63.2556 144.883 62.5613C145.157 61.8255 145.524 61.1275 145.975 60.4843Z" fill="#263238"/>
<path d="M160.443 54.8136C160.526 54.8136 160.662 58.1534 160.738 62.2781C160.815 66.4028 160.815 69.7485 160.738 69.7485C160.662 69.7485 160.52 66.4087 160.438 62.284C160.355 58.1593 160.361 54.8195 160.443 54.8136Z" fill="#263238"/>
<path d="M167.324 68.8457C167.27 68.5617 167.245 68.2732 167.247 67.9842C167.247 67.3941 167.2 66.5798 167.165 65.6239C167.106 63.6353 167.041 60.9032 166.993 57.8584C166.946 54.8135 166.923 52.0756 166.917 50.087C166.917 49.137 166.917 48.3462 166.917 47.7267C166.905 47.4386 166.921 47.1502 166.964 46.8651C167.017 47.1491 167.043 47.4377 167.041 47.7267C167.041 48.3167 167.088 49.1311 167.123 50.087C167.182 52.0756 167.241 54.8076 167.288 57.8525C167.336 60.8973 167.365 63.6294 167.371 65.618C167.371 66.568 167.371 67.3882 167.371 67.9783C167.379 68.2682 167.363 68.5584 167.324 68.8457Z" fill="#263238"/>
<path d="M211.008 84.0403C210.909 84.1319 210.802 84.2148 210.689 84.2882L209.745 84.9668L206.204 87.451L194.096 95.8125L193.966 95.9069L193.883 95.7712L191.228 91.3691L187.959 85.9286L187.882 85.7988L188.006 85.7221L199.961 78.6411L203.466 76.5994L204.41 76.0624C204.517 75.9958 204.63 75.9386 204.747 75.8913C204.65 75.9745 204.545 76.0477 204.434 76.1096L203.519 76.6997L200.062 78.8122L188.154 85.9817L188.207 85.7752C189.239 87.4923 190.349 89.3157 191.488 91.2098L194.137 95.6118L193.919 95.5646C198.769 92.272 203.024 89.3806 206.086 87.3035L209.686 84.8959L210.659 84.2587C210.77 84.1771 210.886 84.1041 211.008 84.0403Z" fill="#263238"/>
<g opacity="0.3">
<path d="M182.011 75.5195C181.83 72.9817 182.071 70.4313 182.725 67.9724C184.25 61.0742 186.758 54.4309 190.172 48.2459C189.775 48.0272 189.32 47.937 188.87 47.9877C188.42 48.0385 187.996 48.2276 187.658 48.5292C186.996 49.1494 186.483 49.9122 186.159 50.7597C183.555 56.3227 181.909 62.2858 181.291 68.3972C181.139 69.5711 181.109 70.7577 181.203 71.9377C181.321 73.1769 181.321 74.4751 182.088 75.4487" fill="black"/>
</g>
<g opacity="0.3">
<path d="M160.426 56.0527C158.591 59.2392 158.833 63.0747 160.585 66.3084C160.585 62.7679 160.585 59.6699 160.373 56.0999" fill="black"/>
</g>
<path d="M174.694 32.414C174.678 32.3092 174.64 32.209 174.582 32.1204C174.524 32.0317 174.448 31.9568 174.358 31.9007C174.234 31.8512 174.101 31.831 173.968 31.8416C173.2 31.8552 172.437 31.9643 171.696 32.1662L171.655 32.2842C171.691 32.6149 171.76 32.9411 171.862 33.2578C171.961 33.577 172.15 33.8614 172.404 34.0781C172.653 34.2616 172.954 34.3606 173.263 34.3606C173.572 34.3606 173.873 34.2616 174.122 34.0781C174.364 33.8828 174.546 33.623 174.648 33.3286C174.749 33.0342 174.765 32.7171 174.694 32.414Z" fill="#EB996E"/>
<path d="M172.416 34.2197C172.736 34.2481 173.058 34.2282 173.372 34.1607C173.698 34.0613 173.979 33.853 174.169 33.5706C174.282 33.4051 174.359 33.2178 174.396 33.0206C174.432 32.8235 174.427 32.6209 174.381 32.4258C174.346 32.2417 174.24 32.0787 174.086 31.9715C173.914 31.9147 173.728 31.9147 173.555 31.9715L172.493 32.1721C172.166 32.2593 171.828 32.2971 171.49 32.2842C171.79 32.1281 172.112 32.0187 172.446 31.9597L173.496 31.6941C173.731 31.6094 173.987 31.6094 174.222 31.6941C174.338 31.7641 174.438 31.8573 174.517 31.9681C174.595 32.0788 174.649 32.2045 174.676 32.3373C174.734 32.5747 174.74 32.8219 174.692 33.0615C174.644 33.3011 174.544 33.5272 174.399 33.724C174.156 34.0318 173.81 34.2414 173.425 34.3141C173.261 34.3743 173.085 34.397 172.91 34.3807C172.736 34.3644 172.567 34.3094 172.416 34.2197Z" fill="#263238"/>
<path d="M185.292 34.8098C185.208 34.5907 185.053 34.4061 184.852 34.2852C184.651 34.1644 184.415 34.1143 184.182 34.143C184.051 34.158 183.924 34.2017 183.81 34.271C183.697 34.3403 183.601 34.4336 183.527 34.5442C183.411 34.7367 183.359 34.9612 183.38 35.1852C183.4 35.4091 183.491 35.6207 183.64 35.7893C183.796 35.9504 184 36.0556 184.222 36.0887C184.444 36.1217 184.671 36.0808 184.867 35.9722C185.058 35.8546 185.204 35.6759 185.282 35.4649C185.359 35.2539 185.362 35.0231 185.292 34.8098Z" fill="#FAFAFA"/>
<path d="M188.337 86.4361L181.509 80.3877L175.744 80.8834C175.744 80.8834 175.945 81.8275 176.742 81.975C177.538 82.1226 180.418 82.1757 180.418 82.1757L181.769 83.5152L178.329 83.1729L173.956 85.7516C173.956 85.7516 173.856 86.5482 175.001 86.3417C176.137 86.0651 177.25 85.7001 178.329 85.25L180.872 85.3975L178.099 85.7988L174.505 88.3302C174.744 88.5786 175.046 88.7567 175.379 88.8452C175.712 88.9336 176.063 88.929 176.393 88.8318C177.538 88.4837 178.925 87.9349 178.925 87.9349L182.058 87.6339L178.925 88.4305L176.594 91.3161C176.815 91.4699 177.077 91.5523 177.346 91.5523C177.615 91.5523 177.878 91.4699 178.099 91.3161C178.56 90.9922 179.003 90.6435 179.426 90.2716L182.902 90.1182C182.902 90.1182 186.743 92.9034 188.077 93.2043C189.411 93.5053 192.208 92.6909 192.208 92.6909L188.337 86.4361Z" fill="#FFBE9D"/>
</svg>
