<svg width="103" height="210" viewBox="0 0 103 210" fill="none" xmlns="http://www.w3.org/2000/svg">
<path fill-rule="evenodd" clip-rule="evenodd" d="M5.64627 194.323H98.8561V12.3365H5.64627V194.323Z" fill="white"/>
<mask id="mask0_135_2117" style="mask-type:alpha" maskUnits="userSpaceOnUse" x="0" y="0" width="103" height="210">
<path fill-rule="evenodd" clip-rule="evenodd" d="M0 210H102.713V0H0V210Z" fill="white"/>
</mask>
<g mask="url(#mask0_135_2117)">
<path fill-rule="evenodd" clip-rule="evenodd" d="M8.12292 181.461H95.5344V26.924H8.12292V181.461ZM40.6633 15.0903C41.5783 15.0903 42.32 15.8322 42.32 16.7472C42.32 17.662 41.5783 18.4037 40.6633 18.4037C39.7485 18.4037 39.0068 17.662 39.0068 16.7472C39.0068 15.8322 39.7485 15.0903 40.6633 15.0903V15.0903ZM45.2082 15.9603H61.1896C61.6223 15.9603 61.9763 16.3143 61.9763 16.7472C61.9763 17.1797 61.6223 17.5337 61.1896 17.5337H45.2082C44.7755 17.5337 44.4215 17.1797 44.4215 16.7472C44.4215 16.3143 44.7755 15.9603 45.2082 15.9603V15.9603ZM102.71 63.0552C102.71 47.0589 102.719 31.0628 102.693 15.0665C102.691 13.7715 102.575 12.4495 102.3 11.1864C100.97 5.07826 95.6313 -0.0244853 88.2426 -3.82578e-06C71.7308 0.055315 55.2183 0.0171803 38.7062 0.0174157C30.3288 0.0174157 21.9514 0.0209467 13.5738 0.0157679C10.1619 0.0138847 7.32327 1.3034 5.00364 3.77721C3.87208 4.9841 2.99875 6.3626 2.32504 7.87127C1.3566 10.0386 0.931238 12.3203 0.92347 14.6811C0.910288 18.6879 0.919704 22.6944 0.919468 26.7013V27.8112C0.0442544 28.2302 0.019773 28.2413 0.0145942 29.0847C0.00305962 30.9361 0.0294243 32.7878 0.000470235 34.639C-0.00988733 35.2981 0.173724 35.7571 0.854969 35.8781V49.2492C-0.0364875 49.2999 0.010357 49.9237 0.010357 50.5136C0.0087092 54.0344 0.019773 57.5555 0.000705634 61.0764C-0.00306075 61.7671 0.0762687 62.3457 0.864385 62.4959V67.0224C0.132294 67.0574 0.00376582 67.5033 0.00541362 68.0892C0.015065 71.7621 0.0167128 75.4348 0.00541362 79.1075C0.00353042 79.7047 0.17137 80.1195 0.919704 80.1706V81.5535V194.195C0.919704 194.589 0.913819 194.984 0.921587 195.378C0.987734 198.733 1.81634 201.864 3.76897 204.628C6.1531 208.003 9.3258 209.997 13.5663 209.998C38.5471 210.001 63.5279 210.001 88.5086 209.992C89.2944 209.992 90.0952 209.954 90.8636 209.804C95.9946 208.801 99.5366 205.817 101.587 201.042C102.45 199.032 102.713 196.904 102.713 194.728C102.709 150.837 102.71 106.946 102.71 63.0552V63.0552Z" fill="white"/>
<path fill-rule="evenodd" clip-rule="evenodd" d="M40.6634 15.9602C41.0979 15.9602 41.4503 16.3124 41.4503 16.7472C41.4503 17.1815 41.0979 17.5339 40.6634 17.5339C40.2288 17.5339 39.8766 17.1815 39.8766 16.7472C39.8766 16.3124 40.2288 15.9602 40.6634 15.9602M40.6634 18.4037C41.5783 18.4037 42.3201 17.662 42.3201 16.7472C42.3201 15.8322 41.5783 15.0905 40.6634 15.0905C39.7484 15.0905 39.0066 15.8322 39.0066 16.7472C39.0066 17.662 39.7484 18.4037 40.6634 18.4037" fill="#EAEAEA"/>
<path fill-rule="evenodd" clip-rule="evenodd" d="M40.6634 17.5338C41.0979 17.5338 41.4503 17.1816 41.4503 16.7471C41.4503 16.3125 41.0979 15.9601 40.6634 15.9601C40.2288 15.9601 39.8766 16.3125 39.8766 16.7471C39.8766 17.1816 40.2288 17.5338 40.6634 17.5338" fill="#CECECE"/>
<path fill-rule="evenodd" clip-rule="evenodd" d="M45.2082 17.5338H61.1895C61.6224 17.5338 61.9764 17.1797 61.9764 16.7471C61.9764 16.3142 61.6224 15.9601 61.1895 15.9601H45.2082C44.7756 15.9601 44.4213 16.3142 44.4213 16.7471C44.4213 17.1797 44.7756 17.5338 45.2082 17.5338" fill="#EAEAEA"/>
<path fill-rule="evenodd" clip-rule="evenodd" d="M51.8285 187.323C47.9623 187.323 44.828 190.457 44.828 194.323C44.828 198.19 47.9623 201.324 51.8285 201.324C55.6949 201.324 58.829 198.19 58.829 194.323C58.829 190.457 55.6949 187.323 51.8285 187.323" fill="#EAEAEA"/>
<path fill-rule="evenodd" clip-rule="evenodd" d="M86.0972 37.0114H90.5804C91.035 37.0114 91.0357 36.3052 90.5804 36.3052H86.0972C85.6429 36.3052 85.642 37.0114 86.0972 37.0114" fill="#0A3E14"/>
<path fill-rule="evenodd" clip-rule="evenodd" d="M86.8032 38.6556C87.8011 38.5212 88.8024 38.5 89.8064 38.5722C90.2598 38.605 90.2577 37.8985 89.8064 37.8661C88.7351 37.7888 87.6794 37.8314 86.6156 37.9746C86.1672 38.0348 86.3581 38.7156 86.8032 38.6556" fill="#0A3E14"/>
<path fill-rule="evenodd" clip-rule="evenodd" d="M87.7979 40.2578H88.7251C89.1797 40.2578 89.1804 39.5516 88.7251 39.5516H87.7979C87.3434 39.5516 87.3426 40.2578 87.7979 40.2578" fill="#0A3E14"/>
<path fill-rule="evenodd" clip-rule="evenodd" d="M42.1176 35.5053C42.5197 37.1662 43.2866 38.6747 44.0799 40.1777C44.2922 40.5798 44.9019 40.2231 44.6898 39.8211C43.9241 38.3708 43.1868 36.9212 42.7986 35.3176C42.6918 34.876 42.0105 35.0629 42.1176 35.5053" fill="#0A3E14"/>
<path fill-rule="evenodd" clip-rule="evenodd" d="M44.593 40.3321C45.3385 38.7797 45.9402 37.1761 46.3919 35.5137C46.5112 35.0747 45.83 34.8873 45.7109 35.3259C45.2749 36.9301 44.7031 38.4765 43.9833 39.9755C43.7874 40.3834 44.3962 40.7419 44.593 40.3321" fill="#0A3E14"/>
<path fill-rule="evenodd" clip-rule="evenodd" d="M47.1381 37.6742C47.2283 37.3656 47.6962 37.3397 47.9545 37.4068C48.3382 37.5066 48.308 37.626 48.3389 37.928C48.3893 38.4251 48.3744 38.9291 48.4262 39.4263C48.4874 40.0176 48.869 40.5901 49.5371 40.3773C49.9685 40.2398 49.7842 39.5579 49.3494 39.6963C49.0754 39.7836 49.0533 37.972 49.034 37.7813C48.994 37.3925 48.8713 37.0043 48.4997 36.8195C47.804 36.4739 46.6932 36.6787 46.4571 37.4866C46.3293 37.9237 47.0105 38.1104 47.1381 37.6742" fill="#0A3E14"/>
<path fill-rule="evenodd" clip-rule="evenodd" d="M48.5769 38.0277C47.9477 37.9858 47.2804 37.9745 46.7415 38.3531C46.3303 38.6417 46.0085 39.1873 46.2013 39.6956C46.3863 40.1838 46.9878 40.3311 47.4569 40.3271C48.0494 40.3217 48.5932 40.0764 49.0211 39.6751C49.3533 39.3636 48.8531 38.8651 48.5219 39.1758C48.2429 39.4371 46.9953 39.9992 46.9101 39.3495C46.8145 38.6193 48.1608 38.7064 48.5769 38.7339C49.0306 38.7643 49.0287 38.0581 48.5769 38.0277" fill="#0A3E14"/>
<path fill-rule="evenodd" clip-rule="evenodd" d="M53.0234 37.4473C52.5347 36.6592 51.5103 36.4431 50.6687 36.7632C49.7229 37.1227 49.6271 38.3976 49.98 39.2309C50.3401 40.0819 51.3257 40.3653 52.1412 39.9875C53.111 39.5379 53.3645 38.42 53.2092 37.4489C53.1374 37.0012 52.4568 37.1912 52.5282 37.6366C52.6176 38.1961 52.5185 38.867 52.0392 39.2307C51.6136 39.5536 50.9183 39.5421 50.6539 39.0193C50.5228 38.7604 50.5164 38.4489 50.5289 38.166C50.5454 37.7959 50.6221 37.5207 50.9894 37.3976C51.4877 37.2305 52.1235 37.336 52.4135 37.8037C52.6527 38.189 53.2638 37.8348 53.0234 37.4473" fill="#0A3E14"/>
<path fill-rule="evenodd" clip-rule="evenodd" d="M53.2903 38.1544C53.2553 37.6215 53.2482 37.0892 53.2696 36.5556C53.2877 36.101 52.5813 36.1017 52.5634 36.5556C52.542 37.0892 52.5491 37.6215 52.5841 38.1544C52.614 38.6057 53.3205 38.609 53.2903 38.1544" fill="#0A3E14"/>
<path fill-rule="evenodd" clip-rule="evenodd" d="M52.506 36.5528C52.5109 37.5189 52.5158 38.4852 52.5206 39.4513C52.5236 40.0692 52.7157 40.8797 51.8565 41.1391C51.4502 41.262 50.865 41.0812 50.5529 40.8472C50.1889 40.5744 49.8365 41.1871 50.1962 41.4569C50.9224 42.0014 52.4382 42.1181 52.9944 41.2728C53.3353 40.7549 53.2298 40.037 53.227 39.4513C53.222 38.4852 53.2171 37.5189 53.2122 36.5528C53.2098 36.0985 52.5036 36.0976 52.506 36.5528" fill="#0A3E14"/>
<path fill-rule="evenodd" clip-rule="evenodd" d="M54.297 37.5259C54.5719 37.2531 55.2004 36.8209 55.5681 37.291C55.6908 37.4476 55.6929 37.7362 55.7042 37.924C55.7334 38.4165 55.6806 38.9129 55.7094 39.4051C55.7482 40.0657 56.1251 40.6539 56.8605 40.4859C57.3032 40.3849 57.1159 39.7036 56.6726 39.8051C56.2833 39.8941 56.4174 38.2072 56.4113 38.009C56.3988 37.5893 56.3584 37.1458 56.0827 36.8075C55.4702 36.0559 54.3763 36.4523 53.7975 37.0264C53.4745 37.347 53.9738 37.8463 54.297 37.5259" fill="#0A3E14"/>
<path fill-rule="evenodd" clip-rule="evenodd" d="M55.7445 38.1694C55.1165 38.0969 54.4308 38.1496 53.9414 38.5962C53.5798 38.9264 53.3402 39.4765 53.5341 39.957C53.9781 41.0561 55.6692 40.4057 56.289 39.88C56.636 39.5855 56.1341 39.0879 55.7895 39.3805C55.5426 39.59 54.3067 40.2162 54.1723 39.6074C54.1043 39.2993 54.5148 39.0081 54.749 38.9238C55.0663 38.8094 55.4164 38.8379 55.7445 38.8756C56.1951 38.9274 56.1913 38.2207 55.7445 38.1694" fill="#0A3E14"/>
<path fill-rule="evenodd" clip-rule="evenodd" d="M60.167 37.3588C59.8876 36.7105 59.2285 36.5441 58.5748 36.5497C58.0322 36.5544 57.3533 36.6309 57.1617 37.2305C56.9795 37.8013 57.4189 38.2839 57.9008 38.5073C58.2297 38.6596 58.7821 38.685 59.0154 38.9795C59.6286 39.753 57.9858 39.7766 57.87 39.2443C57.7732 38.8004 57.0922 38.9882 57.1892 39.432C57.4321 40.5482 59.7489 40.6958 59.9191 39.4609C60.0062 38.83 59.5201 38.3611 58.9834 38.1368C58.7989 38.0596 57.5458 37.8096 57.9747 37.3228C58.0649 37.2201 58.4352 37.2555 58.5748 37.2559C58.9834 37.2576 59.3744 37.291 59.5571 37.7154C59.7365 38.1316 60.345 37.7724 60.167 37.3588" fill="#0A3E14"/>
<path fill-rule="evenodd" clip-rule="evenodd" d="M7.97645 53.5528H75.7634H95.0635C95.5181 53.5528 95.5188 52.8466 95.0635 52.8466H27.2768H7.97645C7.5219 52.8466 7.52119 53.5528 7.97645 53.5528" fill="#F4F4F4"/>
<path fill-rule="evenodd" clip-rule="evenodd" d="M7.97645 53.5528H38.0647H51.9511C52.4054 53.5528 52.4061 52.8466 51.9511 52.8466H21.8629H7.97645C7.5219 52.8466 7.52119 53.5528 7.97645 53.5528" fill="#A8CA2F"/>
<path fill-rule="evenodd" clip-rule="evenodd" d="M87.1837 111.995H16.2527C15.1894 111.995 14.3276 111.134 14.3276 110.07V60.8051C14.3276 59.7421 15.1894 58.8798 16.2527 58.8798H87.1837C88.247 58.8798 89.1087 59.7421 89.1087 60.8051V110.07C89.1087 111.134 88.247 111.995 87.1837 111.995" fill="#EDF4D0"/>
<path fill-rule="evenodd" clip-rule="evenodd" d="M87.1837 111.984C87.839 111.984 88.4817 111.626 88.814 111.061C88.9861 110.783 89.0782 110.46 89.0883 110.134C89.0942 109.807 89.089 109.477 89.0897 109.149L89.0822 105.203L89.0678 97.3135L89.0353 81.533L88.9984 65.7526L88.9913 61.8077L88.9915 60.8212C88.992 60.5102 88.9146 60.2035 88.7667 59.9321C88.4687 59.3907 87.8804 59.0157 87.2592 59.0006L79.3741 58.9947L16.2527 58.9446C15.6153 58.9418 14.9882 59.2883 14.6621 59.8389C14.4934 60.1091 14.4027 60.4248 14.3917 60.7428C14.3851 61.0674 14.3893 61.3991 14.3874 61.727L14.383 65.6721L14.3738 73.5622L14.3721 89.3424L14.3954 105.123L14.4011 109.068L14.4023 110.054C14.4023 110.372 14.4821 110.686 14.6337 110.963C14.9392 111.516 15.5414 111.898 16.1755 111.913L24.0623 111.906L39.8425 111.896L55.623 111.927L87.1837 111.984ZM87.1837 112.007L55.623 112.064L39.8425 112.095L24.0623 112.085L16.1689 112.07C15.4806 112.052 14.829 111.636 14.5006 111.037C14.3373 110.737 14.2516 110.394 14.2528 110.054L14.2542 109.068L14.2598 105.123L14.2829 89.3424L14.2813 73.5622L14.2723 65.672L14.2676 61.727C14.2688 61.3974 14.2636 61.0714 14.2697 60.7388C14.2806 60.4 14.3766 60.0632 14.556 59.7744C14.9022 59.1863 15.5712 58.8142 16.2527 58.8156L79.3741 58.7652L87.2689 58.7676C87.9704 58.785 88.6356 59.2075 88.9717 59.8188C89.1389 60.1244 89.2267 60.4749 89.226 60.8212L89.2262 61.8077L89.2189 65.7525L89.182 81.533L89.1499 97.3134L89.1351 105.203L89.1278 109.149C89.1257 109.478 89.1299 109.806 89.1226 110.135C89.1111 110.467 89.0165 110.795 88.8404 111.077C88.5005 111.65 87.8468 112.011 87.1837 112.007V112.007Z" fill="#EDF4D0"/>
<path fill-rule="evenodd" clip-rule="evenodd" d="M87.1837 167.674H16.2527C15.1894 167.674 14.3276 166.812 14.3276 165.748V116.483C14.3276 115.42 15.1894 114.558 16.2527 114.558H87.1837C88.247 114.558 89.1087 115.42 89.1087 116.483V165.748C89.1087 166.812 88.247 167.674 87.1837 167.674" fill="#EDF4D0"/>
<path fill-rule="evenodd" clip-rule="evenodd" d="M87.1837 167.662C87.839 167.663 88.4817 167.304 88.814 166.739C88.9861 166.462 89.0782 166.138 89.0883 165.813C89.0942 165.485 89.089 165.155 89.0897 164.827L89.0822 160.882L89.0678 152.992L89.0353 137.211L88.9984 121.431L88.9913 117.486L88.9915 116.499C88.992 116.189 88.9146 115.882 88.7667 115.61C88.4687 115.069 87.8804 114.694 87.2592 114.679L79.3741 114.673L16.2527 114.623C15.6153 114.62 14.9882 114.966 14.6621 115.517C14.4934 115.787 14.4027 116.103 14.3917 116.421C14.3851 116.745 14.3893 117.077 14.3874 117.405L14.383 121.35L14.3738 129.24L14.3721 145.021L14.3954 160.801L14.4011 164.746L14.4023 165.733C14.4023 166.05 14.4821 166.364 14.6337 166.641C14.9392 167.195 15.5414 167.577 16.1755 167.591L24.0623 167.585L39.8425 167.574L55.623 167.605L87.1837 167.662ZM87.1837 167.686L55.623 167.742L39.8425 167.773L24.0623 167.763L16.1689 167.748C15.4806 167.73 14.829 167.315 14.5006 166.715C14.3373 166.415 14.2516 166.072 14.2528 165.733L14.2542 164.746L14.2598 160.801L14.2829 145.021L14.2813 129.24L14.2723 121.35L14.2676 117.405C14.2688 117.076 14.2636 116.75 14.2697 116.417C14.2806 116.078 14.3766 115.741 14.556 115.452C14.9022 114.865 15.5712 114.492 16.2527 114.494L79.3741 114.444L87.2689 114.446C87.9704 114.463 88.6356 114.886 88.9717 115.497C89.1389 115.803 89.2267 116.153 89.226 116.5L89.2262 117.486L89.2189 121.431L89.182 137.211L89.1499 152.992L89.1351 160.882L89.1278 164.827C89.1257 165.156 89.1299 165.484 89.1226 165.814C89.1111 166.145 89.0165 166.474 88.8404 166.755C88.5005 167.328 87.8468 167.689 87.1837 167.686V167.686Z" fill="#EDF4D0"/>
<path fill-rule="evenodd" clip-rule="evenodd" d="M16.8901 149.037H34.8282V145.775H16.8901V149.037Z" fill="#C9D18B"/>
<path fill-rule="evenodd" clip-rule="evenodd" d="M34.82 149.028C34.8047 147.927 34.7703 146.845 34.764 145.775L34.8282 145.84L30.3437 145.885C28.8489 145.901 27.3541 145.894 25.8593 145.899L21.3747 145.882L16.8901 145.84L16.9546 145.775C16.9429 146.862 16.9304 147.949 16.9292 149.037L16.8901 148.998C17.6366 149.003 18.383 149 19.1285 148.995C19.8748 148.994 20.6196 148.985 21.3629 148.975C22.85 148.956 24.332 148.939 25.8195 148.941L30.2966 148.967L34.82 149.028ZM34.8367 149.045L30.391 149.106L25.8991 149.133C24.3968 149.135 22.889 149.118 21.3865 149.098C20.6351 149.088 19.8851 149.08 19.1363 149.078C18.387 149.074 17.6387 149.07 16.8901 149.076L16.8513 149.076L16.851 149.037C16.8499 147.949 16.8374 146.862 16.8259 145.775L16.8251 145.711L16.8901 145.711L21.3747 145.668L25.8593 145.651C27.3541 145.656 28.8489 145.65 30.3436 145.665L34.8282 145.711L34.8932 145.712L34.8927 145.775C34.8861 146.88 34.8518 147.972 34.8367 149.045V149.045Z" fill="#C9D18B"/>
<path fill-rule="evenodd" clip-rule="evenodd" d="M16.8901 154.162H65.8124V150.9H16.8901V154.162Z" fill="#C9D18B"/>
<path fill-rule="evenodd" clip-rule="evenodd" d="M65.8042 154.154L65.7755 150.901L65.8124 150.937L53.5818 150.996C49.5049 151.018 45.428 151.022 41.3514 151.023L29.1208 151.01L16.8901 150.965L16.9546 150.901L16.9454 154.162L16.8901 154.107L23.002 154.124L29.1109 154.109L41.3151 154.075C45.3751 154.054 49.4599 154.089 53.538 154.097L65.8042 154.154ZM65.8206 154.17L59.7346 154.207L53.6258 154.226C49.5501 154.235 45.4812 154.27 41.3874 154.249L29.1309 154.214L23.0089 154.2L16.8901 154.217H16.835L16.8348 154.162L16.8259 150.901L16.8256 150.836L16.8901 150.836L29.1208 150.791L41.3514 150.778C45.428 150.778 49.5049 150.783 53.5818 150.805L65.8124 150.863L65.8498 150.863L65.8494 150.901L65.8206 154.17Z" fill="#C9D18B"/>
<path fill-rule="evenodd" clip-rule="evenodd" d="M16.8901 159.054H42.7492V155.793H16.8901V159.054Z" fill="#C9D18B"/>
<path fill-rule="evenodd" clip-rule="evenodd" d="M42.7407 159.046L42.6938 155.793L42.7492 155.848L36.2844 155.896C34.1293 155.918 31.9745 155.911 29.8196 155.916L23.3549 155.901L16.8901 155.857L16.9546 155.793L16.9325 159.054L16.8901 159.012C19.0426 159.021 21.1967 159.018 23.3447 159.001C25.4935 158.984 27.6325 158.957 29.7806 158.96C31.9253 158.955 34.0815 158.975 36.2357 158.983L42.7407 159.046ZM42.7574 159.062L36.3329 159.126C34.1771 159.133 32.0239 159.153 29.8587 159.149C27.6968 159.151 25.5262 159.124 23.365 159.108C21.2033 159.091 19.0475 159.087 16.8901 159.096L16.8479 159.097L16.8477 159.054L16.8258 155.793L16.8253 155.729L16.8901 155.728L23.3548 155.685L29.8196 155.669C31.9745 155.675 34.1293 155.667 36.2844 155.689L42.7491 155.737L42.8052 155.738L42.8045 155.793L42.7574 159.062Z" fill="#C9D18B"/>
<path fill-rule="evenodd" clip-rule="evenodd" d="M21.0835 164.878H58.1245V161.617H21.0835V164.878Z" fill="#C9D18B"/>
<path fill-rule="evenodd" clip-rule="evenodd" d="M58.1162 164.87L58.0802 161.617L58.1245 161.661L48.8643 161.715C45.7775 161.737 42.6908 161.737 39.604 161.74L30.3438 161.725L21.0835 161.681L21.148 161.617L21.1362 164.878L21.0835 164.826L25.7102 164.842L30.3347 164.831C33.416 164.814 36.4868 164.785 39.5654 164.785C42.6399 164.776 45.73 164.8 48.8147 164.805L58.1162 164.87ZM58.1329 164.886L48.914 164.951C45.8251 164.957 42.7416 164.981 39.6426 164.971C36.5478 164.972 33.4452 164.942 30.3528 164.925L25.7168 164.914L21.0835 164.931L21.031 164.931V164.878L21.019 161.617L21.0187 161.552L21.0835 161.552L30.3438 161.508L39.604 161.494C42.6908 161.496 45.7775 161.496 48.8643 161.518L58.1245 161.572L58.1697 161.572L58.1692 161.617L58.1329 164.886Z" fill="#C9D18B"/>
<path fill-rule="evenodd" clip-rule="evenodd" d="M74.4323 164.878H82.3527V161.617H74.4323V164.878Z" fill="#C9D18B"/>
<path fill-rule="evenodd" clip-rule="evenodd" d="M82.3444 164.87L82.2924 163.222C82.2754 162.682 82.2599 162.148 82.2536 161.617L82.3527 161.716C81.6926 161.726 81.0328 161.738 80.3727 161.737C79.7124 161.737 79.0526 161.747 78.3925 161.737C77.0724 161.726 75.7521 161.717 74.4322 161.681L74.4964 161.617C74.4859 162.16 74.4729 162.704 74.4717 163.247C74.4713 163.519 74.4644 163.791 74.4694 164.063L74.4774 164.878L74.4322 164.833L76.3954 164.789C77.0479 164.78 77.6967 164.773 78.3537 164.785C79.0109 164.795 79.6639 164.797 80.3303 164.816L82.3444 164.87ZM82.3611 164.886C81.7225 164.909 81.0716 164.926 80.4149 164.94C79.7611 164.959 79.094 164.962 78.4311 164.972C77.7683 164.983 77.0967 164.976 76.4293 164.967L74.4322 164.924L74.3863 164.923L74.3868 164.878L74.3948 164.063C74.3997 163.791 74.3929 163.519 74.3924 163.247C74.3912 162.704 74.378 162.16 74.3674 161.617L74.3663 161.554L74.4322 161.552C75.7521 161.516 77.0724 161.507 78.3925 161.496C79.0526 161.487 79.7124 161.497 80.3727 161.496C81.0328 161.495 81.6926 161.507 82.3527 161.518L82.4532 161.519L82.452 161.617C82.4459 162.172 82.4301 162.726 82.4132 163.273L82.3611 164.886Z" fill="#C9D18B"/>
<path fill-rule="evenodd" clip-rule="evenodd" d="M64.8226 162.394V164.558C64.8226 165.013 65.5288 165.013 65.5288 164.558V162.394C65.5288 161.939 64.8226 161.939 64.8226 162.394" fill="#C9D18B"/>
<path fill-rule="evenodd" clip-rule="evenodd" d="M17.7213 162.947C17.722 162.573 17.7535 162.332 18.1175 162.176C18.5567 161.987 19.2285 161.954 19.1073 162.62C18.9997 163.212 18.548 163.87 18.2344 164.374C18.4192 164.351 18.6043 164.327 18.789 164.303C18.371 163.866 18.0339 163.386 17.7589 162.849C17.5518 162.444 16.9421 162.801 17.149 163.205C17.4515 163.796 17.831 164.323 18.2898 164.802C18.451 164.971 18.7269 164.92 18.8444 164.731C19.2909 164.012 20.6428 162.018 19.3646 161.481C18.85 161.265 18.1243 161.349 17.6386 161.608C17.1191 161.885 17.0163 162.401 17.0151 162.947C17.0141 163.402 17.7203 163.402 17.7213 162.947" fill="#C9D18B"/>
<path fill-rule="evenodd" clip-rule="evenodd" d="M18.4437 163.166C18.898 163.166 18.8987 162.459 18.4437 162.459C17.9891 162.459 17.9884 163.166 18.4437 163.166" fill="#C9D18B"/>
<path fill-rule="evenodd" clip-rule="evenodd" d="M72.4393 161.748C71.5285 161.214 70.3534 160.94 69.4525 161.653C68.6962 162.252 68.5203 163.536 69.122 164.311C69.7098 165.069 70.8805 165.194 71.7022 164.789C72.6337 164.329 73.0247 163.276 72.8249 162.294C72.7342 161.849 72.0532 162.037 72.1438 162.482C72.2738 163.119 72.0264 163.813 71.4353 164.136C70.8852 164.436 69.9815 164.382 69.6213 163.803C69.2795 163.253 69.4892 162.425 70.0325 162.107C70.7006 161.716 71.4722 162 72.0826 162.358C72.4758 162.588 72.8314 161.978 72.4393 161.748" fill="#C9D18B"/>
<path fill-rule="evenodd" clip-rule="evenodd" d="M18.6311 169.81C17.4188 169.691 16.0719 169.609 15.1126 170.36C14.6331 170.735 14.3142 171.278 14.0682 171.835C13.7854 172.476 13.5844 173.153 13.4717 173.844C13.3801 174.405 13.349 174.994 13.5376 175.531C13.7473 176.127 14.2087 176.601 14.7087 176.988C15.8391 177.863 17.2849 178.392 18.7034 178.216C20.1219 178.041 21.4712 177.081 21.9015 175.718C22.047 175.258 22.0877 174.768 22.064 174.286C21.9611 172.181 20.54 170.197 18.5801 169.423" fill="#ECF3CF"/>
<path fill-rule="evenodd" clip-rule="evenodd" d="M15.1556 174.314C16.0392 173.438 16.9227 172.562 17.8064 171.686H17.3071C18.2819 172.527 19.1967 173.421 20.0594 174.376C20.3645 174.714 20.8628 174.213 20.5587 173.877C19.6962 172.922 18.7812 172.028 17.8064 171.187C17.6616 171.062 17.4507 171.044 17.3071 171.187C16.4234 172.063 15.5397 172.939 14.6563 173.814C14.3328 174.135 14.8324 174.634 15.1556 174.314" fill="#0A3E14"/>
<path fill-rule="evenodd" clip-rule="evenodd" d="M19.2967 172.296C19.2524 172.038 19.2427 171.776 19.2545 171.515C19.2748 171.06 18.5686 171.061 18.5483 171.515C18.5337 171.841 18.5606 172.162 18.6156 172.484C18.6479 172.672 18.8793 172.778 19.05 172.731C19.2491 172.676 19.3289 172.485 19.2967 172.296" fill="#0A3E14"/>
<path fill-rule="evenodd" clip-rule="evenodd" d="M15.3883 173.886C15.4184 174.459 15.4488 175.032 15.4789 175.606C15.4933 175.878 15.4361 176.287 15.6197 176.522C15.9342 176.923 17.022 176.779 17.424 176.665C17.5403 176.632 17.6411 176.537 17.6707 176.418C17.7578 176.066 17.6309 175.682 17.7289 175.335C17.6467 175.417 17.5646 175.5 17.4824 175.582C17.67 175.55 17.9756 175.627 18.1658 175.649L17.8127 175.296C17.8339 175.665 17.7308 176.364 18.0403 176.637C18.3386 176.899 19.1116 176.772 19.447 176.7C19.742 176.637 19.8526 176.535 19.9051 176.235C20.0518 175.403 19.8738 174.375 19.8595 173.525C19.8517 173.071 19.1455 173.07 19.1533 173.525C19.1608 173.977 19.1686 174.428 19.1761 174.88C19.1832 175.287 19.2841 175.829 19.1926 176.224C19.2747 176.142 19.3569 176.06 19.439 175.978C19.3425 176.01 18.4932 176.121 18.445 176.056C18.532 176.174 18.5222 175.351 18.5189 175.296C18.5069 175.088 18.3654 174.966 18.1658 174.943C17.8694 174.908 17.5893 174.852 17.2946 174.901C17.1764 174.92 17.0787 175.038 17.0479 175.147C16.9478 175.502 17.077 175.878 16.9897 176.23C17.0719 176.148 17.154 176.066 17.2364 175.984C17.0278 176.043 16.5752 176.031 16.3577 176.007C15.9864 175.967 16.1611 176.026 16.1851 175.606C16.2171 175.046 16.1239 174.447 16.0945 173.886C16.0707 173.434 15.3643 173.431 15.3883 173.886" fill="#0A3E14"/>
<path fill-rule="evenodd" clip-rule="evenodd" d="M48.7297 173.834V172.494C48.7297 172.039 48.0235 172.039 48.0235 172.494V173.834C48.0235 174.288 48.7297 174.289 48.7297 173.834" fill="#0A3E14"/>
<path fill-rule="evenodd" clip-rule="evenodd" d="M48.3768 172.877C50.2318 172.864 52.0869 172.851 53.9419 172.837C54.396 172.834 54.3971 172.127 53.9419 172.131C52.0869 172.144 50.2318 172.158 48.3768 172.171C47.9225 172.175 47.9216 172.881 48.3768 172.877" fill="#0A3E14"/>
<path fill-rule="evenodd" clip-rule="evenodd" d="M53.5689 172.599C53.613 173.096 53.6572 173.593 53.7012 174.091C53.7413 174.54 54.4477 174.544 54.4077 174.091C54.3634 173.593 54.3194 173.096 54.2751 172.599C54.2354 172.15 53.5287 172.145 53.5689 172.599" fill="#0A3E14"/>
<path fill-rule="evenodd" clip-rule="evenodd" d="M53.8958 173.687C52.9839 173.976 52.0595 174.207 51.1193 174.382C50.6732 174.465 50.862 175.146 51.3069 175.063C52.2473 174.888 53.1715 174.656 54.0834 174.368C54.5154 174.232 54.3308 173.55 53.8958 173.687" fill="#0A3E14"/>
<path fill-rule="evenodd" clip-rule="evenodd" d="M51.254 174.367C50.2821 174.035 49.3023 173.728 48.3146 173.447C47.8765 173.322 47.6896 174.003 48.1268 174.128C49.1147 174.409 50.0942 174.716 51.0664 175.048C51.4974 175.195 51.6825 174.513 51.254 174.367" fill="#0A3E14"/>
<path fill-rule="evenodd" clip-rule="evenodd" d="M48.1291 174.143C48.1819 174.916 48.2346 175.688 48.2871 176.461C48.3179 176.912 49.0244 176.916 48.9933 176.461C48.9408 175.688 48.8881 174.916 48.8353 174.143C48.8045 173.692 48.0981 173.688 48.1291 174.143" fill="#0A3E14"/>
<path fill-rule="evenodd" clip-rule="evenodd" d="M48.5824 176.861C50.3166 176.763 52.0508 176.725 53.7876 176.748C54.2421 176.753 54.2424 176.047 53.7876 176.042C52.0508 176.019 50.3166 176.057 48.5824 176.155C48.1307 176.18 48.1276 176.887 48.5824 176.861" fill="#0A3E14"/>
<path fill-rule="evenodd" clip-rule="evenodd" d="M54.5011 176.307V174.194C54.5011 173.74 53.7949 173.739 53.7949 174.194V176.307C53.7949 176.762 54.5011 176.762 54.5011 176.307" fill="#0A3E14"/>
<path fill-rule="evenodd" clip-rule="evenodd" d="M50.3282 172.236C50.3279 172.171 50.368 171.713 50.3251 171.687C50.2644 171.747 50.2034 171.806 50.1425 171.866C50.1992 171.867 50.2561 171.867 50.3129 171.867C50.4372 171.901 50.6114 171.868 50.7387 171.868C51.2215 171.869 51.7043 171.869 52.1869 171.871L51.8338 171.518C51.827 171.778 51.8387 172.032 51.8693 172.29C51.9223 172.736 52.6292 172.741 52.5755 172.29C52.5449 172.032 52.5332 171.778 52.54 171.518C52.5452 171.326 52.3743 171.165 52.1869 171.164C51.818 171.164 51.4487 171.163 51.0796 171.162C50.7573 171.162 50.3906 171.114 50.0709 171.165C49.5217 171.253 49.6196 171.809 49.622 172.236C49.6246 172.691 50.3308 172.691 50.3282 172.236" fill="#0A3E14"/>
<path fill-rule="evenodd" clip-rule="evenodd" d="M50.3431 174.04C50.3426 174.27 50.3422 174.5 50.3415 174.73C50.341 174.953 50.3285 175.208 50.543 175.344C50.7268 175.461 50.9773 175.424 51.1858 175.425C51.392 175.425 51.6314 175.457 51.8026 175.316C51.982 175.169 51.9813 174.958 51.9791 174.743C51.9768 174.538 52.0043 174.303 51.9514 174.104C51.824 173.623 51.2261 173.737 50.8502 173.74C50.3961 173.743 50.3949 174.449 50.8502 174.446C50.9587 174.445 51.067 174.444 51.1755 174.443C51.2237 174.443 51.2718 174.443 51.32 174.442C51.3556 174.442 51.4664 174.467 51.3932 174.427C51.3511 174.385 51.309 174.342 51.2666 174.3C51.243 174.266 51.2687 174.375 51.2689 174.401L51.2711 174.591L51.2727 174.743C51.2732 174.781 51.2736 174.82 51.2741 174.858C51.2711 174.908 51.2743 174.908 51.2838 174.861C51.3259 174.819 51.3683 174.776 51.4104 174.734C51.4944 174.685 51.4022 174.719 51.3414 174.719C51.2765 174.719 51.2117 174.719 51.147 174.719C51.0225 174.718 50.8975 174.723 50.7734 174.713L50.9516 174.761C50.9342 174.752 50.9168 174.743 50.8994 174.734C50.9415 174.776 50.9839 174.819 51.026 174.861L51.0029 174.811C51.0189 174.871 51.0349 174.93 51.051 174.99C51.03 174.675 51.0486 174.355 51.0493 174.04C51.0502 173.585 50.3441 173.585 50.3431 174.04" fill="#0A3E14"/>
<path fill-rule="evenodd" clip-rule="evenodd" d="M83.9403 176.504C84.1321 175.491 84.8788 174.939 85.8971 174.936C87.0278 174.932 87.4595 175.512 87.6125 176.555C87.6779 177.003 88.3587 176.813 88.2933 176.367C88.0849 174.947 87.3413 174.251 85.8971 174.229C84.5925 174.21 83.5067 175.01 83.2592 176.316C83.1752 176.761 83.8557 176.951 83.9403 176.504" fill="#0A3E14"/>
<path fill-rule="evenodd" clip-rule="evenodd" d="M83.5975 176.981C85.0403 176.93 86.483 176.909 87.9267 176.919C88.381 176.922 88.3815 176.216 87.9267 176.213C86.483 176.203 85.0403 176.224 83.5975 176.274C83.1443 176.29 83.142 176.997 83.5975 176.981" fill="#0A3E14"/>
<path fill-rule="evenodd" clip-rule="evenodd" d="M86.3945 171.12C85.6141 170.978 84.7926 171.279 84.4967 172.066C84.229 172.778 84.5906 173.589 85.3178 173.836C85.9929 174.065 86.8843 173.959 87.1548 173.203C87.43 172.435 86.919 171.728 86.2514 171.39C85.8467 171.186 85.4887 171.795 85.8947 172C86.1993 172.155 86.5402 172.403 86.5258 172.786C86.5077 173.26 86.0032 173.296 85.6403 173.193C85.2238 173.076 84.9863 172.688 85.1721 172.269C85.35 171.867 85.8006 171.727 86.2066 171.801C86.6511 171.881 86.8415 171.201 86.3945 171.12" fill="#0A3E14"/>
<path fill-rule="evenodd" clip-rule="evenodd" d="M20.6177 50.7262H38.5558V47.4649H20.6177V50.7262Z" fill="#A8CA2F"/>
<path fill-rule="evenodd" clip-rule="evenodd" d="M38.5474 50.7179C38.5321 49.6163 38.4978 48.5346 38.4914 47.4649L38.5557 47.5292L34.0711 47.5749C32.5763 47.5899 31.0815 47.5836 29.5867 47.589L25.1021 47.5718L20.6176 47.5292L20.6821 47.4649C20.6703 48.552 20.6578 49.6391 20.6566 50.7262L20.6176 50.6871C21.364 50.6927 22.1105 50.6894 22.856 50.6845C23.6022 50.6831 24.347 50.6746 25.0904 50.6642C26.5774 50.6452 28.0595 50.628 29.547 50.6301L34.024 50.657L38.5474 50.7179ZM38.5641 50.7344L34.1184 50.7956L29.6265 50.8222C28.1242 50.8243 26.6165 50.8071 25.1139 50.7881C24.3625 50.7777 23.6125 50.7695 22.8637 50.7678C22.1145 50.7629 21.3661 50.7601 20.6176 50.7652L20.5787 50.7655L20.5785 50.7262C20.5773 49.6391 20.5648 48.552 20.5531 47.4649L20.5524 47.4009L20.6176 47.4002L25.1021 47.3578L29.5867 47.3404C31.0815 47.3461 32.5763 47.3395 34.0711 47.3545L38.5557 47.4002L38.6206 47.4009L38.6202 47.4649C38.6136 48.5694 38.5792 49.6619 38.5641 50.7344V50.7344Z" fill="#A8CA2F"/>
<path fill-rule="evenodd" clip-rule="evenodd" d="M64.4146 50.7262H82.3527V47.4649H64.4146V50.7262Z" fill="#9B9B9B"/>
<path fill-rule="evenodd" clip-rule="evenodd" d="M82.3444 50.7179C82.3293 49.6163 82.2947 48.5346 82.2884 47.4649L82.3527 47.5292L77.8681 47.5749C76.3735 47.5899 74.8785 47.5836 73.3837 47.589L68.8991 47.5718L64.4148 47.5292L64.479 47.4649C64.4675 48.552 64.455 49.6391 64.4536 50.7262L64.4148 50.6871C65.161 50.6927 65.9074 50.6894 66.6532 50.6845C67.3992 50.6831 68.1442 50.6746 68.8874 50.6642C70.3746 50.6452 71.8564 50.628 73.3439 50.6301L77.8212 50.657L82.3444 50.7179ZM82.3611 50.7344L77.9154 50.7956L73.4237 50.8222C71.9214 50.8243 70.4134 50.8071 68.9111 50.7881C68.1595 50.7777 67.4098 50.7695 66.6607 50.7678C65.9114 50.7629 65.1633 50.7601 64.4148 50.7652L64.3757 50.7655V50.7262C64.3743 49.6391 64.3618 48.552 64.3503 47.4649L64.3496 47.4009L64.4148 47.4002L68.8991 47.3578L73.3837 47.3404C74.8785 47.3461 76.3735 47.3395 77.8681 47.3545L82.3527 47.4002L82.4176 47.4009L82.4174 47.4649C82.4108 48.5694 82.3764 49.6619 82.3611 50.7344V50.7344Z" fill="#9B9B9B"/>
<path fill-rule="evenodd" clip-rule="evenodd" d="M16.8901 93.1255H34.8282V89.8641H16.8901V93.1255Z" fill="#C9D18B"/>
<path fill-rule="evenodd" clip-rule="evenodd" d="M34.82 93.1171C34.8047 92.0155 34.7703 90.9338 34.764 89.8642L34.8282 89.9284L30.3437 89.9741C28.8489 89.9894 27.3541 89.983 25.8593 89.9882L21.3747 89.9713L16.8901 89.9284L16.9546 89.8642C16.9429 90.9512 16.9304 92.0383 16.9292 93.1254L16.8901 93.0865C17.6366 93.0919 18.383 93.0886 19.1285 93.0839C19.8748 93.0825 20.6196 93.0741 21.3629 93.0637C22.85 93.0446 24.332 93.0274 25.8195 93.0296L30.2966 93.0562L34.82 93.1171ZM34.8367 93.1339L30.391 93.1948L25.8991 93.2217C24.3968 93.2235 22.889 93.2064 21.3865 93.1873C20.6351 93.1769 19.8851 93.1687 19.1363 93.1673C18.387 93.1623 17.6387 93.1593 16.8901 93.1645L16.8513 93.1649L16.851 93.1254C16.8499 92.0383 16.8374 90.9512 16.8259 89.8642L16.8251 89.8001L16.8901 89.7997L21.3747 89.7571L25.8593 89.7399C27.3541 89.7453 28.8489 89.7387 30.3436 89.754L34.8282 89.7997L34.8932 89.8004L34.8927 89.8642C34.8861 90.9687 34.8518 92.0611 34.8367 93.1339V93.1339Z" fill="#C9D18B"/>
<path fill-rule="evenodd" clip-rule="evenodd" d="M16.8901 98.2509H65.8124V94.9894H16.8901V98.2509Z" fill="#C9D18B"/>
<path fill-rule="evenodd" clip-rule="evenodd" d="M65.8042 98.2423L65.7755 94.9893L65.8124 95.0263L53.5818 95.0847C49.5049 95.1068 45.428 95.1113 41.3514 95.1117L29.1208 95.0986L16.8901 95.0536L16.9546 94.9893L16.9454 98.2505L16.8901 98.1955L23.002 98.2126L29.1109 98.1983L41.3151 98.1634C45.3751 98.143 49.4599 98.1778 53.538 98.186L65.8042 98.2423ZM65.8206 98.259L59.7346 98.2958L53.6258 98.3155C49.5501 98.3238 45.4812 98.3584 41.3874 98.3379L29.1309 98.3031L23.0089 98.2887L16.8901 98.3061H16.835L16.8348 98.2506L16.8259 94.9893L16.8256 94.9251L16.8901 94.9246L29.1208 94.8801L41.3514 94.8667C45.428 94.8672 49.5049 94.8716 53.5818 94.8938L65.8124 94.9521H65.8498L65.8494 94.9893L65.8206 98.259Z" fill="#C9D18B"/>
<path fill-rule="evenodd" clip-rule="evenodd" d="M16.8901 103.143H42.7492V99.8815H16.8901V103.143Z" fill="#C9D18B"/>
<path fill-rule="evenodd" clip-rule="evenodd" d="M42.7407 103.135L42.6938 99.8815L42.7492 99.9368L36.2844 99.9848C34.1293 100.007 31.9745 99.9994 29.8196 100.005L23.3549 99.9895L16.8901 99.946L16.9546 99.8815L16.9325 103.143L16.8901 103.1C19.0426 103.11 21.1967 103.106 23.3447 103.09C25.4935 103.073 27.6325 103.045 29.7806 103.049C31.9253 103.044 34.0815 103.064 36.2357 103.071L42.7407 103.135ZM42.7574 103.151L36.3329 103.214C34.1771 103.222 32.0239 103.242 29.8587 103.238C27.6968 103.24 25.5262 103.213 23.365 103.196C21.2033 103.179 19.0475 103.176 16.8901 103.186H16.8479L16.8477 103.143L16.8258 99.8815L16.8253 99.8174L16.8901 99.817L23.3548 99.7734L29.8196 99.7579C31.9745 99.7635 34.1293 99.7558 36.2844 99.7779L42.7491 99.8261L42.8052 99.8264L42.8045 99.8815L42.7574 103.151Z" fill="#C9D18B"/>
<path fill-rule="evenodd" clip-rule="evenodd" d="M21.0835 108.967H58.1245V105.706H21.0835V108.967Z" fill="#C9D18B"/>
<path fill-rule="evenodd" clip-rule="evenodd" d="M58.1162 108.959L58.0802 105.706L58.1245 105.75L48.8643 105.804C45.7775 105.826 42.6908 105.826 39.604 105.828L30.3438 105.815L21.0835 105.77L21.148 105.706L21.1362 108.967L21.0835 108.914L25.7102 108.931L30.3347 108.92C33.416 108.903 36.4868 108.874 39.5654 108.874C42.6399 108.864 45.73 108.888 48.8147 108.894L58.1162 108.959ZM58.1329 108.975L48.914 109.04C45.8251 109.046 42.7416 109.07 39.6426 109.06C36.5478 109.06 33.4452 109.031 30.3528 109.014L25.7168 109.003L21.0835 109.02L21.031 109.02V108.967L21.019 105.706L21.0187 105.641L21.0835 105.641L30.3438 105.597L39.604 105.583C42.6908 105.585 45.7775 105.585 48.8643 105.607L58.1245 105.661L58.1697 105.661L58.1692 105.706L58.1329 108.975Z" fill="#C9D18B"/>
<path fill-rule="evenodd" clip-rule="evenodd" d="M74.4323 108.967H82.3527V105.706H74.4323V108.967Z" fill="#C9D18B"/>
<path fill-rule="evenodd" clip-rule="evenodd" d="M82.3444 108.959L82.2924 107.311C82.2754 106.77 82.2599 106.237 82.2536 105.705L82.3527 105.805C81.6926 105.815 81.0328 105.827 80.3727 105.826C79.7124 105.825 79.0526 105.836 78.3925 105.826C77.0724 105.815 75.7521 105.806 74.4322 105.77L74.4964 105.705C74.4859 106.249 74.4729 106.793 74.4717 107.336C74.4713 107.608 74.4644 107.88 74.4694 108.152L74.4774 108.967L74.4322 108.922L76.3954 108.878C77.0479 108.869 77.6967 108.862 78.3537 108.874C79.0109 108.884 79.6639 108.886 80.3303 108.905L82.3444 108.959ZM82.3611 108.975C81.7225 108.998 81.0716 109.015 80.4149 109.029C79.7611 109.048 79.094 109.051 78.4311 109.061C77.7683 109.072 77.0967 109.065 76.4293 109.056L74.4322 109.012L74.3863 109.011L74.3868 108.967L74.3948 108.152C74.3997 107.88 74.3929 107.608 74.3924 107.336C74.3912 106.793 74.378 106.249 74.3674 105.706L74.3663 105.643L74.4322 105.641C75.7521 105.605 77.0724 105.596 78.3925 105.585C79.0526 105.575 79.7124 105.586 80.3727 105.585C81.0328 105.584 81.6926 105.596 82.3527 105.606L82.4532 105.608L82.452 105.706C82.4459 106.261 82.4301 106.815 82.4132 107.361L82.3611 108.975Z" fill="#C9D18B"/>
<path fill-rule="evenodd" clip-rule="evenodd" d="M64.8226 106.483V108.647C64.8226 109.101 65.5288 109.102 65.5288 108.647V106.483C65.5288 106.028 64.8226 106.027 64.8226 106.483" fill="#C9D18B"/>
<path fill-rule="evenodd" clip-rule="evenodd" d="M17.7213 107.036C17.722 106.662 17.7535 106.421 18.1175 106.265C18.5567 106.076 19.2285 106.043 19.1073 106.709C18.9997 107.301 18.548 107.959 18.2344 108.463C18.4192 108.439 18.6043 108.416 18.789 108.392C18.371 107.955 18.0339 107.475 17.7589 106.938C17.5518 106.533 16.9421 106.89 17.149 107.294C17.4515 107.885 17.831 108.412 18.2898 108.891C18.451 109.06 18.7269 109.009 18.8444 108.82C19.2909 108.101 20.6428 106.107 19.3646 105.57C18.85 105.354 18.1243 105.438 17.6386 105.697C17.1191 105.973 17.0163 106.49 17.0151 107.036C17.0141 107.491 17.7203 107.491 17.7213 107.036" fill="#C9D18B"/>
<path fill-rule="evenodd" clip-rule="evenodd" d="M18.4437 107.255C18.898 107.255 18.8987 106.548 18.4437 106.548C17.9891 106.548 17.9884 107.255 18.4437 107.255" fill="#C9D18B"/>
<path fill-rule="evenodd" clip-rule="evenodd" d="M72.4393 105.837C71.5285 105.303 70.3534 105.028 69.4525 105.742C68.6962 106.34 68.5203 107.625 69.122 108.4C69.7098 109.157 70.8805 109.283 71.7022 108.877C72.6337 108.418 73.0247 107.365 72.8249 106.383C72.7342 105.938 72.0532 106.126 72.1438 106.57C72.2738 107.208 72.0264 107.901 71.4353 108.225C70.8852 108.525 69.9815 108.47 69.6213 107.892C69.2795 107.342 69.4892 106.514 70.0325 106.196C70.7006 105.805 71.4722 106.089 72.0826 106.447C72.4758 106.677 72.8314 106.067 72.4393 105.837" fill="#C9D18B"/>
</g>
</svg>
