<svg width="10" height="15" viewBox="0 0 10 15" fill="none" xmlns="http://www.w3.org/2000/svg">
<path fill-rule="evenodd" clip-rule="evenodd" d="M0 5C0 2.243 2.243 0 5 0C7.757 0 10 2.243 10 5C10 5.90386 9.75614 6.78967 9.29475 7.56167L5.42689 14.0197C5.35225 14.1443 5.21803 14.2211 5.07272 14.2222H5.06942C4.92536 14.2222 4.79142 14.1478 4.71539 14.0253L0.746361 7.62922C0.258028 6.84056 0 5.9315 0 5ZM5.06311 13.0052L8.57961 7.13383C8.96358 6.49133 9.16944 5.75336 9.16944 5C9.16944 2.7025 7.2975 0.827778 5 0.827778C2.7025 0.827778 0.827778 2.7025 0.827778 5C0.827778 5.77639 1.04817 6.53372 1.45464 7.19017L5.06311 13.0052Z" fill="white"/>
<path fill-rule="evenodd" clip-rule="evenodd" d="M2.5 5C2.5 3.6215 3.6215 2.5 5 2.5C6.3785 2.5 7.5 3.6215 7.5 5C7.5 6.35464 6.41397 7.5 5 7.5C3.60325 7.5 2.5 6.36969 2.5 5ZM3.32778 5C3.32778 5.92131 4.07619 6.67222 5 6.67222C5.93844 6.67222 6.66944 5.90786 6.66944 5C6.66944 4.081 5.919 3.32778 5 3.32778C4.081 3.32778 3.32778 4.081 3.32778 5Z" fill="white"/>
</svg>
