<svg width="18" height="19" viewBox="0 0 18 19" fill="none" xmlns="http://www.w3.org/2000/svg">
<path d="M15 0.75H2.5C1.09375 0.75 0 1.88281 0 3.25V15.75C0 17.1562 1.09375 18.25 2.5 18.25H15C16.3672 18.25 17.5 17.1562 17.5 15.75V3.25C17.5 1.88281 16.3672 0.75 15 0.75ZM13.2422 7.78125L8.24219 12.7812C8.04688 13.0156 7.77344 13.0938 7.5 13.0938C7.1875 13.0938 6.91406 13.0156 6.71875 12.7812L4.21875 10.2812C3.78906 9.85156 3.78906 9.1875 4.21875 8.75781C4.64844 8.32812 5.3125 8.32812 5.74219 8.75781L7.5 10.4766L11.7188 6.25781C12.1484 5.82812 12.8125 5.82812 13.2422 6.25781C13.6719 6.6875 13.6719 7.35156 13.2422 7.78125Z" fill="#A9CA2E"/>
</svg>
