<svg width="19" height="19" viewBox="0 0 19 19" fill="none" xmlns="http://www.w3.org/2000/svg">
<path fill-rule="evenodd" clip-rule="evenodd" d="M0 9.5C0 4.25333 4.25333 0 9.5 0C14.7444 0.00563265 18.9944 4.25565 19 9.5C19 14.7467 14.7467 19 9.5 19C4.25333 19 0 14.7467 0 9.5ZM14.963 14.4783C15.0252 14.2411 14.9542 13.9887 14.778 13.8184L10.4595 9.5L14.778 5.18156C15.0351 4.91534 15.0315 4.49206 14.7697 4.2303C14.5079 3.96855 14.0847 3.9649 13.8184 4.22202L9.5 8.54046L5.18156 4.22202C5.01126 4.04575 4.75895 3.97484 4.52171 4.03697C4.28448 4.09909 4.09909 4.28448 4.03697 4.52171C3.97484 4.75895 4.04575 5.01126 4.22202 5.18156L8.54046 9.5L4.22202 13.8184C3.9649 14.0847 3.96855 14.5079 4.2303 14.7697C4.49206 15.0315 4.91534 15.0351 5.18156 14.778L9.5 10.4595L13.8184 14.778C13.9887 14.9542 14.2411 15.0252 14.4783 14.963C14.7155 14.9009 14.9009 14.7155 14.963 14.4783Z" fill="white"/>
</svg>
