<svg width="20" height="20" viewBox="0 0 20 20" fill="none" xmlns="http://www.w3.org/2000/svg">
<path d="M19.9407 7.20538C19.8752 7.00456 19.703 6.86111 19.494 6.82833L13.2645 5.94308L10.4612 0.307835C10.367 0.11931 10.1743 0.000457764 9.96533 0.000457764C9.75631 0.000457764 9.56369 0.11931 9.46942 0.311933L6.70303 5.96357L0.473522 6.8898C0.264506 6.92259 0.0923744 7.06603 0.0268006 7.26685C-0.0387731 7.46767 0.0186039 7.68898 0.170243 7.83243L4.69073 12.2136L3.64565 18.4185C3.60877 18.6275 3.69483 18.8365 3.86696 18.9595C3.96123 19.0291 4.07598 19.066 4.19073 19.066C4.2809 19.066 4.36696 19.0455 4.44893 19.0005L10.0104 16.0537L15.5883 18.9677C15.6702 19.0087 15.7563 19.0291 15.8424 19.0291C16.1457 19.0291 16.3957 18.7791 16.3957 18.4759C16.3957 18.4308 16.3916 18.3898 16.3793 18.3488L15.3014 12.1808L19.7932 7.77505C19.953 7.62751 20.0063 7.4062 19.9407 7.20538Z" fill="white"/>
<path d="M14.326 11.5947C14.1948 11.7218 14.1375 11.9062 14.1702 12.0865L15.1088 17.4677L10.2645 14.939C10.1047 14.8529 9.91204 14.857 9.74811 14.939L4.92024 17.4964L5.82598 12.107C5.85467 11.9267 5.79729 11.7464 5.66614 11.6193L1.74811 7.81604L7.15385 7.01276C7.33417 6.98407 7.48991 6.87341 7.56778 6.70948L9.96942 1.80374L12.4038 6.69718C12.4858 6.86112 12.6416 6.97177 12.8219 7.00046L18.2317 7.77095L14.326 11.5947Z" fill="white"/>
</svg>
