<svg width="25" height="22" viewBox="0 0 25 22" fill="none" xmlns="http://www.w3.org/2000/svg">
<path fill-rule="evenodd" clip-rule="evenodd" d="M23.8636 11.9762C23.5227 11.9762 23.2955 12.2035 23.2955 12.5444V19.9307C23.2955 20.2717 23.0682 20.4989 22.7273 20.4989H2.27273C1.93181 20.4989 1.70457 20.2716 1.70457 19.9307V12.5444C1.70457 12.2034 1.47727 11.9762 1.1364 11.9762C0.795532 11.9762 0.568237 12.2035 0.568237 12.5444V19.9307C0.568237 20.8967 1.30686 21.6353 2.27278 21.6353H22.7273C23.6932 21.6353 24.4319 20.8967 24.4319 19.9307V12.5444C24.4319 12.2034 24.2046 11.9762 23.8636 11.9762Z" fill="white"/>
<path fill-rule="evenodd" clip-rule="evenodd" d="M23.2955 4.02167H1.70454C0.738623 4.02167 0 4.76029 0 5.72621V9.36259C0 10.158 0.568164 10.8398 1.30684 11.0103L10.2273 12.9989V14.8171C10.2273 15.158 10.4546 15.3852 10.7955 15.3852H14.2045C14.5455 15.3852 14.7727 15.1579 14.7727 14.8171V12.9989L23.6932 11.0103C24.4318 10.8398 25 10.158 25 9.36254V5.72616C25 4.76029 24.2614 4.02167 23.2955 4.02167ZM13.6364 14.2489H11.3637V11.9762H13.6364V14.2489ZM23.4091 9.9307C23.6932 9.87391 23.8636 9.64662 23.8636 9.36254V5.72621C23.8636 5.38534 23.6364 5.15804 23.2955 5.15804H1.70454C1.36367 5.15804 1.13638 5.38529 1.13638 5.72621V9.36259C1.13638 9.64667 1.30684 9.87391 1.59092 9.93075L10.2273 11.8625V11.408C10.2273 11.0671 10.4545 10.8398 10.7955 10.8398H14.2045C14.5454 10.8398 14.7727 11.0671 14.7727 11.408V11.8625L23.4091 9.9307Z" fill="white"/>
<path fill-rule="evenodd" clip-rule="evenodd" d="M15.3409 0.0443726H9.65907C8.69315 0.0443726 7.95453 0.782996 7.95453 1.74891V2.31708C7.95453 2.658 8.18182 2.88524 8.52269 2.88524C8.86356 2.88524 9.09086 2.65795 9.09086 2.31708V1.74891C9.09086 1.408 9.31815 1.18075 9.65902 1.18075H15.3409C15.6818 1.18075 15.909 1.40804 15.909 1.74891V2.31708C15.909 2.658 16.1363 2.88524 16.4772 2.88524C16.8181 2.88524 17.0453 2.65795 17.0453 2.31708V1.74891C17.0454 0.782996 16.3068 0.0443726 15.3409 0.0443726Z" fill="white"/>
</svg>
