<svg width="20" height="24" viewBox="0 0 20 24" fill="none" xmlns="http://www.w3.org/2000/svg">
<path fill-rule="evenodd" clip-rule="evenodd" d="M15.7368 5.73674C15.7368 8.90008 13.1633 11.4736 10.0001 11.4736C6.83679 11.4736 4.26331 8.90008 4.26331 5.73674C4.26331 2.57349 6.83679 0 10.0001 0C13.1633 0 15.7368 2.57349 15.7368 5.73674ZM14.574 5.73674C14.574 3.21465 12.5221 1.16279 10.0001 1.16279C7.47796 1.16279 5.4261 3.21465 5.4261 5.73674C5.4261 8.25884 7.47796 10.3108 10.0001 10.3108C12.5221 10.3108 14.574 8.25884 14.574 5.73674Z" fill="white"/>
<path fill-rule="evenodd" clip-rule="evenodd" d="M10 13.7991C14.6366 13.7991 18.4436 17.4185 18.7437 21.9805H5.30702C4.98594 21.9805 4.72563 22.2407 4.72563 22.5619C4.72563 22.883 4.98594 23.1433 5.30702 23.1433H19.3442C19.6653 23.1433 19.9256 22.883 19.9256 22.5619C19.9256 17.0889 15.4731 12.6364 10 12.6364C4.52702 12.6364 0.0744629 17.0889 0.0744629 22.5619C0.0744629 22.883 0.334773 23.1433 0.655858 23.1433H2.98144C3.30252 23.1433 3.56283 22.883 3.56283 22.5619C3.56283 22.2407 3.30252 21.9805 2.98144 21.9805H1.25632C1.55648 17.4185 5.36353 13.7991 10 13.7991Z" fill="white"/>
<path fill-rule="evenodd" clip-rule="evenodd" d="M10 8.37278C10.7621 8.37278 11.4872 8.04162 11.9892 7.46418C12.1998 7.22185 12.1742 6.85464 11.9319 6.64394C11.6895 6.43325 11.3223 6.45891 11.1117 6.70123C10.8307 7.02456 10.4254 7.20999 10 7.20999C9.57469 7.20999 9.16949 7.02456 8.88841 6.70123C8.67771 6.45891 8.3105 6.43332 8.06817 6.64394C7.82585 6.85464 7.80019 7.22185 8.01089 7.46418C8.5129 8.04154 9.23794 8.37278 10 8.37278Z" fill="white"/>
</svg>
