<svg width="16" height="14" viewBox="0 0 16 14" fill="none" xmlns="http://www.w3.org/2000/svg">
<path fill-rule="evenodd" clip-rule="evenodd" d="M2.09944 13.6435C2.09944 13.6435 2.08573 13.9886 2.42287 13.9886C2.8423 13.9886 6.31487 13.984 6.31487 13.984L6.32059 10.7949C6.32059 10.7949 6.26573 10.2692 6.77601 10.2692H8.39087C8.9943 10.2692 8.95716 10.7949 8.95716 10.7949L8.9503 13.9737C8.9503 13.9737 12.2429 13.9737 12.76 13.9737C13.188 13.9737 13.1686 13.544 13.1686 13.544V7.6646L7.79944 2.8886L2.09944 7.6646V13.6435Z" fill="#A9CA2E"/>
<path fill-rule="evenodd" clip-rule="evenodd" d="M0 7.22002C0 7.22002 0.484 8.11202 1.53943 7.22002L7.84686 1.88402L13.7606 7.18688C14.9823 8.06802 15.44 7.18688 15.44 7.18688L7.84686 0.308594L0 7.22002Z" fill="#A9CA2E"/>
<path fill-rule="evenodd" clip-rule="evenodd" d="M13.6172 1.87145H12.096L12.1023 3.71602L13.6172 5.00117V1.87145Z" fill="#A9CA2E"/>
</svg>
