<svg width="216" height="202" viewBox="0 0 216 202" fill="none" xmlns="http://www.w3.org/2000/svg">
<path fill-rule="evenodd" clip-rule="evenodd" d="M170.603 188.918C170.603 188.918 168.785 193.867 169.173 195.323C169.561 196.778 172.375 199.01 173.636 199.107C174.898 199.204 178.974 197.069 179.459 195.613C179.944 194.157 179.06 189.792 179.044 187.657C179.027 185.52 170.603 188.918 170.603 188.918Z" fill="#052C10"/>
<path fill-rule="evenodd" clip-rule="evenodd" d="M190.424 192.217C190.036 193.285 187.561 195.917 189.235 197.081C190.909 198.245 195.858 196.681 197.241 195.152C198.623 193.624 197.568 188.457 198.332 186.419L200.152 192.569L200.77 192.351C200.77 192.351 199.133 186.092 199.242 184.636C199.351 183.18 199.638 182.049 198.878 180.379C198.15 178.777 197.105 178.357 195.972 177.767C195.972 177.767 195.531 189.585 194.002 190.713C192.474 191.841 190.424 192.217 190.424 192.217Z" fill="#052C10"/>
<path fill-rule="evenodd" clip-rule="evenodd" d="M166.553 146.416C166.553 155.052 171.405 166.891 171.599 174.362C171.793 181.834 169.658 189.306 171.113 191.441C172.569 193.575 176.257 193.867 178.003 192.023C179.75 190.18 178.877 181.543 178.391 178.923C177.906 176.303 176.645 177.176 176.547 168.734C176.45 160.292 178.295 153.597 177.421 147.483C176.547 141.37 166.553 146.416 166.553 146.416Z" fill="#FFB1A0"/>
<path fill-rule="evenodd" clip-rule="evenodd" d="M179.459 147.677C180.041 154.47 186.155 167.958 188.386 174.168C189.357 176.109 189.357 180.088 190.036 183.193C190.715 186.298 190.909 189.597 190.424 192.217C190.424 192.217 193.529 193.964 195.276 192.217C197.022 190.47 197.022 179.505 196.149 178.049C195.276 176.594 194.208 175.721 194.208 175.721C194.208 175.721 194.985 158.158 193.335 153.305C191.685 148.454 188.871 145.057 188.871 145.057L179.459 147.677Z" fill="#FFB1A0"/>
<path fill-rule="evenodd" clip-rule="evenodd" d="M167.256 96.8302C167.256 96.8302 160.634 106.243 161.119 121.671C161.604 137.1 165.388 145.834 165.388 145.834C165.388 145.834 177.324 150.2 191.006 145.057C191.006 145.057 190.036 138.944 191.685 133.607C193.335 128.27 198.866 108.377 184.893 96.0537C184.893 96.0537 177.469 101.1 167.256 96.8302Z" fill="#052C10"/>
<path fill-rule="evenodd" clip-rule="evenodd" d="M194.143 50.9078C194.143 50.9078 190.327 40.3547 183.122 40.3547C175.917 40.3547 164.806 46.5652 163.545 70.9215C163.545 77.6168 170.823 81.4013 179.459 81.2074C188.095 81.0131 196.754 74.4696 197.508 68.9808C198.262 63.4919 199.221 51.9505 194.143 50.9078Z" fill="#D65F23"/>
<path fill-rule="evenodd" clip-rule="evenodd" d="M177.625 74.2207L178.391 72.8621C178.391 72.8621 171.938 71.8917 170.58 64.0318C170.58 64.0318 168.833 63.2553 168.931 60.3929C168.927 58.7434 170.143 58.2582 170.143 58.2582L170.968 53.9402C170.968 53.9402 175.675 52.339 180.089 51.9025C184.505 51.4656 189.065 49.8644 189.065 49.8644C189.065 49.8644 187.028 55.1045 191.54 59.7138C191.54 59.7138 192.911 58.986 193.784 59.6774C194.657 60.3687 193.844 64.9293 192.365 65.3417C190.885 65.7545 190.643 64.9293 190.643 64.9293C190.643 64.9293 188.386 70.5331 183.437 72.2558L183.049 74.512L182.337 83.4406H174.439L177.625 74.2207Z" fill="#FFB1A0"/>
<path fill-rule="evenodd" clip-rule="evenodd" d="M182.685 60.7846C182.685 60.7846 183.917 61.9151 185.329 61.8972C186.743 61.8787 187.65 60.6193 187.756 59.4225L187.488 58.149L185.978 57.6761L184.65 58.2583L183.431 59.3133L182.685 60.7846Z" fill="white"/>
<path fill-rule="evenodd" clip-rule="evenodd" d="M176.839 60.7847C176.839 60.7847 176.062 61.2782 174.643 61.2782C173.224 61.2782 172.58 59.6586 172.618 58.5632C172.655 57.4678 173.607 56.8935 173.607 56.8935H174.57L175.298 57.2879L175.953 58.5632L176.839 60.7847Z" fill="white"/>
<path fill-rule="evenodd" clip-rule="evenodd" d="M182.62 79.8941C182.62 79.8941 178.497 83.0855 175.8 79.5023C175.8 79.5023 172.59 87.7027 171.027 98.0403C171.027 98.0403 175.967 99.5911 181.328 97.6525L182.62 79.8941Z" fill="#A8C92F"/>
<path fill-rule="evenodd" clip-rule="evenodd" d="M189.55 58.3552L187.755 59.4225C187.755 59.4225 187.416 58.1367 185.79 58.2341C184.165 58.331 182.685 60.7846 182.685 60.7846C182.685 60.7846 183.461 57.2637 186.118 57.2878C187.392 57.2878 187.974 58.4039 187.974 58.4039L189.55 58.3552Z" fill="black"/>
<path fill-rule="evenodd" clip-rule="evenodd" d="M176.839 60.7847C176.839 60.7847 176.062 56.3417 174.17 56.3417C173.152 56.3417 172.545 57.6762 172.545 57.6762L171.356 57.5305L172.618 58.5632C172.618 58.5632 173.127 57.1664 174.097 57.1664C175.495 57.1664 176.839 60.7847 176.839 60.7847Z" fill="black"/>
<path fill-rule="evenodd" clip-rule="evenodd" d="M182.855 54.5951V56.0506C182.855 56.0506 183.631 54.3968 185.33 54.2752C186.979 54.1577 187.562 54.7889 187.562 54.7889L187.804 54.4253C187.804 54.4253 187.052 53.4308 185.475 53.4066C183.898 53.3821 182.855 54.5951 182.855 54.5951Z" fill="black"/>
<path fill-rule="evenodd" clip-rule="evenodd" d="M178.076 54.498L177.519 55.7838C177.519 55.7838 176.887 53.94 175.311 53.6005C173.734 53.2609 173.2 53.9641 173.2 53.9641V53.2666C173.2 53.2666 176.451 51.7812 178.076 54.498Z" fill="black"/>
<path fill-rule="evenodd" clip-rule="evenodd" d="M175.638 57.9491C176.379 58.314 175.942 61.5945 174.228 61.2274C172.515 60.8602 174.122 57.2033 175.638 57.9491Z" fill="#083F13"/>
<path fill-rule="evenodd" clip-rule="evenodd" d="M185.439 57.9124C184.067 57.9725 183.631 61.897 185.329 61.897C187.143 61.897 186.888 57.8488 185.439 57.9124Z" fill="#083F13"/>
<path fill-rule="evenodd" clip-rule="evenodd" d="M175.571 64.2616C175.571 64.2616 175.286 67.5193 177.372 68.6656C179.459 69.8114 181.944 68.9665 182.855 67.6465C183.766 66.3265 184.05 64.5538 184.05 64.5538C184.05 64.5538 182.006 66.1256 179.701 65.8185C177.397 65.5119 175.929 64.9034 175.571 64.2616Z" fill="#D13C39"/>
<path fill-rule="evenodd" clip-rule="evenodd" d="M184.049 64.5523C184.049 64.5523 184.009 64.6527 183.922 64.8155L183.917 64.8199C183.54 65.5393 182.285 67.4388 179.701 67.373C176.521 67.2941 175.573 64.2628 175.573 64.2628L175.714 64.2671L175.573 64.2628C175.981 64.3768 177.302 65.3108 179.794 65.2279C182.448 65.1357 183.667 64.5523 184.031 64.5523H184.049Z" fill="white"/>
<path fill-rule="evenodd" clip-rule="evenodd" d="M183.922 64.8153L183.917 64.8197C183.413 65.2979 181.838 66.2323 179.754 66.1358C177.034 66.0085 175.508 64.5442 175.573 64.2626C175.577 64.2582 175.565 64.2626 175.573 64.2626C175.595 64.2582 175.543 64.2538 175.573 64.2626C175.981 64.3766 177.302 65.311 179.794 65.2277C182.448 65.1356 183.667 64.5521 184.031 64.5521H184.049C184.132 64.5565 184.084 64.6618 183.922 64.8153Z" fill="#FF5D53"/>
<path fill-rule="evenodd" clip-rule="evenodd" d="M184.05 64.5535C184.05 64.5535 183.983 69.9025 179.459 69.8116C174.935 69.7204 175.571 64.2614 175.571 64.2614C175.571 64.2614 175.632 68.7746 179.459 68.7202C183.286 68.6654 184.05 64.5535 184.05 64.5535Z" fill="#FF5D53"/>
<mask id="mask0_135_1845" style="mask-type:alpha" maskUnits="userSpaceOnUse" x="198" y="23" width="18" height="31">
<path fill-rule="evenodd" clip-rule="evenodd" d="M198.7 23.5569H216V53.7078H198.7V23.5569Z" fill="white"/>
</mask>
<g mask="url(#mask0_135_1845)">
<path fill-rule="evenodd" clip-rule="evenodd" d="M201.001 45.5949C201.001 45.5949 200.273 36.0368 199.982 33.417C199.74 32.3979 198.526 30.9424 198.721 29.6324C198.914 28.3225 200.613 27.0126 201.001 25.6053C201.389 24.1984 200.443 23.6887 201.171 23.5676C201.898 23.4465 203.306 24.3682 203.063 25.4842C202.82 26.6002 202.869 27.1824 205.028 26.6731C207.187 26.1633 214.319 25.7268 214.805 26.5274C215.159 27.1117 214.319 27.425 214.319 27.425C214.319 27.425 215.896 27.2793 215.993 28.0558C216.09 28.8318 215.168 29.1959 215.168 29.1959C215.168 29.1959 216.284 29.3898 215.799 29.9237C215.314 30.4572 213.082 30.7972 213.082 30.7972C213.082 30.7972 214.497 31.5565 213.907 31.9127C212.621 32.6892 204.81 32.4466 204.227 33.9022C203.88 34.7712 206.144 44.382 206.386 51.5628C206.629 58.7432 201.001 45.5949 201.001 45.5949Z" fill="#FFB1A0"/>
</g>
<path fill-rule="evenodd" clip-rule="evenodd" d="M149.014 115.413C147.995 116.335 147.34 116.82 146.733 117.887C146.127 118.954 145.794 120.361 145.184 121.138C144.574 121.914 143.434 123.758 143.628 126.693C143.822 129.629 144.574 131.108 145.326 130.987C146.078 130.866 146.299 130.769 146.31 130.041C146.321 129.313 145.811 126.984 146.151 126.863C146.491 126.742 147.316 130.162 148.092 130.114C148.868 130.065 148.31 128.221 148.31 128.221C148.31 128.221 149.329 128.343 149.499 127.93C149.669 127.518 148.511 126.911 148.511 126.911C148.511 126.911 148.262 124.898 149.111 123.952C149.959 123.006 151.027 121.817 151.172 120.386C151.318 118.954 150.59 117.451 151.44 117.038C152.288 116.626 149.014 115.413 149.014 115.413Z" fill="#FFB1A0"/>
<path fill-rule="evenodd" clip-rule="evenodd" d="M171.308 140.594C171.308 140.594 163.76 109.542 177.625 74.2208C177.625 74.2208 173.297 73.4685 171.696 75.2882C170.095 77.1074 164.855 91.5902 161.944 98.7952C159.033 106 147.825 115.17 147.825 115.17L152.191 118.591C152.191 118.591 157.432 113.787 160.343 110.658C160.343 110.658 156.752 126.911 160.246 140.594C160.246 140.594 164.127 142.437 171.308 140.594Z" fill="white"/>
<path fill-rule="evenodd" clip-rule="evenodd" d="M183.049 74.5118C183.049 74.5118 179.798 112.405 179.459 139.478C179.459 139.478 186.344 140.642 194.157 139.041C194.157 139.041 200.079 111.677 190.472 82.5656C190.472 82.5656 208.084 75.1426 208.521 47.6326C208.521 47.6326 202.99 48.6517 200.516 43.4116C200.516 43.4116 201.898 55.9295 200.079 60.2962C198.26 64.6624 192.728 70.2982 186.979 74.0665C186.979 74.0665 184.65 72.5711 183.049 74.5118Z" fill="white"/>
<path fill-rule="evenodd" clip-rule="evenodd" d="M128.729 41.4467L115.374 41.8831C115.374 41.8831 112.861 49.4527 113.044 55.1288C113.227 60.8055 117.739 66.8457 117.739 66.8457L126.491 66.4092L131.621 61.1634C131.621 61.1634 132.513 57.8465 132.659 53.6312C132.804 49.4158 131.312 42.4293 131.312 42.4293L128.729 41.4467Z" fill="#FFB1A0"/>
<path fill-rule="evenodd" clip-rule="evenodd" d="M132.513 55.1657C132.513 55.1657 132.95 53.5434 134.514 53.7992C136.079 54.0554 136.48 56.0751 135.933 57.6395C135.388 59.2043 134.078 60.4576 132.349 59.2034C130.621 57.9487 132.513 55.1657 132.513 55.1657Z" fill="#FFB1A0"/>
<path fill-rule="evenodd" clip-rule="evenodd" d="M117.739 60.3029C117.739 61.6786 118.198 64.7354 122.063 64.7354C125.927 64.7354 126.491 61.715 126.491 59.9138C126.491 58.1125 117.739 60.3029 117.739 60.3029Z" fill="#911D21"/>
<path fill-rule="evenodd" clip-rule="evenodd" d="M112.9 55.1657C112.9 55.1657 112.827 54.037 111.881 54.037C110.935 54.037 110.025 55.2381 110.261 57.0209C110.498 58.8042 111.899 60.2777 113.209 60.0777C114.519 59.8776 112.9 55.1657 112.9 55.1657Z" fill="#FFB1A0"/>
<path fill-rule="evenodd" clip-rule="evenodd" d="M141.647 21.069L141.428 17.867C141.428 17.867 137.025 13.3911 136.843 10.88C136.698 9.46087 138.626 8.26018 138.626 8.26018C138.626 8.26018 138.699 0.254591 141.028 0.000152588C141.028 0.000152588 140.519 4.40281 140.773 6.91385C140.773 6.91385 141.683 5.85837 142.447 5.85837C143.211 5.85837 147.323 7.78728 147.978 9.31566C148.633 10.8436 148.306 15.1739 146.85 16.6294L148.379 20.3412L141.647 21.069Z" fill="#FFB1A0"/>
<path fill-rule="evenodd" clip-rule="evenodd" d="M86.8089 32.6406C86.8089 32.6406 85.9355 31.3307 85.8991 30.2024C85.8626 29.0745 85.6446 24.0164 82.7699 20.3411C79.8952 16.6658 78.4563 14.6658 77.7847 15.065C76.62 15.7564 80.0768 19.941 80.4409 21.5782C80.4409 21.5782 76.5107 22.2696 76.2927 22.7065C76.0742 23.143 76.0742 28.456 77.3118 29.4382C78.5489 30.4208 79.2766 29.9479 79.5675 30.3116C79.8588 30.6757 80.2953 31.6943 80.9507 31.9856C81.6052 32.2765 82.0588 32.9266 82.1149 33.9505C82.1711 34.9744 86.8089 32.6406 86.8089 32.6406Z" fill="#FFB1A0"/>
<path fill-rule="evenodd" clip-rule="evenodd" d="M96.6097 178.729C96.6097 178.729 98.0043 184.164 99.9025 186.541C99.9025 186.541 98.3079 190.47 97.5801 190.47C96.8523 190.47 89.0411 189.5 89.0411 189.5L88.6041 187.219L89.5197 186.104C89.5197 186.104 91.3209 185.376 91.2727 184.212C91.224 183.047 90.7388 180.185 90.7388 180.185L96.6097 178.729Z" fill="#3A454F"/>
<path fill-rule="evenodd" clip-rule="evenodd" d="M144.255 184.212C144.255 184.212 147.117 187.556 147.02 188.892C146.923 190.228 153.549 190.818 152.929 189.067C152.308 187.317 150.028 183.872 150.174 182.756C150.319 181.64 144.255 184.212 144.255 184.212Z" fill="#3A454F"/>
<path fill-rule="evenodd" clip-rule="evenodd" d="M118.649 60.5507C118.649 61.1877 118.977 62.6797 121.869 62.6797C124.763 62.6797 125.636 61.5334 125.636 60.1687C125.636 58.8043 118.649 60.5507 118.649 60.5507Z" fill="white"/>
<path fill-rule="evenodd" clip-rule="evenodd" d="M128.946 59.5686C128.293 59.5686 124.981 57.9323 121.16 58.3315C117.339 58.7307 116.975 59.6783 115.593 59.5686C114.211 59.459 113.044 58.257 113.044 55.1291C113.044 50.8344 115.702 45.7632 117.567 43.3109C119.058 44.1093 121.063 44.4997 123.401 44.0304C125.156 43.6794 126.183 42.8284 127.49 43.0126C128.666 43.1749 132.114 48.5444 132.114 54.3658C132.114 58.8404 128.946 59.5686 128.946 59.5686ZM126.455 63.8985C124.691 65.3549 120.993 66.3069 118.374 64.6969C116.448 63.5168 116.067 60.8233 116.703 60.5162C117.229 60.2574 118.558 61.1347 121.651 60.9329C124.744 60.7311 126.327 60.1696 127.073 60.3319C127.819 60.4943 128.218 62.442 126.455 63.8985ZM134.079 43.7013C133.969 40.3191 133.57 37.8449 130.802 38.4985L130.622 37.4808L130.039 37.7703L129.964 36.0989L128.692 37.5159C128.692 37.5159 127.854 36.4235 126.836 36.0989L127.165 36.8622C127.165 36.8622 124.437 34.7521 118.795 34.6776C118.795 34.6776 119.997 34.932 120.686 35.4409C120.686 35.4409 116.94 34.8969 114.426 36.0989C114.426 36.0989 114.062 38.3669 114.935 40.4638C112.566 41.407 112.719 46.8336 112.719 55.0545C112.719 64.0081 112.934 68.7372 122.217 68.7372C131.495 68.7372 132.987 64.2275 132.842 59.3844C132.697 54.5457 134.189 47.088 134.079 43.7013Z" fill="#632F22"/>
<path fill-rule="evenodd" clip-rule="evenodd" d="M124.762 46.7047L124.456 48.7428C124.456 48.7428 127.219 48.2147 129.93 50.198L130.384 49.2886C130.384 49.2886 128.983 47.0688 124.762 46.7047Z" fill="#632F22"/>
<path fill-rule="evenodd" clip-rule="evenodd" d="M121.196 47.2871V49.3433C121.196 49.3433 118.405 49.1568 115.883 50.762L115.647 49.689C115.647 49.689 117.63 47.1959 121.196 47.2871Z" fill="#632F22"/>
<path fill-rule="evenodd" clip-rule="evenodd" d="M130.385 54.9669C130.385 54.9669 129.674 56.3488 127.674 56.3839H127.56C127.047 56.3795 126.608 56.2742 126.235 56.1251C125.209 55.7171 124.709 54.9669 124.709 54.9669C125.551 54.0194 126.362 53.5939 127.095 53.4798C127.442 53.4272 127.771 53.4403 128.078 53.5017C129.46 53.7693 130.385 54.9669 130.385 54.9669Z" fill="white"/>
<path fill-rule="evenodd" clip-rule="evenodd" d="M130.385 54.9669C130.385 54.9669 127.749 51.5496 124.713 54.9582C124.748 54.8222 125.367 52.5498 127.657 52.6375C130.258 52.7384 130.385 54.9669 130.385 54.9669Z" fill="#632F22"/>
<path fill-rule="evenodd" clip-rule="evenodd" d="M119.396 55.2914C119.396 55.2914 118.927 55.6029 118.22 55.8442C117.72 56.0153 117.093 56.1513 116.431 56.1118C116.422 56.1118 116.409 56.1118 116.4 56.1074C114.825 56.0021 114.593 54.765 114.593 54.765C114.772 54.0368 115.518 53.177 116.685 53.3788C117.01 53.4358 117.308 53.5367 117.58 53.6639C117.813 53.7736 118.023 53.9052 118.212 54.0412C118.984 54.6027 119.396 55.2914 119.396 55.2914Z" fill="white"/>
<path fill-rule="evenodd" clip-rule="evenodd" d="M119.396 55.2914C119.396 55.2914 118.422 53.6727 116.685 53.3788C115.518 53.177 114.772 54.0368 114.593 54.765C114.645 54.164 115.356 52.4751 116.992 52.633C118.922 52.8172 119.396 55.2914 119.396 55.2914Z" fill="#632F22"/>
<path fill-rule="evenodd" clip-rule="evenodd" d="M127.56 56.3839C127.047 56.3795 126.608 56.2742 126.235 56.1251C125.867 55.4013 126.441 54.0106 127.095 53.4798C127.275 53.335 127.464 53.2561 127.639 53.2736C127.823 53.2912 127.968 53.3745 128.078 53.5017C128.635 54.1247 128.358 55.8268 127.56 56.3839Z" fill="#632F22"/>
<path fill-rule="evenodd" clip-rule="evenodd" d="M118.22 55.8443C117.72 56.0154 117.093 56.1514 116.431 56.1119C116.422 56.1119 116.409 56.1119 116.4 56.1075C116.132 55.2784 116.992 53.8746 117.58 53.664C117.65 53.6333 117.716 53.6246 117.777 53.6377C117.966 53.6772 118.111 53.8264 118.212 54.0413C118.427 54.5019 118.431 55.2565 118.22 55.8443Z" fill="#632F22"/>
<path fill-rule="evenodd" clip-rule="evenodd" d="M121.596 53.5277C121.596 53.5277 121.469 56.0765 121.014 56.3849C121.014 56.3849 119.171 55.9567 118.844 57.3745C118.541 58.6862 119.85 59.6474 121.433 59.4408C122.948 59.2429 123.907 58.405 123.635 56.3849C123.361 54.3647 122.743 53.0364 122.743 53.0364" fill="#FFB1A0"/>
<path fill-rule="evenodd" clip-rule="evenodd" d="M118.485 68.391C118.485 68.391 116.575 70.8003 117.157 72.7893C117.739 74.7787 118.855 76.7436 120.529 77.9566C120.529 77.9566 120.626 75.7973 121.475 74.9485L125.478 74.73C125.478 74.73 126.181 76.0645 126.108 77.5929C126.108 77.5929 130.208 76.1856 130.403 72.5712C130.413 69.8299 128.091 67.8558 128.091 67.8558L118.485 68.391Z" fill="white"/>
<path fill-rule="evenodd" clip-rule="evenodd" d="M108.642 109.545C108.096 109.311 107.914 110.258 107.478 111.531C107.041 112.805 104.567 118.469 100.976 122.448C97.3859 126.426 85.5475 142.535 84.0919 147.872C82.6364 153.209 89.7203 182.513 89.7203 182.513L99.2297 180.67C99.2297 180.67 95.6364 153.403 96.2686 150.394C96.9007 147.386 108.933 131.666 114.464 127.882L119.898 129.92C119.898 129.92 127.079 155.828 143.575 186.104L152.309 182.999C152.309 182.999 146.224 169.91 141.198 156.071C137.131 144.874 133.892 132.863 134.066 129.434C134.454 121.769 136.007 116.383 136.443 115.558C136.88 114.734 136.297 114.661 136.297 114.661L108.642 109.545Z" fill="#083F13"/>
<path fill-rule="evenodd" clip-rule="evenodd" d="M148.379 20.3413C148.379 20.3413 144.376 19.0314 141.647 21.0691L142.12 24.6352C142.12 24.6352 140.846 24.3803 141.028 25.8359C141.21 27.2914 143.903 41.3373 142.957 47.0867C142.011 52.8362 136.953 62.2245 129.056 70.2301L117.557 70.8122C117.557 70.8122 108.06 69.5387 101.365 61.4603C94.6689 53.3819 90.1565 39.2996 89.7565 37.6984C89.3564 36.0976 87.9732 36.4613 87.9732 36.4613L86.8089 32.6408C86.8089 32.6408 84.7712 33.7687 82.115 33.9507L82.4058 39.2632C82.4058 39.2632 81.46 39.1904 81.7873 41.0829C82.115 42.9749 87.173 74.1239 107.26 81.4741C107.26 81.4741 109.443 95.2589 108.642 109.545C108.642 109.545 118.904 114.806 136.298 114.661C136.298 114.661 144.061 91.2989 142.605 78.5875C142.605 78.5875 151.144 63.7928 152.6 53.7719C154.055 43.7514 152.745 34.9693 151.071 25.0353C150.84 23.66 149.543 23.7254 149.543 23.7254L148.379 20.3413Z" fill="white"/>
<path fill-rule="evenodd" clip-rule="evenodd" d="M123.367 72.5225C122.153 72.4708 121.305 73.3959 121.403 74.4874C121.5 75.5793 122.737 75.9917 122.737 75.9917C122.737 75.9917 122.324 82.6145 120.287 91.4931C118.249 100.372 117.327 100.372 117.279 102.652C117.23 104.933 119.025 109.445 119.462 109.542C119.898 109.639 124.508 107.262 125.915 103.817C127.322 100.372 126.642 84.7974 124.119 76.1132C124.119 76.1132 125.332 75.3849 125.284 74.2935C125.235 73.2016 124.508 72.5712 123.367 72.5225Z" fill="#A8C92F"/>
<path fill-rule="evenodd" clip-rule="evenodd" d="M120.141 115.716C111.952 114.089 109.009 112.45 108.388 112.077C107.478 111.531 107.132 111.549 106.422 113.142C105.713 114.734 105.895 114.761 107.077 115.307C108.26 115.853 113.554 117.79 120.45 119.191C127.346 120.592 133.987 120.847 134.66 120.865C135.333 120.883 135.533 120.301 135.788 119.155C136.043 118.009 136.371 117.262 135.388 117.262C134.405 117.262 128.383 117.353 120.141 115.716Z" fill="#052C10"/>
<path fill-rule="evenodd" clip-rule="evenodd" d="M75.4982 192.411C76.6625 191.247 80.3014 192.897 82.8729 191.247C85.4445 189.598 89.0347 186.056 89.5199 186.104C90.0051 186.153 90.9755 189.064 94.1292 189.016C97.2829 188.967 99.3206 186.347 99.9028 186.541C100.485 186.735 100.388 194.983 99.6602 195.711C98.9324 196.439 92.528 195.808 89.2286 196.293C85.9297 196.778 78.3992 196.943 75.4982 195.419C74.2045 194.741 75.4982 192.411 75.4982 192.411Z" fill="#052C10"/>
<path fill-rule="evenodd" clip-rule="evenodd" d="M145.979 189.16C146.982 188.614 147.483 189.645 149.667 189.597C151.85 189.548 152.772 188.867 153.354 189.111C153.936 189.354 156.605 195.662 155.829 196.584C155.052 197.505 145.203 198.184 143.456 196.778C141.709 195.371 145.445 189.452 145.979 189.16Z" fill="#052C10"/>
<path fill-rule="evenodd" clip-rule="evenodd" d="M146.729 189.742C147.174 190.465 151.193 190.568 152.503 189.742C153.813 188.918 151.872 187.511 150.028 187.463C148.185 187.413 145.953 188.481 146.729 189.742Z" fill="#052C10"/>
<path fill-rule="evenodd" clip-rule="evenodd" d="M125.672 121.623C125.672 121.623 125.805 117.548 126.636 115.413L124.75 115.122C124.75 115.122 123.343 119.003 123.731 121.089C124.12 123.176 125.672 121.623 125.672 121.623Z" fill="#083F13"/>
<path fill-rule="evenodd" clip-rule="evenodd" d="M111.602 118.65C111.602 118.65 113.348 115.259 113.882 113.092L111.844 112.38C111.844 112.38 111.044 115.777 109.807 117.717L111.602 118.65Z" fill="#083F13"/>
<path fill-rule="evenodd" clip-rule="evenodd" d="M48.4331 67.3086C48.4331 67.3086 49.12 65.7776 50.5896 65.9961C52.0588 66.2146 52.5922 67.9851 52.2044 69.7565C51.8162 71.5271 50.5791 72.6918 49.5846 72.6672C48.5897 72.6431 48.2984 71.8183 48.2984 71.8183C48.2984 71.8183 48.0075 76.1363 46.673 77.4463C45.339 78.7562 43.7624 79.9937 43.7624 79.9937C43.7624 79.9937 43.9563 81.061 43.568 81.6432C43.1798 82.2253 41.5303 84.4815 38.7648 84.4815C35.9994 84.4815 34.689 82.7833 34.6408 81.4247C34.6408 81.4247 31.0988 81.2308 29.0852 78.3438C27.0721 75.4573 27.0962 71.9881 27.0962 71.9881C27.0962 71.9881 25.4222 70.6536 25.5437 68.1794C25.6648 65.7048 27.5573 65.7412 27.5573 65.7412C27.5573 65.7412 29.2796 56.7775 30.929 54.2305C32.5785 51.6831 44.6112 51.8774 46.6976 53.4786C48.7836 55.0794 49.2709 63.818 48.4331 67.3086Z" fill="#FFB1A0"/>
<path fill-rule="evenodd" clip-rule="evenodd" d="M3.29459 106.954C3.29459 106.954 1.23583 103.646 0.459795 100.977C-0.31668 98.3093 -0.31668 95.4951 2.10926 92.8266C4.53519 90.1581 9.19273 93.1175 9.19273 93.1175C9.19273 93.1175 9.92051 91.808 10.7452 92.0501C11.5704 92.2932 10.9396 96.2229 9.87225 97.6785C8.80493 99.134 6.71854 102.288 6.71854 102.288C6.71854 102.288 7.26031 103.211 8.1254 103.646L5.56172 107.916L3.29459 106.954Z" fill="#FFB1A0"/>
<path fill-rule="evenodd" clip-rule="evenodd" d="M82.877 125.12L83.1683 127.789C83.1683 127.789 80.8393 129.147 79.3838 132.058C77.9282 134.969 77.6374 137.978 77.0552 138.608C76.4726 139.239 75.6962 139.627 75.8905 140.015C76.0844 140.404 77.6374 140.306 78.559 139.724C79.4807 139.142 79.6264 138.22 80.0146 138.268C80.4028 138.317 80.2085 140.306 80.6454 140.986C81.0819 141.665 86.7098 140.404 88.2141 136.425C89.7183 132.446 87.7776 124.198 87.7776 124.198L82.877 125.12Z" fill="#FFB1A0"/>
<path fill-rule="evenodd" clip-rule="evenodd" d="M29.4449 183.755C29.4449 183.755 30.8394 189.191 32.7381 191.568C32.7381 191.568 31.143 195.497 30.4152 195.497C29.6875 195.497 21.8762 194.527 21.8762 194.527L21.4393 192.246L22.3548 191.131C22.3548 191.131 24.1561 190.402 24.1078 189.238C24.0591 188.074 23.5739 185.211 23.5739 185.211L29.4449 183.755Z" fill="#3A454F"/>
<path fill-rule="evenodd" clip-rule="evenodd" d="M75.3788 188.028C75.3788 188.028 78.2413 191.373 78.1443 192.708C78.0474 194.044 84.6729 194.634 84.0526 192.883C83.4327 191.133 81.1524 187.688 81.298 186.572C81.4437 185.456 75.3788 188.028 75.3788 188.028Z" fill="#3A454F"/>
<path fill-rule="evenodd" clip-rule="evenodd" d="M8.33329 197.438C9.49756 196.274 13.1365 197.923 15.708 196.274C18.2796 194.624 21.8698 191.083 22.355 191.131C22.8402 191.179 23.8106 194.091 26.9643 194.042C30.118 193.993 32.1557 191.373 32.7379 191.567C33.32 191.762 33.223 200.009 32.4953 200.738C31.7675 201.465 25.3631 200.835 22.0637 201.32C18.7648 201.805 11.2343 201.969 8.33329 200.446C7.0396 199.767 8.33329 197.438 8.33329 197.438Z" fill="#311206"/>
<path fill-rule="evenodd" clip-rule="evenodd" d="M77.1034 192.976C78.1058 192.429 78.6072 193.461 80.7906 193.413C82.9739 193.365 83.896 192.683 84.4782 192.927C85.0603 193.17 87.7288 199.478 86.9528 200.4C86.1763 201.321 76.3269 202.001 74.5805 200.594C72.8337 199.186 76.5695 193.267 77.1034 192.976Z" fill="#311206"/>
<path fill-rule="evenodd" clip-rule="evenodd" d="M77.8531 193.559C78.2979 194.281 82.3167 194.383 83.6271 193.559C84.9365 192.734 82.9962 191.327 81.1524 191.278C79.3086 191.23 77.0766 192.297 77.8531 193.559Z" fill="#311206"/>
<path fill-rule="evenodd" clip-rule="evenodd" d="M27.5571 65.7413C27.5571 65.7413 28.3213 59.8098 29.8497 56.2437C29.8497 56.2437 27.9572 52.6048 30.0317 48.6751C30.0317 48.6751 31.3776 48.5658 32.2875 49.7665C32.2875 49.7665 32.251 45.7639 34.1799 44.3812C34.1799 44.3812 38.1461 44.1627 41.3481 47.9109C41.3481 47.9109 41.7122 47.1831 41.603 46.3461C41.603 46.3461 46.3702 46.7466 48.4079 51.1857C48.4079 51.1857 48.9536 49.9122 49.6814 49.8757C49.6814 49.8757 50.2271 51.004 49.9363 52.0955C49.9363 52.0955 50.8457 54.2424 50.5184 57.1536C50.1907 60.0647 49.6086 61.5202 49.6086 61.5202C49.6086 61.5202 49.645 66.069 49.1357 68.4339H48.3715C48.3715 68.4339 49.0628 59.519 46.8795 55.9165C44.6961 52.314 34.9077 52.3504 31.7417 55.3703C29.4891 57.5199 27.5571 65.7413 27.5571 65.7413Z" fill="#632F22"/>
<path fill-rule="evenodd" clip-rule="evenodd" d="M39.8928 66.3599C39.8928 66.3599 40.6206 64.2494 43.0224 64.213C45.4238 64.1766 45.8607 66.6512 45.8607 66.6512C45.8607 66.6512 45.0965 65.5229 42.8767 65.4317C40.8702 65.3492 39.8928 66.3599 39.8928 66.3599Z" fill="#632F22"/>
<path fill-rule="evenodd" clip-rule="evenodd" d="M34.0159 66.8149C34.0159 66.8149 34.0164 64.013 31.7054 63.7945C29.7387 63.6085 28.9399 65.8322 28.9399 65.8322C28.9399 65.8322 30.0313 64.5951 31.5782 64.8136C33.1245 65.0316 34.0159 66.8149 34.0159 66.8149Z" fill="#632F22"/>
<path fill-rule="evenodd" clip-rule="evenodd" d="M35.5261 58.7546C35.5261 58.7546 35.7445 60.0281 35.6537 61.0108C35.6537 61.0108 32.0877 61.4109 30.3044 63.0669L29.9587 62.0114C29.9587 62.0114 32.0877 59.3732 35.5261 58.7546Z" fill="#632F22"/>
<path fill-rule="evenodd" clip-rule="evenodd" d="M41.0572 58.7546C41.0572 58.7546 40.7295 60.0466 40.2566 60.6103C40.2566 60.6103 44.5325 61.8114 45.8604 63.5578L46.5702 62.7028C46.5702 62.7028 44.314 59.446 41.0572 58.7546Z" fill="#632F22"/>
<path fill-rule="evenodd" clip-rule="evenodd" d="M73.406 189.425C73.406 189.425 70.9011 183.906 67.8215 178.979C67.0407 177.734 66.2247 176.523 65.4 175.452C65.3386 175.374 65.2815 175.299 65.2245 175.22C61.2018 169.965 57.1088 163.986 56.3806 151.289C55.648 138.41 55.648 136.519 55.648 136.519L48.4448 135.935C48.4448 135.935 34.6174 153.4 33.6698 159.006C33.2004 161.77 32.6828 166.332 32.3143 171.588C32.2046 173.11 32.1081 174.694 32.0291 176.304C31.8317 180.401 31.744 184.7 31.8492 188.771L21.4436 188.846C21.4436 188.846 20.7636 182.928 20.5224 175.768C20.4741 174.404 20.4434 173.004 20.439 171.583V171.579C20.4083 165.99 20.7417 160.2 21.9042 156.19C24.2205 148.197 32.2353 136.396 35.7974 131.399C36.859 129.908 37.5259 129.022 37.5259 129.022L52.6956 127.5L53.4546 127.421L69.4052 125.82C69.4052 125.82 69.4008 126.127 69.392 126.68C69.3877 127.07 69.3833 127.583 69.3745 128.197C69.3482 130.105 69.3043 133.001 69.2473 136.304C69.2429 136.629 69.2385 136.954 69.2297 137.287C69.1025 144.534 68.9095 153.4 68.677 158.133C68.677 159.44 72.5418 162.331 76.3628 169.447C77.0778 170.768 77.7885 172.237 78.4685 173.869C79.8416 177.142 81.1094 181.068 82.0657 185.788C82.5044 187.244 78.5738 189.5 73.406 189.425Z" fill="#D65F23"/>
<path fill-rule="evenodd" clip-rule="evenodd" d="M41.6715 73.7651C41.4259 74.1994 41.0661 74.603 40.5836 74.9013C39.5615 75.5374 36.3547 75.9454 34.0779 75.1382C33.6523 74.9934 33.2619 74.8004 32.9197 74.5591C31.4765 73.5414 32.3582 71.5497 32.3582 71.5497C32.4942 71.4401 32.832 71.3348 33.3014 71.2383C35.2623 70.8391 39.5439 70.6197 41.2109 70.975C41.5004 71.0365 41.7154 71.1154 41.8207 71.2119C42.2418 71.6024 42.255 72.7605 41.6715 73.7651Z" fill="#931B21"/>
<path fill-rule="evenodd" clip-rule="evenodd" d="M41.2108 70.9751C41.1187 71.4796 40.8116 71.9227 40.1228 72.1333C39.1753 72.4228 36.7011 72.6904 34.784 72.3044C33.7882 72.1026 33.4197 71.6376 33.3013 71.2383C35.2622 70.8391 39.5438 70.6198 41.2108 70.9751Z" fill="white"/>
<path fill-rule="evenodd" clip-rule="evenodd" d="M41.6715 73.7651C41.4258 74.1994 41.0661 74.603 40.5836 74.9013C39.5614 75.5374 36.3546 75.9454 34.0779 75.1382C34.8148 74.546 36.1002 73.7081 37.6751 73.4931C39.2719 73.2738 40.7854 73.5414 41.6715 73.7651Z" fill="#C00024"/>
<path fill-rule="evenodd" clip-rule="evenodd" d="M69.3921 126.68C69.3877 127.07 69.3833 127.583 69.3745 128.197C69.3482 130.106 69.3043 133.001 69.2473 136.304C69.2429 136.629 69.2385 136.954 69.2298 137.287C59.7322 132.922 35.1043 132.391 35.1043 132.391C36.2011 130.856 36.8854 129.943 36.8854 129.943L52.5158 128.372L53.2967 128.294L69.3921 126.68Z" fill="#B7430F"/>
<path fill-rule="evenodd" clip-rule="evenodd" d="M32.095 101.003C32.095 101.003 32.1081 103.622 31.7835 107.066C31.6738 108.215 31.5291 109.457 31.3317 110.724C30.4631 116.348 28.603 122.481 24.6198 123.297C17.0524 124.85 7.44518 119.126 2.11075 107.285C2.11075 107.285 2.58453 107.211 3.2952 106.956C4.50598 106.517 6.40988 105.539 7.83122 103.469C7.93212 103.324 8.02863 103.175 8.12514 103.017C8.12514 103.017 17.3419 114.756 20.4478 113.106C21.4524 112.576 21.8385 110.281 22.0666 107.228C22.1631 105.921 22.2333 104.473 22.3035 102.964C22.593 97.1032 22.9703 90.3342 25.5366 87.2941C26.9711 85.592 28.7302 84.6445 30.1998 84.118C32.5293 99.4019 39.3991 113.536 39.3991 113.536C38.9165 113.532 38.4296 113.514 37.9383 113.497C37.9383 113.497 36.6398 112.308 35.6747 110.172C34.7139 108.035 32.095 101.003 32.095 101.003Z" fill="#D65F23"/>
<path fill-rule="evenodd" clip-rule="evenodd" d="M74.2571 126.741C74.2571 126.741 72.4277 127.372 69.3745 128.197C65.7422 129.18 60.3726 130.426 54.2881 131.189C54.0468 131.22 53.8011 131.25 53.5555 131.277C47.9403 131.94 41.7592 132.177 35.7974 131.4C35.4991 131.36 35.2008 131.321 34.9069 131.277C34.9069 131.277 35.9115 128.219 36.7625 124.135C36.9819 123.104 37.1837 122.007 37.3635 120.88C37.6004 119.366 37.7891 117.792 37.8812 116.239L38.4471 116.629C38.4471 116.629 43.7069 116.993 50.783 115.923V115.918L49.6818 112.799V112.795C47.5893 113.128 45.3389 113.374 42.9656 113.479C36.8503 104.219 33.2443 83.4643 33.2443 83.4643L33.4022 81.2095C33.4022 81.2095 33.4241 81.2139 33.468 81.2227C33.9067 81.3192 36.4686 81.8193 39.399 81.363C39.6798 81.3236 39.9649 81.2709 40.2545 81.2095C41.7021 80.898 43.2024 80.3321 44.5448 79.3539L46.9401 82.3457C46.9401 82.3457 48.958 82.0825 51.7086 82.0123L51.6472 82.0737C52.292 101.981 58.1222 110.566 58.3064 110.83C56.1481 111.483 53.5379 112.141 50.5899 112.65L51.6472 115.783C56.1437 115.041 61.2895 113.712 66.2598 111.36L66.3475 110.856C66.9091 111.896 67.611 113.229 68.4138 114.782C68.9797 115.879 69.5938 117.085 70.2387 118.379C71.5021 120.897 72.8796 123.745 74.2571 126.741Z" fill="#D65F23"/>
<path fill-rule="evenodd" clip-rule="evenodd" d="M89.3918 125.916L88.1503 126.043L83.0308 126.557L81.1927 126.741C81.1927 126.741 76.9243 107.636 70.4317 101.42C70.3966 101.385 70.3616 101.35 70.3265 101.319C69.4315 100.556 68.4577 99.9108 67.5232 99.3799C65.2816 98.1034 63.2899 97.4848 63.2899 97.4848C63.2899 97.4848 66.1545 105.925 64.9876 108.351C64.9876 108.351 63.5838 109.04 61.1184 109.913C55.2356 96.704 55.5076 82.0738 55.5076 82.0738C57.8809 82.2098 60.3683 82.5783 62.4169 83.3635C64.4305 84.14 66.7336 85.1797 69.0411 86.4168C70.5195 87.2108 71.9979 88.0882 73.4016 89.0313C76.275 90.9484 78.8545 93.1506 80.5128 95.4932C84.2504 100.784 88.9575 114.804 89.3918 125.916Z" fill="#D65F23"/>
<path fill-rule="evenodd" clip-rule="evenodd" d="M66.3476 110.856L66.2599 111.36C61.2896 113.712 56.1438 115.041 51.6473 115.782L50.59 112.65C53.538 112.141 56.1482 111.483 58.3065 110.83C58.1223 110.566 52.2921 101.981 51.6473 82.0738L51.7087 82.0124H51.7131C52.88 81.986 54.1741 81.9948 55.5077 82.0738C55.5077 82.0738 55.2357 96.704 61.1185 109.913C63.5839 109.04 64.9877 108.351 64.9877 108.351C64.9877 108.351 65.4966 109.264 66.3476 110.856Z" fill="#383536"/>
<path fill-rule="evenodd" clip-rule="evenodd" d="M50.7831 115.918V115.923C43.707 116.993 38.4472 116.629 38.4472 116.629L37.8813 116.239C37.9383 115.313 37.9603 114.392 37.9383 113.497C38.4297 113.514 38.9166 113.532 39.3991 113.536C39.3991 113.536 32.5293 99.4019 30.1999 84.1181C31.9152 83.5083 33.2444 83.4644 33.2444 83.4644C33.2444 83.4644 36.8504 104.219 42.9657 113.479C45.339 113.374 47.5894 113.128 49.682 112.795V112.799L50.7831 115.918Z" fill="#383536"/>
<path fill-rule="evenodd" clip-rule="evenodd" d="M51.6471 115.783V115.787C51.3532 115.83 51.0681 115.879 50.7829 115.923V115.919L49.6818 112.8V112.795C49.9889 112.751 50.2916 112.699 50.5899 112.65L51.6471 115.783Z" fill="#373737"/>
<path fill-rule="evenodd" clip-rule="evenodd" d="M70.2388 118.38C64.0928 120.906 58.039 122.367 52.7089 123.192C52.4282 123.24 52.1518 123.28 51.8798 123.319C45.1723 124.289 39.6975 124.262 36.7627 124.135C36.982 123.104 37.1838 122.008 37.3637 120.88C42.5665 120.836 47.2253 120.376 51.2832 119.708C51.5771 119.661 51.871 119.612 52.1562 119.564C60.2456 118.147 65.8256 115.954 68.4139 114.782C68.9798 115.879 69.594 117.085 70.2388 118.38Z" fill="#FFC000"/>
<path fill-rule="evenodd" clip-rule="evenodd" d="M54.2881 131.189C54.0468 131.22 53.8011 131.251 53.5555 131.277C53.3449 130.422 52.6035 127.381 51.8797 123.319C51.6779 122.187 51.4717 120.977 51.2831 119.708C51.1032 118.489 50.9321 117.221 50.783 115.923V115.918L49.6819 112.8V112.795C49.559 112.58 41.8381 98.7134 39.399 81.3677V81.3629C39.6798 81.3238 39.965 81.2708 40.2545 81.2094C40.2545 81.2094 43.3472 100.134 50.5899 112.65L51.6472 115.783V115.787C51.6603 115.883 51.8446 117.405 52.1561 119.564C52.3096 120.643 52.4938 121.884 52.7088 123.192C53.1431 125.881 53.6871 128.834 54.2881 131.189Z" fill="#AD5500"/>
<path fill-rule="evenodd" clip-rule="evenodd" d="M73.4018 89.0314C73.314 94.8264 71.6295 99.0992 70.4319 101.42C70.3968 101.385 70.3617 101.35 70.3266 101.319C69.4317 100.556 68.4578 99.9108 67.5234 99.38C69.5677 93.7999 69.379 88.9699 69.0412 86.4168C70.5196 87.2108 71.998 88.0882 73.4018 89.0314Z" fill="#FFC000"/>
<path fill-rule="evenodd" clip-rule="evenodd" d="M31.7835 107.066C31.6739 108.215 31.5291 109.457 31.3317 110.725C27.3133 110.396 24.032 108.597 22.0666 107.228C22.1631 105.921 22.2333 104.473 22.3035 102.964C26.085 106.246 29.9586 106.873 31.7835 107.066Z" fill="#FFC000"/>
<path fill-rule="evenodd" clip-rule="evenodd" d="M55.126 57.4416C54.2179 57.3758 25.1506 55.3973 25.1506 55.3973C24.3039 55.3359 24.5013 54.3708 24.747 53.6689C24.9883 52.967 26.0323 53.0372 27.6467 53.2785C27.9669 53.3267 29.1865 53.4583 30.95 53.6382C30.9325 53.8488 30.9193 53.9848 30.8974 54.0242C30.8974 54.0242 43.2595 56.63 43.3561 55.1999C43.3648 55.0903 43.3692 54.9806 43.378 54.8709C49.4319 55.4587 55.0471 55.9983 55.613 56.0378C56.8501 56.1212 56.0385 57.503 55.126 57.4416Z" fill="#FFC000"/>
<path fill-rule="evenodd" clip-rule="evenodd" d="M51.5658 56.0204C51.6965 54.1024 53.8105 43.6968 46.062 40.4571C46.062 40.4571 46.327 39.9201 45.3562 39.7885C44.3853 39.6569 40.6855 39.3064 40.2305 39.2757C39.7752 39.2445 39.4282 39.5477 39.4449 39.7775C39.4449 39.7775 29.5371 39.4608 27.8587 51.1378C27.2853 54.7569 28.2066 54.6565 28.2066 54.6565L51.5658 56.0204Z" fill="#FFC000"/>
<path fill-rule="evenodd" clip-rule="evenodd" d="M43.3781 54.8707C38.8377 54.4277 34.0516 53.9583 30.9501 53.638C30.9852 53.1423 31.0159 52.2255 31.0948 51.1287C31.2001 49.567 32.3583 45.9566 38.1796 46.3558C43.8475 46.7419 43.6544 50.8129 43.3781 54.8707Z" fill="#2F2E2C"/>
<path fill-rule="evenodd" clip-rule="evenodd" d="M38.5652 50.7624C38.4735 52.1061 37.0258 53.1019 35.3312 52.9865C33.637 52.8711 32.3376 51.688 32.4293 50.3439C32.5209 48.9997 33.9686 48.0039 35.6632 48.1197C37.3575 48.2351 38.6564 49.4187 38.5652 50.7624Z" fill="#73B5B5"/>
<path fill-rule="evenodd" clip-rule="evenodd" d="M78.4685 173.869C74.9458 176.861 70.5414 178.321 67.8216 178.979C67.0407 177.734 66.2248 176.523 65.4 175.452C65.3386 175.374 65.2816 175.299 65.2245 175.22C71.3618 173.72 74.8757 170.903 76.3628 169.447C77.0779 170.768 77.7885 172.237 78.4685 173.869Z" fill="#FFC000"/>
<path fill-rule="evenodd" clip-rule="evenodd" d="M32.3143 171.588C32.2046 173.11 32.1081 174.694 32.0292 176.304C27.7388 176.939 23.2072 176.304 20.5224 175.768C20.4742 174.404 20.4434 173.004 20.4391 171.583C25.6112 172.588 29.9015 172.079 32.3143 171.588Z" fill="#FFC000"/>
<path fill-rule="evenodd" clip-rule="evenodd" d="M47.9601 112.608C48.8607 112.537 50.4961 112.355 52.2053 111.898C52.5457 111.808 52.9015 111.973 53.0511 112.291C53.3287 112.883 53.7494 113.879 53.9956 114.944C54.0811 115.314 53.8613 115.688 53.4985 115.798C52.6255 116.066 50.9291 116.516 49.0143 116.66C48.726 116.682 48.4554 116.526 48.3207 116.271C48.0075 115.676 47.4692 114.538 47.2959 113.444C47.2297 113.026 47.5381 112.641 47.9601 112.608Z" fill="#B8B8B8"/>
</svg>
