<svg width="15" height="15" viewBox="0 0 15 15" fill="none" xmlns="http://www.w3.org/2000/svg">
<path fill-rule="evenodd" clip-rule="evenodd" d="M0 7.5C0 3.37063 3.37029 0 7.5 0C11.6294 0 15 3.37029 15 7.5C15 11.6294 11.6297 15 7.5 15C3.37063 15 0 11.6297 0 7.5ZM0.878906 7.5C0.878906 11.1509 3.84911 14.1211 7.5 14.1211C11.1509 14.1211 14.1211 11.1509 14.1211 7.5C14.1211 3.84911 11.1509 0.878906 7.5 0.878906C3.84911 0.878906 0.878906 3.84911 0.878906 7.5Z" fill="#083F14"/>
<path fill-rule="evenodd" clip-rule="evenodd" d="M1.75781 7.5C1.75781 4.34624 4.34658 1.75781 7.5 1.75781C10.6538 1.75781 13.2422 4.34658 13.2422 7.5C13.2422 10.6538 10.6534 13.2422 7.5 13.2422C4.34624 13.2422 1.75781 10.6534 1.75781 7.5ZM2.63672 7.5C2.63672 10.1816 4.81842 12.3633 7.5 12.3633C10.1816 12.3633 12.3633 10.1816 12.3633 7.5C12.3633 4.81842 10.1816 2.63672 7.5 2.63672C4.81842 2.63672 2.63672 4.81842 2.63672 7.5Z" fill="#083F14"/>
<path fill-rule="evenodd" clip-rule="evenodd" d="M9.79454 4.05819C9.59267 3.9236 9.31973 3.97808 9.18514 4.18007L7.5 6.70772L5.81486 4.18007C5.68028 3.97808 5.40733 3.92349 5.20546 4.05819C5.00347 4.19277 4.949 4.4656 5.08358 4.66759L6.67889 7.06054H5.74219C5.49946 7.06054 5.30274 7.25727 5.30274 7.5C5.30274 7.74273 5.49946 7.93945 5.74219 7.93945H7.06055V8.81836H5.74219C5.49946 8.81836 5.30274 9.01508 5.30274 9.25781C5.30274 9.50054 5.49946 9.69726 5.74219 9.69726H7.06055V11.0156C7.06055 11.2584 7.25727 11.4551 7.5 11.4551C7.74273 11.4551 7.93945 11.2584 7.93945 11.0156V9.69726H9.25781C9.50054 9.69726 9.69727 9.50054 9.69727 9.25781C9.69727 9.01508 9.50054 8.81836 9.25781 8.81836H7.93945V7.93945H9.25781C9.50054 7.93945 9.69727 7.74273 9.69727 7.5C9.69727 7.25727 9.50054 7.06054 9.25781 7.06054H8.32111L9.91642 4.66759C10.051 4.46571 9.99653 4.19277 9.79454 4.05819Z" fill="#083F14"/>
</svg>
