<svg width="20" height="21" viewBox="0 0 20 21" fill="none" xmlns="http://www.w3.org/2000/svg">
<path d="M10 0.5C4.45312 0.5 0 4.99219 0 10.5C0 16.0469 4.45312 20.5 10 20.5C15.5078 20.5 20 16.0469 20 10.5C20 4.99219 15.5078 0.5 10 0.5ZM14.4922 8.78125L9.49219 13.7812C9.29688 14.0156 9.02344 14.0938 8.75 14.0938C8.4375 14.0938 8.16406 14.0156 7.96875 13.7812L5.46875 11.2812C5.03906 10.8516 5.03906 10.1875 5.46875 9.75781C5.89844 9.32812 6.5625 9.32812 6.99219 9.75781L8.75 11.4766L12.9688 7.25781C13.3984 6.82812 14.0625 6.82812 14.4922 7.25781C14.9219 7.6875 14.9219 8.35156 14.4922 8.78125Z" fill="#A9CA2E"/>
</svg>
