<svg width="30" height="30" viewBox="0 0 30 30" fill="none" xmlns="http://www.w3.org/2000/svg">
<path fill-rule="evenodd" clip-rule="evenodd" d="M21.3874 17.5781C21.0215 17.3959 19.2272 16.5184 18.8932 16.3962C18.5591 16.2752 18.3159 16.2153 18.0716 16.5795C17.8284 16.9413 17.1296 17.7602 16.9171 18.0022C16.7034 18.2454 16.491 18.2747 16.1262 18.0938C15.7615 17.9105 14.585 17.5279 13.1911 16.291C12.1066 15.3279 11.3735 14.1387 11.161 13.7745C10.9485 13.4115 11.1377 13.2147 11.3207 13.0338C11.4852 12.8713 11.6854 12.6097 11.8684 12.3983C12.0514 12.1856 12.1116 12.034 12.2331 11.7908C12.356 11.5488 12.2945 11.3374 12.2024 11.1553C12.1116 10.9732 11.3821 9.18505 11.0775 8.45783C10.7815 7.75016 10.4806 7.84672 10.2571 7.83449C10.0434 7.82472 9.80027 7.82227 9.55711 7.82227C9.31394 7.82227 8.91849 7.91272 8.58445 8.27694C8.24917 8.63994 7.30722 9.51872 7.30722 11.3068C7.30722 13.0937 8.61392 14.8207 8.79691 15.0639C8.9799 15.3059 11.3698 18.975 15.0308 20.548C15.9027 20.922 16.5819 21.1457 17.1112 21.3119C17.9856 21.5894 18.7814 21.5503 19.4102 21.4562C20.1102 21.3523 21.5692 20.5774 21.8738 19.7292C22.1771 18.8809 22.1771 18.1537 22.0862 18.0022C21.9953 17.8506 21.7522 17.7602 21.3862 17.5781H21.3874ZM14.7287 26.6262H14.7237C12.5493 26.6266 10.4148 26.0448 8.54392 24.9419L8.1018 24.6804L3.50624 25.8806L4.73311 21.4219L4.44451 20.9648C3.22885 19.039 2.58552 16.8102 2.58884 14.5359C2.5913 7.87483 8.03671 2.45549 14.7336 2.45549C17.9758 2.45549 21.0239 3.71438 23.3156 5.99749C24.4459 7.11776 25.3418 8.44996 25.9514 9.91704C26.561 11.3841 26.8723 12.9569 26.8672 14.5445C26.8648 21.2056 21.4194 26.6262 14.7287 26.6262ZM25.0595 4.26316C23.7063 2.90762 22.0963 1.83282 20.3228 1.10103C18.5492 0.369239 16.6474 -0.00498208 14.7274 5.00837e-05C6.67843 5.00837e-05 0.125267 6.52061 0.12281 14.5347C0.119081 17.0852 0.791359 19.5915 2.07181 21.8008L0 29.3334L7.74197 27.3118C9.88363 28.4731 12.2836 29.0816 14.7225 29.0816H14.7287C22.7776 29.0816 29.3308 22.5611 29.3333 14.5457C29.3392 12.6357 28.9645 10.7435 28.231 8.97853C27.4974 7.21356 26.4194 5.61087 25.0595 4.26316Z" fill="#F8F8F8"/>
</svg>
