<svg width="12" height="14" viewBox="0 0 12 14" fill="none" xmlns="http://www.w3.org/2000/svg">
<path fill-rule="evenodd" clip-rule="evenodd" d="M1.60694 7.72854C1.69592 7.79075 2.78213 7.83107 4.16554 7.84963C4.65273 8.17251 5.29749 8.37064 6.00564 8.37611V8.37632C6.00673 8.37632 6.00781 8.37626 6.00893 8.3762C6.01002 8.37626 6.01111 8.37632 6.0122 8.37632V8.37611C6.72034 8.37073 7.36513 8.17254 7.85229 7.84963C9.23573 7.8311 10.3219 7.79075 10.4109 7.72854C10.8159 7.44561 9.41392 7.00957 9.41392 3.34897C9.41392 1.4994 7.91455 0 6.06495 0C6.04928 0 5.96855 0 5.95288 0C4.10328 0 2.60388 1.4994 2.60388 3.34897C2.60391 7.00955 1.202 7.44564 1.60694 7.72854Z" fill="#A9CA2E"/>
<path fill-rule="evenodd" clip-rule="evenodd" d="M9.57669 9.60135C9.08088 9.42252 8.2176 8.90707 8.06971 8.82748C8.03139 8.80525 7.98696 8.79225 7.93942 8.79225C7.83566 8.79225 7.74633 8.8532 7.70478 8.94123C7.29595 9.62569 6.53794 11.6162 6.00897 11.6531C5.48002 11.6162 4.72202 9.62569 4.31313 8.94123C4.27152 8.8532 4.18222 8.79225 4.07846 8.79225C4.03089 8.79225 3.9865 8.80525 3.94815 8.82748C3.80028 8.90701 2.93708 9.42247 2.44119 9.60135C0.776626 10.2015 0.0280151 10.8137 0.0280151 11.231C0.0280151 11.6479 0.0280151 13.9653 0.0280151 13.9653H6.00897H11.9899C11.9899 13.9653 11.9899 11.6479 11.9899 11.231C11.9899 10.8137 11.2412 10.2015 9.57669 9.60135Z" fill="#A9CA2E"/>
</svg>
